<svg width="191" height="179" viewBox="0 0 191 179" fill="none" xmlns="http://www.w3.org/2000/svg">
<rect width="191" height="179" fill="white"/>
<rect y="145" width="191" height="34" fill="#3F1A8E"/>
<mask id="mask0" mask-type="alpha" maskUnits="userSpaceOnUse" x="0" y="0" width="191" height="179">
<rect width="191" height="179" fill="#C4C4C4"/>
</mask>
<g mask="url(#mask0)">
<path d="M-23.1685 -18.3745L41.0121 -10.4581L-17.5859 46.0511L-23.1685 -18.3745Z" fill="#3F1A8E"/>
<rect x="69" y="54" width="54" height="4" rx="2" fill="#082D72"/>
<path d="M24.36 79.04C24.2 78.8533 23.8933 78.6267 23.44 78.36C23.0133 78.0933 22.4933 77.8267 21.88 77.56C21.2933 77.2667 20.64 77.0133 19.92 76.8C19.2 76.56 18.4533 76.4 17.68 76.32V83.24L18.68 83.48C20.0667 83.8533 21.32 84.2533 22.44 84.68C23.5867 85.1067 24.5467 85.64 25.32 86.28C26.12 86.92 26.7333 87.6933 27.16 88.6C27.5867 89.48 27.8 90.5733 27.8 91.88C27.8 93.3467 27.5333 94.6 27 95.64C26.4933 96.68 25.7867 97.5333 24.88 98.2C24 98.8667 22.96 99.3733 21.76 99.72C20.5867 100.04 19.3467 100.227 18.04 100.28V104.68H15.64V100.24C13.7733 100.107 11.9467 99.7333 10.16 99.12C8.4 98.48 6.8 97.6533 5.36 96.64L7.8 91.88C8.01333 92.0933 8.37333 92.3733 8.88 92.72C9.41333 93.0667 10.04 93.4133 10.76 93.76C11.5067 94.08 12.32 94.3867 13.2 94.68C14.1067 94.9733 15.04 95.1733 16 95.28V88.4C15.76 88.3467 15.52 88.2933 15.28 88.24C15.04 88.16 14.8 88.08 14.56 88C13.2 87.6267 12.0133 87.2267 11 86.8C10.0133 86.3467 9.18667 85.8267 8.52 85.24C7.85333 84.6267 7.34667 83.9333 7 83.16C6.68 82.36 6.52 81.4133 6.52 80.32C6.52 78.9867 6.74667 77.8 7.2 76.76C7.68 75.6933 8.32 74.7867 9.12 74.04C9.94667 73.2933 10.92 72.7067 12.04 72.28C13.16 71.8533 14.36 71.5867 15.64 71.48V67.4H18.04V71.44C19.8 71.5733 21.4133 71.9333 22.88 72.52C24.3733 73.1067 25.68 73.7867 26.8 74.56L24.36 79.04ZM21.92 92.44C21.92 91.5333 21.5467 90.8267 20.8 90.32C20.0533 89.8133 19.0133 89.3467 17.68 88.92V95.36C20.5067 95.28 21.92 94.3067 21.92 92.44ZM12.2 79.44C12.2 80.3467 12.5067 81.04 13.12 81.52C13.76 81.9733 14.72 82.3867 16 82.76V76.28C13.4667 76.44 12.2 77.4933 12.2 79.44ZM48.1516 95.16V100H31.9116V95.16H37.5916V83.04C37.3516 83.36 36.9649 83.6933 36.4316 84.04C35.9249 84.36 35.3649 84.6667 34.7516 84.96C34.1382 85.2533 33.4982 85.4933 32.8316 85.68C32.1916 85.8667 31.6182 85.96 31.1116 85.96V80.96C31.5916 80.96 32.1782 80.8133 32.8716 80.52C33.5649 80.2 34.2449 79.8267 34.9116 79.4C35.5782 78.9733 36.1516 78.56 36.6316 78.16C37.1382 77.7333 37.4582 77.4 37.5916 77.16H43.0716V95.16H48.1516ZM71.5172 91.6C71.5172 92.9333 71.2372 94.1333 70.6772 95.2C70.1439 96.2667 69.3972 97.1867 68.4372 97.96C67.5039 98.7333 66.4105 99.3333 65.1572 99.76C63.9039 100.16 62.5705 100.36 61.1572 100.36C59.7439 100.36 58.4105 100.147 57.1572 99.72C55.9039 99.2667 54.8105 98.64 53.8772 97.84C52.9439 97.04 52.2105 96.0933 51.6772 95C51.1439 93.9067 50.8772 92.7067 50.8772 91.4C50.8772 90.6 51.0105 89.8667 51.2772 89.2C51.5439 88.5067 51.8905 87.88 52.3172 87.32C52.7439 86.76 53.2105 86.2667 53.7172 85.84C54.2505 85.4133 54.7839 85.0667 55.3172 84.8C54.3305 84.32 53.4905 83.6 52.7972 82.64C52.1039 81.68 51.7572 80.6267 51.7572 79.48C51.7572 78.2 52.0372 77.08 52.5972 76.12C53.1839 75.1333 53.9305 74.3067 54.8372 73.64C55.7705 72.9733 56.7839 72.4667 57.8772 72.12C58.9972 71.7733 60.1039 71.6 61.1972 71.6C62.2639 71.6 63.3572 71.7733 64.4772 72.12C65.6239 72.44 66.6505 72.9333 67.5572 73.6C68.4639 74.2667 69.2105 75.0933 69.7972 76.08C70.3839 77.04 70.6772 78.16 70.6772 79.44C70.6772 80 70.5839 80.56 70.3972 81.12C70.2105 81.6533 69.9439 82.16 69.5972 82.64C69.2772 83.0933 68.8905 83.5067 68.4372 83.88C67.9839 84.2533 67.5039 84.56 66.9972 84.8C67.5839 85.0933 68.1439 85.4667 68.6772 85.92C69.2105 86.3467 69.6905 86.8533 70.1172 87.44C70.5439 88 70.8772 88.6267 71.1172 89.32C71.3839 90.0133 71.5172 90.7733 71.5172 91.6ZM66.0772 91.28C66.0772 90.6133 65.9305 90.0133 65.6372 89.48C65.3705 88.9467 64.9972 88.5067 64.5172 88.16C64.0639 87.7867 63.5439 87.5067 62.9572 87.32C62.3705 87.1333 61.7705 87.04 61.1572 87.04C60.5172 87.04 59.9039 87.1467 59.3172 87.36C58.7305 87.5467 58.2105 87.8267 57.7572 88.2C57.3305 88.5733 56.9839 89.0267 56.7172 89.56C56.4505 90.0667 56.3172 90.64 56.3172 91.28C56.3172 91.92 56.4505 92.5067 56.7172 93.04C57.0105 93.5467 57.3839 93.9867 57.8372 94.36C58.2905 94.7333 58.8105 95.0267 59.3972 95.24C59.9839 95.4267 60.5839 95.52 61.1972 95.52C61.8372 95.52 62.4505 95.4133 63.0372 95.2C63.6239 94.9867 64.1439 94.6933 64.5972 94.32C65.0505 93.9467 65.4105 93.5067 65.6772 93C65.9439 92.4667 66.0772 91.8933 66.0772 91.28ZM57.1972 79.64C57.1972 80.2 57.3172 80.6933 57.5572 81.12C57.7972 81.52 58.1039 81.8667 58.4772 82.16C58.8772 82.4267 59.3039 82.64 59.7572 82.8C60.2372 82.9333 60.7172 83 61.1972 83C61.6505 83 62.1172 82.9333 62.5972 82.8C63.0772 82.64 63.5039 82.4133 63.8772 82.12C64.2772 81.8267 64.5972 81.48 64.8372 81.08C65.0772 80.6533 65.1972 80.16 65.1972 79.6C65.1972 78.6133 64.7972 77.8267 63.9972 77.24C63.2239 76.6533 62.2772 76.36 61.1572 76.36C60.0639 76.36 59.1305 76.6667 58.3572 77.28C57.5839 77.8667 57.1972 78.6533 57.1972 79.64ZM95.8578 88.28C95.8578 90.04 95.5911 91.6667 95.0578 93.16C94.5511 94.6267 93.8311 95.9067 92.8978 97C91.9911 98.0667 90.8978 98.9067 89.6178 99.52C88.3645 100.107 87.0045 100.4 85.5378 100.4C84.0445 100.4 82.6711 100.107 81.4178 99.52C80.1645 98.9067 79.0711 98.0667 78.1378 97C77.2311 95.9067 76.5111 94.6267 75.9778 93.16C75.4711 91.6667 75.2178 90.04 75.2178 88.28C75.2178 86.52 75.4711 84.9067 75.9778 83.44C76.5111 81.9467 77.2311 80.6667 78.1378 79.6C79.0711 78.5067 80.1645 77.6533 81.4178 77.04C82.6711 76.4267 84.0445 76.12 85.5378 76.12C87.0045 76.12 88.3645 76.4267 89.6178 77.04C90.8978 77.6533 91.9911 78.5067 92.8978 79.6C93.8311 80.6667 94.5511 81.9467 95.0578 83.44C95.5911 84.9067 95.8578 86.52 95.8578 88.28ZM90.4578 88.28C90.4578 87.2133 90.3378 86.24 90.0978 85.36C89.8578 84.4533 89.5111 83.68 89.0578 83.04C88.6311 82.4 88.1111 81.9067 87.4978 81.56C86.9111 81.2133 86.2578 81.04 85.5378 81.04C84.7911 81.04 84.1111 81.2133 83.4978 81.56C82.9111 81.9067 82.3911 82.4 81.9378 83.04C81.5111 83.68 81.1778 84.4533 80.9378 85.36C80.6978 86.24 80.5778 87.2133 80.5778 88.28C80.5778 89.3467 80.6978 90.32 80.9378 91.2C81.1778 92.08 81.5111 92.84 81.9378 93.48C82.3911 94.12 82.9111 94.6133 83.4978 94.96C84.1111 95.3067 84.7911 95.48 85.5378 95.48C86.2578 95.48 86.9111 95.3067 87.4978 94.96C88.1111 94.6133 88.6311 94.12 89.0578 93.48C89.5111 92.84 89.8578 92.08 90.0978 91.2C90.3378 90.32 90.4578 89.3467 90.4578 88.28ZM124.668 71.6L104.828 100H98.9081L118.708 71.6H124.668ZM135.158 97.58V100H127.038V97.58H129.878V91.52C129.758 91.68 129.564 91.8467 129.298 92.02C129.044 92.18 128.764 92.3333 128.458 92.48C128.151 92.6267 127.831 92.7467 127.498 92.84C127.178 92.9333 126.891 92.98 126.638 92.98V90.48C126.878 90.48 127.171 90.4067 127.518 90.26C127.864 90.1 128.204 89.9133 128.538 89.7C128.871 89.4867 129.158 89.28 129.398 89.08C129.651 88.8667 129.811 88.7 129.878 88.58H132.618V97.58H135.158ZM136.401 100C136.401 99.4 136.447 98.86 136.541 98.38C136.634 97.8867 136.794 97.4333 137.021 97.02C137.261 96.6067 137.581 96.22 137.981 95.86C138.394 95.5 138.914 95.1467 139.541 94.8C140.087 94.5067 140.567 94.2533 140.981 94.04C141.407 93.8133 141.761 93.6067 142.041 93.42C142.321 93.2333 142.534 93.0467 142.681 92.86C142.827 92.66 142.901 92.4333 142.901 92.18C142.901 91.78 142.741 91.44 142.421 91.16C142.101 90.8667 141.641 90.72 141.041 90.72C140.721 90.72 140.427 90.7667 140.161 90.86C139.894 90.94 139.641 91.0533 139.401 91.2C139.174 91.3467 138.961 91.5133 138.761 91.7C138.574 91.8733 138.401 92.06 138.241 92.26L136.521 90.28C136.694 90.0933 136.941 89.8933 137.261 89.68C137.581 89.4533 137.954 89.2467 138.381 89.06C138.821 88.86 139.301 88.7 139.821 88.58C140.354 88.4467 140.921 88.38 141.521 88.38C142.201 88.38 142.807 88.4667 143.341 88.64C143.874 88.8 144.321 89.0333 144.681 89.34C145.054 89.6333 145.334 89.9933 145.521 90.42C145.721 90.8333 145.821 91.2867 145.821 91.78C145.821 92.2467 145.734 92.66 145.561 93.02C145.387 93.38 145.167 93.7 144.901 93.98C144.634 94.26 144.341 94.5067 144.021 94.72C143.714 94.92 143.414 95.1 143.121 95.26C142.881 95.3933 142.607 95.5467 142.301 95.72C141.994 95.8933 141.687 96.0867 141.381 96.3C141.087 96.5 140.814 96.7133 140.561 96.94C140.307 97.1533 140.114 97.3667 139.981 97.58H146.041V100H136.401ZM169.234 100H166.554V94.12C166.554 93.28 166.408 92.6667 166.114 92.28C165.834 91.8933 165.441 91.7 164.934 91.7C164.401 91.7 163.901 91.9067 163.434 92.32C162.968 92.72 162.634 93.2467 162.434 93.9V100H159.754V94.12C159.754 93.28 159.608 92.6667 159.314 92.28C159.034 91.8933 158.641 91.7 158.134 91.7C157.614 91.7 157.114 91.9 156.634 92.3C156.168 92.7 155.834 93.2267 155.634 93.88V100H152.954V89.52H155.374V91.46C155.761 90.78 156.288 90.26 156.954 89.9C157.634 89.5267 158.408 89.34 159.274 89.34C160.154 89.34 160.834 89.5533 161.314 89.98C161.794 90.4067 162.101 90.9333 162.234 91.56C162.661 90.84 163.201 90.2933 163.854 89.92C164.508 89.5333 165.254 89.34 166.094 89.34C166.734 89.34 167.261 89.46 167.674 89.7C168.088 89.94 168.408 90.2533 168.634 90.64C168.861 91.0267 169.014 91.4667 169.094 91.96C169.188 92.4533 169.234 92.9533 169.234 93.46V100ZM177.75 99.46C177.39 99.62 176.95 99.78 176.43 99.94C175.91 100.1 175.363 100.18 174.79 100.18C174.417 100.18 174.063 100.133 173.73 100.04C173.41 99.9467 173.123 99.8 172.87 99.6C172.63 99.3867 172.437 99.12 172.29 98.8C172.143 98.4667 172.07 98.0667 172.07 97.6V91.58H170.69V89.52H172.07V86.12H174.75V89.52H176.95V91.58H174.75V96.7C174.75 97.0733 174.843 97.34 175.03 97.5C175.23 97.6467 175.47 97.72 175.75 97.72C176.03 97.72 176.303 97.6733 176.57 97.58C176.837 97.4867 177.05 97.4067 177.21 97.34L177.75 99.46ZM188.886 100H186.206V94.12C186.206 93.2933 186.052 92.6867 185.746 92.3C185.439 91.9 185.006 91.7 184.446 91.7C184.206 91.7 183.952 91.7533 183.686 91.86C183.419 91.9667 183.166 92.12 182.926 92.32C182.686 92.5067 182.466 92.7333 182.266 93C182.066 93.2667 181.919 93.56 181.826 93.88V100H179.146V85.4H181.826V91.46C182.212 90.78 182.732 90.26 183.386 89.9C184.052 89.5267 184.786 89.34 185.586 89.34C186.266 89.34 186.819 89.46 187.246 89.7C187.672 89.9267 188.006 90.2333 188.246 90.62C188.486 91.0067 188.652 91.4467 188.746 91.94C188.839 92.4333 188.886 92.94 188.886 93.46V100Z" fill="black"/>
<path d="M74.528 17.96L79.136 30.848L83.696 17.96H87.176L80.528 35H77.744L71.048 17.96H74.528ZM88.9948 35V17.96H92.3068V35H88.9948ZM95.8619 35V17.96H103.086C103.87 17.96 104.59 18.128 105.246 18.464C105.918 18.784 106.494 19.216 106.974 19.76C107.454 20.288 107.83 20.896 108.102 21.584C108.374 22.256 108.51 22.936 108.51 23.624C108.51 24.344 108.382 25.048 108.126 25.736C107.87 26.408 107.51 27.008 107.046 27.536C106.582 28.064 106.022 28.488 105.366 28.808C104.71 29.128 103.99 29.288 103.206 29.288H99.1739V35H95.8619ZM99.1739 26.384H103.014C103.622 26.384 104.126 26.136 104.526 25.64C104.942 25.144 105.15 24.472 105.15 23.624C105.15 23.192 105.086 22.808 104.958 22.472C104.83 22.12 104.662 21.824 104.454 21.584C104.246 21.344 103.998 21.168 103.71 21.056C103.438 20.928 103.158 20.864 102.87 20.864H99.1739V26.384Z" fill="black"/>
<path d="M41.036 157.902C40.892 157.734 40.7 157.572 40.46 157.416C40.22 157.26 39.95 157.122 39.65 157.002C39.35 156.87 39.02 156.768 38.66 156.696C38.312 156.612 37.946 156.57 37.562 156.57C36.566 156.57 35.834 156.756 35.366 157.128C34.91 157.5 34.682 158.01 34.682 158.658C34.682 159.006 34.748 159.294 34.88 159.522C35.012 159.75 35.216 159.948 35.492 160.116C35.78 160.272 36.134 160.41 36.554 160.53C36.974 160.65 37.472 160.776 38.048 160.908C38.708 161.052 39.302 161.22 39.83 161.412C40.37 161.592 40.826 161.82 41.198 162.096C41.582 162.372 41.87 162.708 42.062 163.104C42.266 163.5 42.368 163.986 42.368 164.562C42.368 165.174 42.248 165.708 42.008 166.164C41.768 166.608 41.438 166.98 41.018 167.28C40.61 167.568 40.124 167.784 39.56 167.928C38.996 168.06 38.384 168.126 37.724 168.126C36.74 168.126 35.804 167.976 34.916 167.676C34.04 167.364 33.242 166.914 32.522 166.326L33.296 164.958C33.488 165.162 33.734 165.366 34.034 165.57C34.346 165.774 34.694 165.96 35.078 166.128C35.474 166.284 35.894 166.416 36.338 166.524C36.794 166.62 37.268 166.668 37.76 166.668C38.672 166.668 39.38 166.506 39.884 166.182C40.388 165.858 40.64 165.372 40.64 164.724C40.64 164.364 40.556 164.064 40.388 163.824C40.232 163.572 39.998 163.356 39.686 163.176C39.374 162.996 38.984 162.84 38.516 162.708C38.06 162.564 37.538 162.42 36.95 162.276C36.302 162.12 35.732 161.952 35.24 161.772C34.748 161.592 34.334 161.376 33.998 161.124C33.674 160.872 33.428 160.566 33.26 160.206C33.092 159.846 33.008 159.414 33.008 158.91C33.008 158.298 33.122 157.758 33.35 157.29C33.578 156.822 33.896 156.426 34.304 156.102C34.712 155.778 35.198 155.538 35.762 155.382C36.326 155.214 36.938 155.13 37.598 155.13C38.462 155.13 39.242 155.262 39.938 155.526C40.634 155.79 41.252 156.144 41.792 156.588L41.036 157.902ZM47.1448 168.18C46.1608 168.18 45.4168 167.85 44.9128 167.19C44.4088 166.53 44.1567 165.546 44.1567 164.238V158.604H45.7408V163.932C45.7408 165.852 46.4068 166.812 47.7388 166.812C48.3868 166.812 48.9928 166.608 49.5568 166.2C50.1328 165.78 50.5588 165.21 50.8348 164.49V158.604H52.4188V166.056C52.4188 166.428 52.5868 166.62 52.9228 166.632V168C52.7428 168.024 52.5988 168.036 52.4908 168.036C52.3948 168.048 52.2988 168.054 52.2028 168.054C51.8908 168.054 51.6268 167.964 51.4108 167.784C51.2068 167.592 51.0988 167.358 51.0868 167.082L51.0508 165.984C50.6308 166.692 50.0788 167.238 49.3948 167.622C48.7108 167.994 47.9608 168.18 47.1448 168.18ZM59.8813 168.18C59.1493 168.18 58.4833 168 57.8833 167.64C57.2833 167.28 56.8093 166.812 56.4613 166.236V168H55.0573V154.86H56.6413V160.476C57.0373 159.864 57.5233 159.372 58.0993 159C58.6753 158.628 59.3473 158.442 60.1153 158.442C60.7633 158.442 61.3453 158.58 61.8613 158.856C62.3773 159.132 62.8153 159.498 63.1753 159.954C63.5473 160.398 63.8293 160.92 64.0213 161.52C64.2253 162.108 64.3273 162.714 64.3273 163.338C64.3273 163.998 64.2133 164.622 63.9853 165.21C63.7573 165.798 63.4453 166.314 63.0493 166.758C62.6533 167.19 62.1793 167.538 61.6273 167.802C61.0873 168.054 60.5053 168.18 59.8813 168.18ZM59.4853 166.812C59.9533 166.812 60.3853 166.716 60.7813 166.524C61.1773 166.332 61.5193 166.074 61.8073 165.75C62.0953 165.426 62.3173 165.06 62.4733 164.652C62.6293 164.232 62.7073 163.794 62.7073 163.338C62.7073 162.882 62.6293 162.444 62.4733 162.024C62.3293 161.592 62.1193 161.214 61.8433 160.89C61.5793 160.566 61.2553 160.308 60.8713 160.116C60.4993 159.912 60.0853 159.81 59.6293 159.81C59.2933 159.81 58.9753 159.87 58.6753 159.99C58.3753 160.11 58.0933 160.272 57.8293 160.476C57.5773 160.668 57.3493 160.896 57.1453 161.16C56.9533 161.424 56.7853 161.706 56.6413 162.006V164.724C56.7013 165.024 56.8273 165.3 57.0193 165.552C57.2233 165.804 57.4573 166.026 57.7213 166.218C57.9973 166.398 58.2853 166.542 58.5853 166.65C58.8973 166.758 59.1973 166.812 59.4853 166.812ZM69.5661 168.18C68.8101 168.18 68.0661 168.066 67.3341 167.838C66.6021 167.598 65.9721 167.256 65.4441 166.812L66.1281 165.75C66.6801 166.17 67.2321 166.488 67.7841 166.704C68.3361 166.908 68.9181 167.01 69.5301 167.01C70.2141 167.01 70.7541 166.878 71.1501 166.614C71.5581 166.338 71.7621 165.954 71.7621 165.462C71.7621 165.234 71.7081 165.042 71.6001 164.886C71.4921 164.718 71.3301 164.574 71.1141 164.454C70.8981 164.334 70.6221 164.226 70.2861 164.13C69.9501 164.034 69.5601 163.932 69.1161 163.824C68.5521 163.68 68.0661 163.542 67.6581 163.41C67.2501 163.278 66.9141 163.122 66.6501 162.942C66.3861 162.762 66.1941 162.546 66.0741 162.294C65.9541 162.042 65.8941 161.73 65.8941 161.358C65.8941 160.89 65.9841 160.476 66.1641 160.116C66.3561 159.744 66.6141 159.438 66.9381 159.198C67.2621 158.946 67.6401 158.76 68.0721 158.64C68.5161 158.508 68.9901 158.442 69.4941 158.442C70.2021 158.442 70.8621 158.556 71.4741 158.784C72.0861 159.012 72.6021 159.312 73.0221 159.684L72.3021 160.638C71.9061 160.29 71.4621 160.032 70.9701 159.864C70.4781 159.684 69.9741 159.594 69.4581 159.594C68.8821 159.594 68.3901 159.72 67.9821 159.972C67.5861 160.212 67.3881 160.602 67.3881 161.142C67.3881 161.358 67.4241 161.538 67.4961 161.682C67.5801 161.826 67.7121 161.952 67.8921 162.06C68.0721 162.168 68.3001 162.264 68.5761 162.348C68.8641 162.432 69.2061 162.522 69.6021 162.618C70.2261 162.762 70.7661 162.912 71.2221 163.068C71.6901 163.212 72.0741 163.386 72.3741 163.59C72.6861 163.794 72.9141 164.034 73.0581 164.31C73.2141 164.586 73.2921 164.922 73.2921 165.318C73.2921 166.194 72.9561 166.89 72.2841 167.406C71.6121 167.922 70.7061 168.18 69.5661 168.18ZM74.5367 163.284C74.5367 162.624 74.6507 162 74.8787 161.412C75.1067 160.824 75.4307 160.314 75.8507 159.882C76.2707 159.438 76.7687 159.09 77.3447 158.838C77.9327 158.574 78.5867 158.442 79.3067 158.442C80.2427 158.442 81.0467 158.652 81.7187 159.072C82.4027 159.48 82.9187 160.032 83.2667 160.728L81.7187 161.214C81.4787 160.77 81.1427 160.428 80.7107 160.188C80.2787 159.936 79.7987 159.81 79.2707 159.81C78.8387 159.81 78.4307 159.9 78.0467 160.08C77.6627 160.248 77.3327 160.488 77.0567 160.8C76.7807 161.112 76.5587 161.478 76.3907 161.898C76.2347 162.318 76.1567 162.78 76.1567 163.284C76.1567 163.776 76.2407 164.238 76.4087 164.67C76.5767 165.102 76.7987 165.48 77.0747 165.804C77.3627 166.116 77.6927 166.362 78.0647 166.542C78.4487 166.722 78.8567 166.812 79.2887 166.812C79.5647 166.812 79.8347 166.776 80.0987 166.704C80.3747 166.62 80.6207 166.512 80.8367 166.38C81.0647 166.248 81.2627 166.098 81.4307 165.93C81.5987 165.75 81.7187 165.558 81.7907 165.354L83.3387 165.822C83.1947 166.17 82.9907 166.488 82.7267 166.776C82.4747 167.064 82.1747 167.31 81.8267 167.514C81.4787 167.718 81.0887 167.88 80.6567 168C80.2367 168.12 79.7927 168.18 79.3247 168.18C78.6167 168.18 77.9687 168.048 77.3807 167.784C76.7927 167.52 76.2887 167.166 75.8687 166.722C75.4487 166.278 75.1187 165.762 74.8787 165.174C74.6507 164.574 74.5367 163.944 74.5367 163.284ZM90.1015 159.99C89.3095 160.014 88.6075 160.218 87.9955 160.602C87.3955 160.986 86.9695 161.52 86.7175 162.204V168H85.1335V158.604H86.6095V160.782C86.9335 160.134 87.3595 159.612 87.8875 159.216C88.4155 158.808 88.9795 158.58 89.5795 158.532C89.6995 158.532 89.8015 158.532 89.8855 158.532C89.9695 158.532 90.0415 158.538 90.1015 158.55V159.99ZM91.6725 168V158.604H93.2565V168H91.6725ZM91.6725 156.84V154.86H93.2565V156.84H91.6725ZM100.645 168.18C99.913 168.18 99.247 168 98.647 167.64C98.047 167.28 97.573 166.812 97.225 166.236V168H95.821V154.86H97.405V160.476C97.801 159.864 98.287 159.372 98.863 159C99.439 158.628 100.111 158.442 100.879 158.442C101.527 158.442 102.109 158.58 102.625 158.856C103.141 159.132 103.579 159.498 103.939 159.954C104.311 160.398 104.593 160.92 104.785 161.52C104.989 162.108 105.091 162.714 105.091 163.338C105.091 163.998 104.977 164.622 104.749 165.21C104.521 165.798 104.209 166.314 103.813 166.758C103.417 167.19 102.943 167.538 102.391 167.802C101.851 168.054 101.269 168.18 100.645 168.18ZM100.249 166.812C100.717 166.812 101.149 166.716 101.545 166.524C101.941 166.332 102.283 166.074 102.571 165.75C102.859 165.426 103.081 165.06 103.237 164.652C103.393 164.232 103.471 163.794 103.471 163.338C103.471 162.882 103.393 162.444 103.237 162.024C103.093 161.592 102.883 161.214 102.607 160.89C102.343 160.566 102.019 160.308 101.635 160.116C101.263 159.912 100.849 159.81 100.393 159.81C100.057 159.81 99.739 159.87 99.439 159.99C99.139 160.11 98.857 160.272 98.593 160.476C98.341 160.668 98.113 160.896 97.909 161.16C97.717 161.424 97.549 161.706 97.405 162.006V164.724C97.465 165.024 97.591 165.3 97.783 165.552C97.987 165.804 98.221 166.026 98.485 166.218C98.761 166.398 99.049 166.542 99.349 166.65C99.661 166.758 99.961 166.812 100.249 166.812ZM111.194 168.18C110.486 168.18 109.838 168.054 109.25 167.802C108.662 167.538 108.158 167.184 107.738 166.74C107.318 166.296 106.988 165.78 106.748 165.192C106.52 164.592 106.406 163.962 106.406 163.302C106.406 162.642 106.52 162.018 106.748 161.43C106.988 160.842 107.318 160.326 107.738 159.882C108.17 159.438 108.68 159.09 109.268 158.838C109.856 158.574 110.504 158.442 111.212 158.442C111.92 158.442 112.562 158.574 113.138 158.838C113.726 159.102 114.224 159.456 114.632 159.9C115.04 160.332 115.352 160.842 115.568 161.43C115.796 162.006 115.91 162.606 115.91 163.23C115.91 163.362 115.904 163.482 115.892 163.59C115.892 163.698 115.886 163.782 115.874 163.842H108.08C108.116 164.31 108.224 164.736 108.404 165.12C108.584 165.504 108.818 165.834 109.106 166.11C109.394 166.386 109.718 166.602 110.078 166.758C110.45 166.914 110.84 166.992 111.248 166.992C111.536 166.992 111.818 166.956 112.094 166.884C112.37 166.8 112.628 166.692 112.868 166.56C113.108 166.428 113.318 166.266 113.498 166.074C113.69 165.882 113.834 165.666 113.93 165.426L115.298 165.804C115.142 166.152 114.926 166.47 114.65 166.758C114.386 167.046 114.074 167.298 113.714 167.514C113.366 167.718 112.976 167.88 112.544 168C112.112 168.12 111.662 168.18 111.194 168.18ZM114.416 162.672C114.38 162.228 114.266 161.82 114.074 161.448C113.894 161.064 113.66 160.74 113.372 160.476C113.096 160.212 112.772 160.008 112.4 159.864C112.028 159.708 111.632 159.63 111.212 159.63C110.792 159.63 110.396 159.708 110.024 159.864C109.652 160.008 109.322 160.218 109.034 160.494C108.758 160.758 108.53 161.076 108.35 161.448C108.182 161.82 108.08 162.228 108.044 162.672H114.416ZM124.095 158.244V168H122.475V155.22H123.735L131.655 165.174V155.238H133.275V168H131.907L124.095 158.244ZM140.021 168.18C139.313 168.18 138.665 168.048 138.077 167.784C137.501 167.52 137.003 167.166 136.583 166.722C136.175 166.278 135.857 165.762 135.629 165.174C135.401 164.586 135.287 163.968 135.287 163.32C135.287 162.66 135.401 162.036 135.629 161.448C135.869 160.86 136.193 160.344 136.601 159.9C137.021 159.456 137.519 159.102 138.095 158.838C138.683 158.574 139.325 158.442 140.021 158.442C140.717 158.442 141.359 158.574 141.947 158.838C142.535 159.102 143.033 159.456 143.441 159.9C143.861 160.344 144.185 160.86 144.413 161.448C144.653 162.036 144.773 162.66 144.773 163.32C144.773 163.968 144.659 164.586 144.431 165.174C144.203 165.762 143.879 166.278 143.459 166.722C143.039 167.166 142.535 167.52 141.947 167.784C141.371 168.048 140.729 168.18 140.021 168.18ZM136.907 163.338C136.907 163.83 136.985 164.286 137.141 164.706C137.309 165.126 137.531 165.492 137.807 165.804C138.095 166.116 138.425 166.362 138.797 166.542C139.181 166.722 139.589 166.812 140.021 166.812C140.453 166.812 140.855 166.722 141.227 166.542C141.611 166.362 141.947 166.116 142.235 165.804C142.523 165.48 142.745 165.108 142.901 164.688C143.069 164.256 143.153 163.794 143.153 163.302C143.153 162.822 143.069 162.372 142.901 161.952C142.745 161.52 142.523 161.148 142.235 160.836C141.947 160.512 141.611 160.26 141.227 160.08C140.855 159.9 140.453 159.81 140.021 159.81C139.589 159.81 139.181 159.906 138.797 160.098C138.425 160.278 138.095 160.53 137.807 160.854C137.531 161.166 137.309 161.538 137.141 161.97C136.985 162.39 136.907 162.846 136.907 163.338ZM158.148 158.604H159.678L155.682 168H154.368L152.478 163.41L150.606 168H149.292L145.296 158.604H146.808L150.048 166.434L151.632 162.528L150.012 158.622H151.326L152.478 161.628L153.63 158.622H154.944L153.342 162.528L154.926 166.434L158.148 158.604Z" fill="white"/>
</g>
</svg>
