<svg width="191" height="179" viewBox="0 0 191 179" fill="none" xmlns="http://www.w3.org/2000/svg">
<rect width="191" height="179" fill="white"/>
<rect y="145" width="191" height="34" fill="#3F1A8E"/>
<mask id="mask0" mask-type="alpha" maskUnits="userSpaceOnUse" x="0" y="0" width="191" height="179">
<rect width="191" height="179" fill="#C4C4C4"/>
</mask>
<g mask="url(#mask0)">
<path d="M-23.1685 -18.3745L41.0121 -10.4581L-17.5859 46.0511L-23.1685 -18.3745Z" fill="#3F1A8E"/>
<rect x="69" y="54" width="54" height="4" rx="2" fill="#082D72"/>
<path d="M28.432 81.848C28.24 81.624 27.872 81.352 27.328 81.032C26.816 80.712 26.192 80.392 25.456 80.072C24.752 79.72 23.968 79.416 23.104 79.16C22.24 78.872 21.344 78.68 20.416 78.584V86.888L21.616 87.176C23.28 87.624 24.784 88.104 26.128 88.616C27.504 89.128 28.656 89.768 29.584 90.536C30.544 91.304 31.28 92.232 31.792 93.32C32.304 94.376 32.56 95.688 32.56 97.256C32.56 99.016 32.24 100.52 31.6 101.768C30.992 103.016 30.144 104.04 29.056 104.84C28 105.64 26.752 106.248 25.312 106.664C23.904 107.048 22.416 107.272 20.848 107.336V112.616H17.968V107.288C15.728 107.128 13.536 106.68 11.392 105.944C9.28 105.176 7.36 104.184 5.632 102.968L8.56 97.256C8.816 97.512 9.248 97.848 9.856 98.264C10.496 98.68 11.248 99.096 12.112 99.512C13.008 99.896 13.984 100.264 15.04 100.616C16.128 100.968 17.248 101.208 18.4 101.336V93.08C18.112 93.016 17.824 92.952 17.536 92.888C17.248 92.792 16.96 92.696 16.672 92.6C15.04 92.152 13.616 91.672 12.4 91.16C11.216 90.616 10.224 89.992 9.424 89.288C8.624 88.552 8.016 87.72 7.6 86.792C7.216 85.832 7.024 84.696 7.024 83.384C7.024 81.784 7.296 80.36 7.84 79.112C8.416 77.832 9.184 76.744 10.144 75.848C11.136 74.952 12.304 74.248 13.648 73.736C14.992 73.224 16.432 72.904 17.968 72.776V67.88H20.848V72.728C22.96 72.888 24.896 73.32 26.656 74.024C28.448 74.728 30.016 75.544 31.36 76.472L28.432 81.848ZM25.504 97.928C25.504 96.84 25.056 95.992 24.16 95.384C23.264 94.776 22.016 94.216 20.416 93.704V101.432C23.808 101.336 25.504 100.168 25.504 97.928ZM13.84 82.328C13.84 83.416 14.208 84.248 14.944 84.824C15.712 85.368 16.864 85.864 18.4 86.312V78.536C15.36 78.728 13.84 79.992 13.84 82.328ZM61.6379 95.624C61.6379 97.288 61.3179 98.84 60.6779 100.28C60.0379 101.72 59.1579 102.984 58.0379 104.072C56.9179 105.128 55.5899 105.96 54.0539 106.568C52.5499 107.176 50.9179 107.48 49.1579 107.48C47.2379 107.48 45.4939 107.128 43.9259 106.424C42.3899 105.72 41.0779 104.696 39.9899 103.352C38.9019 102.008 38.0699 100.376 37.4939 98.456C36.9179 96.504 36.6299 94.296 36.6299 91.832C36.6299 88.728 36.9339 85.992 37.5419 83.624C38.1499 81.224 39.0299 79.224 40.1819 77.624C41.3339 75.992 42.7259 74.76 44.3579 73.928C45.9899 73.096 47.8139 72.68 49.8299 72.68C51.9739 72.68 53.9419 73.144 55.7339 74.072C57.5579 75 59.0939 76.328 60.3419 78.056L56.6459 82.088C55.8779 80.872 54.8859 79.928 53.6699 79.256C52.4539 78.584 51.1419 78.248 49.7339 78.248C47.5899 78.248 45.8779 79.096 44.5979 80.792C43.3179 82.488 42.6459 84.888 42.5819 87.992C43.2539 86.84 44.1979 85.928 45.4139 85.256C46.6619 84.584 48.1019 84.248 49.7339 84.248C51.3979 84.248 52.9499 84.536 54.3899 85.112C55.8619 85.688 57.1259 86.488 58.1819 87.512C59.2699 88.536 60.1179 89.752 60.7259 91.16C61.3339 92.536 61.6379 94.024 61.6379 95.624ZM49.2059 102.056C50.0379 102.056 50.8379 101.896 51.6059 101.576C52.3739 101.224 53.0459 100.76 53.6219 100.184C54.1979 99.576 54.6459 98.888 54.9659 98.12C55.3179 97.32 55.4939 96.488 55.4939 95.624C55.4939 94.76 55.3179 93.96 54.9659 93.224C54.6459 92.456 54.1979 91.784 53.6219 91.208C53.0459 90.632 52.3739 90.184 51.6059 89.864C50.8699 89.544 50.0699 89.384 49.2059 89.384C48.3419 89.384 47.5259 89.544 46.7579 89.864C45.9899 90.184 45.3179 90.632 44.7419 91.208C44.1659 91.784 43.7179 92.456 43.3979 93.224C43.0779 93.96 42.9179 94.76 42.9179 95.624C42.9179 96.488 43.0779 97.32 43.3979 98.12C43.7499 98.888 44.2139 99.56 44.7899 100.136C45.3659 100.712 46.0219 101.176 46.7579 101.528C47.5259 101.88 48.3419 102.056 49.2059 102.056ZM77.4981 91.688C79.0981 91.688 80.5861 91.96 81.9621 92.504C83.3381 93.016 84.5221 93.752 85.5141 94.712C86.5061 95.672 87.2741 96.824 87.8181 98.168C88.3941 99.512 88.6821 101 88.6821 102.632C88.6821 104.36 88.3621 105.928 87.7221 107.336C87.1141 108.744 86.2501 109.944 85.1301 110.936C84.0101 111.96 82.6821 112.744 81.1461 113.288C79.6101 113.864 77.9461 114.152 76.1541 114.152C73.6581 114.152 71.4181 113.624 69.4341 112.568C67.4821 111.512 65.9941 110.072 64.9701 108.248L68.6661 104.408C69.5621 105.656 70.6821 106.648 72.0261 107.384C73.3701 108.12 74.7621 108.488 76.2021 108.488C77.9301 108.488 79.3381 107.976 80.4261 106.952C81.5461 105.896 82.1061 104.504 82.1061 102.776C82.1061 101.112 81.5781 99.768 80.5221 98.744C79.4981 97.72 78.1861 97.208 76.5861 97.208C75.5301 97.208 74.5381 97.448 73.6101 97.928C72.7141 98.408 71.9941 99.064 71.4501 99.896H65.8341C65.8341 99.8 65.8981 99.448 66.0261 98.84C66.1541 98.2 66.3141 97.4 66.5061 96.44C66.6981 95.448 66.9061 94.36 67.1301 93.176C67.3541 91.96 67.5941 90.728 67.8501 89.48C68.4261 86.536 69.0661 83.24 69.7701 79.592H86.5701V85.448H74.4261L73.0341 93.08C73.4181 92.664 73.9781 92.328 74.7141 92.072C75.4821 91.816 76.4101 91.688 77.4981 91.688ZM122.364 72.92L98.5563 107H91.4523L115.212 72.92H122.364ZM131.292 102.28C132.119 102.427 132.785 102.827 133.292 103.48C133.812 104.12 134.072 104.907 134.072 105.84C134.072 106.467 133.945 107.033 133.692 107.54C133.452 108.047 133.105 108.473 132.652 108.82C132.212 109.18 131.672 109.453 131.032 109.64C130.392 109.84 129.672 109.94 128.872 109.94C127.859 109.94 126.959 109.773 126.172 109.44C125.399 109.12 124.752 108.647 124.232 108.02L125.752 106.12C126.099 106.56 126.512 106.9 126.992 107.14C127.472 107.38 128.072 107.5 128.792 107.5C129.605 107.5 130.225 107.34 130.652 107.02C131.079 106.7 131.292 106.207 131.292 105.54C131.292 104.847 131.045 104.313 130.552 103.94C130.059 103.567 129.312 103.38 128.312 103.38H127.752V101.38H128.372C129.199 101.38 129.839 101.2 130.292 100.84C130.745 100.467 130.972 99.9933 130.972 99.42C130.972 98.8733 130.785 98.4667 130.412 98.2C130.039 97.9333 129.552 97.8 128.952 97.8C128.339 97.8 127.785 97.94 127.292 98.22C126.812 98.5 126.419 98.8933 126.112 99.4L124.432 97.52C124.632 97.2133 124.899 96.94 125.232 96.7C125.565 96.4467 125.939 96.2333 126.352 96.06C126.779 95.8733 127.239 95.7333 127.732 95.64C128.225 95.5333 128.732 95.48 129.252 95.48C129.932 95.48 130.552 95.5667 131.112 95.74C131.672 95.9133 132.152 96.1533 132.552 96.46C132.965 96.7667 133.279 97.14 133.492 97.58C133.719 98.0067 133.832 98.4867 133.832 99.02C133.832 99.42 133.772 99.8 133.652 100.16C133.532 100.52 133.359 100.847 133.132 101.14C132.905 101.433 132.632 101.68 132.312 101.88C132.005 102.08 131.665 102.213 131.292 102.28ZM157.129 107H154.449V101.12C154.449 100.28 154.302 99.6667 154.009 99.28C153.729 98.8933 153.336 98.7 152.829 98.7C152.296 98.7 151.796 98.9067 151.329 99.32C150.862 99.72 150.529 100.247 150.329 100.9V107H147.649V101.12C147.649 100.28 147.502 99.6667 147.209 99.28C146.929 98.8933 146.536 98.7 146.029 98.7C145.509 98.7 145.009 98.9 144.529 99.3C144.062 99.7 143.729 100.227 143.529 100.88V107H140.849V96.52H143.269V98.46C143.656 97.78 144.182 97.26 144.849 96.9C145.529 96.5267 146.302 96.34 147.169 96.34C148.049 96.34 148.729 96.5533 149.209 96.98C149.689 97.4067 149.996 97.9333 150.129 98.56C150.556 97.84 151.096 97.2933 151.749 96.92C152.402 96.5333 153.149 96.34 153.989 96.34C154.629 96.34 155.156 96.46 155.569 96.7C155.982 96.94 156.302 97.2533 156.529 97.64C156.756 98.0267 156.909 98.4667 156.989 98.96C157.082 99.4533 157.129 99.9533 157.129 100.46V107ZM165.645 106.46C165.285 106.62 164.845 106.78 164.325 106.94C163.805 107.1 163.258 107.18 162.685 107.18C162.311 107.18 161.958 107.133 161.625 107.04C161.305 106.947 161.018 106.8 160.765 106.6C160.525 106.387 160.331 106.12 160.185 105.8C160.038 105.467 159.965 105.067 159.965 104.6V98.58H158.585V96.52H159.965V93.12H162.645V96.52H164.845V98.58H162.645V103.7C162.645 104.073 162.738 104.34 162.925 104.5C163.125 104.647 163.365 104.72 163.645 104.72C163.925 104.72 164.198 104.673 164.465 104.58C164.731 104.487 164.945 104.407 165.105 104.34L165.645 106.46ZM176.78 107H174.1V101.12C174.1 100.293 173.947 99.6867 173.64 99.3C173.334 98.9 172.9 98.7 172.34 98.7C172.1 98.7 171.847 98.7533 171.58 98.86C171.314 98.9667 171.06 99.12 170.82 99.32C170.58 99.5067 170.36 99.7333 170.16 100C169.96 100.267 169.814 100.56 169.72 100.88V107H167.04V92.4H169.72V98.46C170.107 97.78 170.627 97.26 171.28 96.9C171.947 96.5267 172.68 96.34 173.48 96.34C174.16 96.34 174.714 96.46 175.14 96.7C175.567 96.9267 175.9 97.2333 176.14 97.62C176.38 98.0067 176.547 98.4467 176.64 98.94C176.734 99.4333 176.78 99.94 176.78 100.46V107Z" fill="black"/>
<path d="M72.776 44V26.96H80C80.784 26.96 81.504 27.128 82.16 27.464C82.832 27.784 83.408 28.216 83.888 28.76C84.368 29.288 84.744 29.896 85.016 30.584C85.288 31.256 85.424 31.936 85.424 32.624C85.424 33.344 85.296 34.048 85.04 34.736C84.784 35.408 84.424 36.008 83.96 36.536C83.496 37.064 82.936 37.488 82.28 37.808C81.624 38.128 80.904 38.288 80.12 38.288H76.088V44H72.776ZM76.088 35.384H79.928C80.536 35.384 81.04 35.136 81.44 34.64C81.856 34.144 82.064 33.472 82.064 32.624C82.064 32.192 82 31.808 81.872 31.472C81.744 31.12 81.576 30.824 81.368 30.584C81.16 30.344 80.912 30.168 80.624 30.056C80.352 29.928 80.072 29.864 79.784 29.864H76.088V35.384ZM87.3931 26.48H90.6091V39.968C90.6091 40.432 90.7211 40.792 90.9451 41.048C91.1691 41.304 91.4891 41.432 91.9051 41.432C92.0971 41.432 92.3051 41.4 92.5291 41.336C92.7691 41.272 92.9931 41.192 93.2011 41.096L93.6331 43.544C93.2011 43.752 92.6971 43.912 92.1211 44.024C91.5451 44.136 91.0251 44.192 90.5611 44.192C89.5531 44.192 88.7691 43.928 88.2091 43.4C87.6651 42.856 87.3931 42.088 87.3931 41.096V26.48ZM98.8743 44.24C97.5783 44.24 96.5943 43.824 95.9223 42.992C95.2503 42.16 94.9143 40.928 94.9143 39.296V31.424H98.1303V38.6C98.1303 40.536 98.8263 41.504 100.218 41.504C100.842 41.504 101.442 41.32 102.018 40.952C102.61 40.568 103.09 39.992 103.458 39.224V31.424H106.674V40.304C106.674 40.64 106.73 40.88 106.842 41.024C106.97 41.168 107.17 41.248 107.442 41.264V44C107.122 44.064 106.85 44.104 106.626 44.12C106.418 44.136 106.226 44.144 106.05 44.144C105.474 44.144 105.002 44.016 104.634 43.76C104.282 43.488 104.074 43.12 104.01 42.656L103.938 41.648C103.378 42.512 102.658 43.16 101.778 43.592C100.898 44.024 99.9303 44.24 98.8743 44.24ZM114.622 44.24C113.566 44.24 112.534 44.072 111.526 43.736C110.518 43.4 109.654 42.92 108.934 42.296L110.134 40.28C110.902 40.824 111.646 41.24 112.366 41.528C113.102 41.8 113.83 41.936 114.55 41.936C115.19 41.936 115.694 41.816 116.062 41.576C116.43 41.336 116.614 40.992 116.614 40.544C116.614 40.096 116.398 39.768 115.966 39.56C115.534 39.352 114.83 39.112 113.854 38.84C113.038 38.616 112.342 38.4 111.766 38.192C111.19 37.984 110.726 37.752 110.374 37.496C110.022 37.224 109.766 36.92 109.606 36.584C109.446 36.232 109.366 35.816 109.366 35.336C109.366 34.696 109.486 34.12 109.726 33.608C109.982 33.096 110.334 32.664 110.782 32.312C111.23 31.944 111.75 31.664 112.342 31.472C112.95 31.28 113.606 31.184 114.31 31.184C115.254 31.184 116.134 31.32 116.95 31.592C117.782 31.864 118.542 32.304 119.23 32.912L117.934 34.856C117.294 34.376 116.67 34.024 116.062 33.8C115.47 33.576 114.878 33.464 114.286 33.464C113.742 33.464 113.286 33.576 112.918 33.8C112.55 34.024 112.366 34.384 112.366 34.88C112.366 35.104 112.406 35.288 112.486 35.432C112.582 35.576 112.726 35.704 112.918 35.816C113.11 35.928 113.358 36.04 113.662 36.152C113.982 36.248 114.374 36.352 114.838 36.464C115.702 36.688 116.438 36.912 117.046 37.136C117.67 37.36 118.174 37.616 118.558 37.904C118.958 38.192 119.246 38.528 119.422 38.912C119.614 39.28 119.71 39.728 119.71 40.256C119.71 41.488 119.254 42.464 118.342 43.184C117.43 43.888 116.19 44.24 114.622 44.24Z" fill="black"/>
<path d="M41.036 157.902C40.892 157.734 40.7 157.572 40.46 157.416C40.22 157.26 39.95 157.122 39.65 157.002C39.35 156.87 39.02 156.768 38.66 156.696C38.312 156.612 37.946 156.57 37.562 156.57C36.566 156.57 35.834 156.756 35.366 157.128C34.91 157.5 34.682 158.01 34.682 158.658C34.682 159.006 34.748 159.294 34.88 159.522C35.012 159.75 35.216 159.948 35.492 160.116C35.78 160.272 36.134 160.41 36.554 160.53C36.974 160.65 37.472 160.776 38.048 160.908C38.708 161.052 39.302 161.22 39.83 161.412C40.37 161.592 40.826 161.82 41.198 162.096C41.582 162.372 41.87 162.708 42.062 163.104C42.266 163.5 42.368 163.986 42.368 164.562C42.368 165.174 42.248 165.708 42.008 166.164C41.768 166.608 41.438 166.98 41.018 167.28C40.61 167.568 40.124 167.784 39.56 167.928C38.996 168.06 38.384 168.126 37.724 168.126C36.74 168.126 35.804 167.976 34.916 167.676C34.04 167.364 33.242 166.914 32.522 166.326L33.296 164.958C33.488 165.162 33.734 165.366 34.034 165.57C34.346 165.774 34.694 165.96 35.078 166.128C35.474 166.284 35.894 166.416 36.338 166.524C36.794 166.62 37.268 166.668 37.76 166.668C38.672 166.668 39.38 166.506 39.884 166.182C40.388 165.858 40.64 165.372 40.64 164.724C40.64 164.364 40.556 164.064 40.388 163.824C40.232 163.572 39.998 163.356 39.686 163.176C39.374 162.996 38.984 162.84 38.516 162.708C38.06 162.564 37.538 162.42 36.95 162.276C36.302 162.12 35.732 161.952 35.24 161.772C34.748 161.592 34.334 161.376 33.998 161.124C33.674 160.872 33.428 160.566 33.26 160.206C33.092 159.846 33.008 159.414 33.008 158.91C33.008 158.298 33.122 157.758 33.35 157.29C33.578 156.822 33.896 156.426 34.304 156.102C34.712 155.778 35.198 155.538 35.762 155.382C36.326 155.214 36.938 155.13 37.598 155.13C38.462 155.13 39.242 155.262 39.938 155.526C40.634 155.79 41.252 156.144 41.792 156.588L41.036 157.902ZM47.1448 168.18C46.1608 168.18 45.4168 167.85 44.9128 167.19C44.4088 166.53 44.1567 165.546 44.1567 164.238V158.604H45.7408V163.932C45.7408 165.852 46.4068 166.812 47.7388 166.812C48.3868 166.812 48.9928 166.608 49.5568 166.2C50.1328 165.78 50.5588 165.21 50.8348 164.49V158.604H52.4188V166.056C52.4188 166.428 52.5868 166.62 52.9228 166.632V168C52.7428 168.024 52.5988 168.036 52.4908 168.036C52.3948 168.048 52.2988 168.054 52.2028 168.054C51.8908 168.054 51.6268 167.964 51.4108 167.784C51.2068 167.592 51.0988 167.358 51.0868 167.082L51.0508 165.984C50.6308 166.692 50.0788 167.238 49.3948 167.622C48.7108 167.994 47.9608 168.18 47.1448 168.18ZM59.8813 168.18C59.1493 168.18 58.4833 168 57.8833 167.64C57.2833 167.28 56.8093 166.812 56.4613 166.236V168H55.0573V154.86H56.6413V160.476C57.0373 159.864 57.5233 159.372 58.0993 159C58.6753 158.628 59.3473 158.442 60.1153 158.442C60.7633 158.442 61.3453 158.58 61.8613 158.856C62.3773 159.132 62.8153 159.498 63.1753 159.954C63.5473 160.398 63.8293 160.92 64.0213 161.52C64.2253 162.108 64.3273 162.714 64.3273 163.338C64.3273 163.998 64.2133 164.622 63.9853 165.21C63.7573 165.798 63.4453 166.314 63.0493 166.758C62.6533 167.19 62.1793 167.538 61.6273 167.802C61.0873 168.054 60.5053 168.18 59.8813 168.18ZM59.4853 166.812C59.9533 166.812 60.3853 166.716 60.7813 166.524C61.1773 166.332 61.5193 166.074 61.8073 165.75C62.0953 165.426 62.3173 165.06 62.4733 164.652C62.6293 164.232 62.7073 163.794 62.7073 163.338C62.7073 162.882 62.6293 162.444 62.4733 162.024C62.3293 161.592 62.1193 161.214 61.8433 160.89C61.5793 160.566 61.2553 160.308 60.8713 160.116C60.4993 159.912 60.0853 159.81 59.6293 159.81C59.2933 159.81 58.9753 159.87 58.6753 159.99C58.3753 160.11 58.0933 160.272 57.8293 160.476C57.5773 160.668 57.3493 160.896 57.1453 161.16C56.9533 161.424 56.7853 161.706 56.6413 162.006V164.724C56.7013 165.024 56.8273 165.3 57.0193 165.552C57.2233 165.804 57.4573 166.026 57.7213 166.218C57.9973 166.398 58.2853 166.542 58.5853 166.65C58.8973 166.758 59.1973 166.812 59.4853 166.812ZM69.5661 168.18C68.8101 168.18 68.0661 168.066 67.3341 167.838C66.6021 167.598 65.9721 167.256 65.4441 166.812L66.1281 165.75C66.6801 166.17 67.2321 166.488 67.7841 166.704C68.3361 166.908 68.9181 167.01 69.5301 167.01C70.2141 167.01 70.7541 166.878 71.1501 166.614C71.5581 166.338 71.7621 165.954 71.7621 165.462C71.7621 165.234 71.7081 165.042 71.6001 164.886C71.4921 164.718 71.3301 164.574 71.1141 164.454C70.8981 164.334 70.6221 164.226 70.2861 164.13C69.9501 164.034 69.5601 163.932 69.1161 163.824C68.5521 163.68 68.0661 163.542 67.6581 163.41C67.2501 163.278 66.9141 163.122 66.6501 162.942C66.3861 162.762 66.1941 162.546 66.0741 162.294C65.9541 162.042 65.8941 161.73 65.8941 161.358C65.8941 160.89 65.9841 160.476 66.1641 160.116C66.3561 159.744 66.6141 159.438 66.9381 159.198C67.2621 158.946 67.6401 158.76 68.0721 158.64C68.5161 158.508 68.9901 158.442 69.4941 158.442C70.2021 158.442 70.8621 158.556 71.4741 158.784C72.0861 159.012 72.6021 159.312 73.0221 159.684L72.3021 160.638C71.9061 160.29 71.4621 160.032 70.9701 159.864C70.4781 159.684 69.9741 159.594 69.4581 159.594C68.8821 159.594 68.3901 159.72 67.9821 159.972C67.5861 160.212 67.3881 160.602 67.3881 161.142C67.3881 161.358 67.4241 161.538 67.4961 161.682C67.5801 161.826 67.7121 161.952 67.8921 162.06C68.0721 162.168 68.3001 162.264 68.5761 162.348C68.8641 162.432 69.2061 162.522 69.6021 162.618C70.2261 162.762 70.7661 162.912 71.2221 163.068C71.6901 163.212 72.0741 163.386 72.3741 163.59C72.6861 163.794 72.9141 164.034 73.0581 164.31C73.2141 164.586 73.2921 164.922 73.2921 165.318C73.2921 166.194 72.9561 166.89 72.2841 167.406C71.6121 167.922 70.7061 168.18 69.5661 168.18ZM74.5367 163.284C74.5367 162.624 74.6507 162 74.8787 161.412C75.1067 160.824 75.4307 160.314 75.8507 159.882C76.2707 159.438 76.7687 159.09 77.3447 158.838C77.9327 158.574 78.5867 158.442 79.3067 158.442C80.2427 158.442 81.0467 158.652 81.7187 159.072C82.4027 159.48 82.9187 160.032 83.2667 160.728L81.7187 161.214C81.4787 160.77 81.1427 160.428 80.7107 160.188C80.2787 159.936 79.7987 159.81 79.2707 159.81C78.8387 159.81 78.4307 159.9 78.0467 160.08C77.6627 160.248 77.3327 160.488 77.0567 160.8C76.7807 161.112 76.5587 161.478 76.3907 161.898C76.2347 162.318 76.1567 162.78 76.1567 163.284C76.1567 163.776 76.2407 164.238 76.4087 164.67C76.5767 165.102 76.7987 165.48 77.0747 165.804C77.3627 166.116 77.6927 166.362 78.0647 166.542C78.4487 166.722 78.8567 166.812 79.2887 166.812C79.5647 166.812 79.8347 166.776 80.0987 166.704C80.3747 166.62 80.6207 166.512 80.8367 166.38C81.0647 166.248 81.2627 166.098 81.4307 165.93C81.5987 165.75 81.7187 165.558 81.7907 165.354L83.3387 165.822C83.1947 166.17 82.9907 166.488 82.7267 166.776C82.4747 167.064 82.1747 167.31 81.8267 167.514C81.4787 167.718 81.0887 167.88 80.6567 168C80.2367 168.12 79.7927 168.18 79.3247 168.18C78.6167 168.18 77.9687 168.048 77.3807 167.784C76.7927 167.52 76.2887 167.166 75.8687 166.722C75.4487 166.278 75.1187 165.762 74.8787 165.174C74.6507 164.574 74.5367 163.944 74.5367 163.284ZM90.1015 159.99C89.3095 160.014 88.6075 160.218 87.9955 160.602C87.3955 160.986 86.9695 161.52 86.7175 162.204V168H85.1335V158.604H86.6095V160.782C86.9335 160.134 87.3595 159.612 87.8875 159.216C88.4155 158.808 88.9795 158.58 89.5795 158.532C89.6995 158.532 89.8015 158.532 89.8855 158.532C89.9695 158.532 90.0415 158.538 90.1015 158.55V159.99ZM91.6725 168V158.604H93.2565V168H91.6725ZM91.6725 156.84V154.86H93.2565V156.84H91.6725ZM100.645 168.18C99.913 168.18 99.247 168 98.647 167.64C98.047 167.28 97.573 166.812 97.225 166.236V168H95.821V154.86H97.405V160.476C97.801 159.864 98.287 159.372 98.863 159C99.439 158.628 100.111 158.442 100.879 158.442C101.527 158.442 102.109 158.58 102.625 158.856C103.141 159.132 103.579 159.498 103.939 159.954C104.311 160.398 104.593 160.92 104.785 161.52C104.989 162.108 105.091 162.714 105.091 163.338C105.091 163.998 104.977 164.622 104.749 165.21C104.521 165.798 104.209 166.314 103.813 166.758C103.417 167.19 102.943 167.538 102.391 167.802C101.851 168.054 101.269 168.18 100.645 168.18ZM100.249 166.812C100.717 166.812 101.149 166.716 101.545 166.524C101.941 166.332 102.283 166.074 102.571 165.75C102.859 165.426 103.081 165.06 103.237 164.652C103.393 164.232 103.471 163.794 103.471 163.338C103.471 162.882 103.393 162.444 103.237 162.024C103.093 161.592 102.883 161.214 102.607 160.89C102.343 160.566 102.019 160.308 101.635 160.116C101.263 159.912 100.849 159.81 100.393 159.81C100.057 159.81 99.739 159.87 99.439 159.99C99.139 160.11 98.857 160.272 98.593 160.476C98.341 160.668 98.113 160.896 97.909 161.16C97.717 161.424 97.549 161.706 97.405 162.006V164.724C97.465 165.024 97.591 165.3 97.783 165.552C97.987 165.804 98.221 166.026 98.485 166.218C98.761 166.398 99.049 166.542 99.349 166.65C99.661 166.758 99.961 166.812 100.249 166.812ZM111.194 168.18C110.486 168.18 109.838 168.054 109.25 167.802C108.662 167.538 108.158 167.184 107.738 166.74C107.318 166.296 106.988 165.78 106.748 165.192C106.52 164.592 106.406 163.962 106.406 163.302C106.406 162.642 106.52 162.018 106.748 161.43C106.988 160.842 107.318 160.326 107.738 159.882C108.17 159.438 108.68 159.09 109.268 158.838C109.856 158.574 110.504 158.442 111.212 158.442C111.92 158.442 112.562 158.574 113.138 158.838C113.726 159.102 114.224 159.456 114.632 159.9C115.04 160.332 115.352 160.842 115.568 161.43C115.796 162.006 115.91 162.606 115.91 163.23C115.91 163.362 115.904 163.482 115.892 163.59C115.892 163.698 115.886 163.782 115.874 163.842H108.08C108.116 164.31 108.224 164.736 108.404 165.12C108.584 165.504 108.818 165.834 109.106 166.11C109.394 166.386 109.718 166.602 110.078 166.758C110.45 166.914 110.84 166.992 111.248 166.992C111.536 166.992 111.818 166.956 112.094 166.884C112.37 166.8 112.628 166.692 112.868 166.56C113.108 166.428 113.318 166.266 113.498 166.074C113.69 165.882 113.834 165.666 113.93 165.426L115.298 165.804C115.142 166.152 114.926 166.47 114.65 166.758C114.386 167.046 114.074 167.298 113.714 167.514C113.366 167.718 112.976 167.88 112.544 168C112.112 168.12 111.662 168.18 111.194 168.18ZM114.416 162.672C114.38 162.228 114.266 161.82 114.074 161.448C113.894 161.064 113.66 160.74 113.372 160.476C113.096 160.212 112.772 160.008 112.4 159.864C112.028 159.708 111.632 159.63 111.212 159.63C110.792 159.63 110.396 159.708 110.024 159.864C109.652 160.008 109.322 160.218 109.034 160.494C108.758 160.758 108.53 161.076 108.35 161.448C108.182 161.82 108.08 162.228 108.044 162.672H114.416ZM124.095 158.244V168H122.475V155.22H123.735L131.655 165.174V155.238H133.275V168H131.907L124.095 158.244ZM140.021 168.18C139.313 168.18 138.665 168.048 138.077 167.784C137.501 167.52 137.003 167.166 136.583 166.722C136.175 166.278 135.857 165.762 135.629 165.174C135.401 164.586 135.287 163.968 135.287 163.32C135.287 162.66 135.401 162.036 135.629 161.448C135.869 160.86 136.193 160.344 136.601 159.9C137.021 159.456 137.519 159.102 138.095 158.838C138.683 158.574 139.325 158.442 140.021 158.442C140.717 158.442 141.359 158.574 141.947 158.838C142.535 159.102 143.033 159.456 143.441 159.9C143.861 160.344 144.185 160.86 144.413 161.448C144.653 162.036 144.773 162.66 144.773 163.32C144.773 163.968 144.659 164.586 144.431 165.174C144.203 165.762 143.879 166.278 143.459 166.722C143.039 167.166 142.535 167.52 141.947 167.784C141.371 168.048 140.729 168.18 140.021 168.18ZM136.907 163.338C136.907 163.83 136.985 164.286 137.141 164.706C137.309 165.126 137.531 165.492 137.807 165.804C138.095 166.116 138.425 166.362 138.797 166.542C139.181 166.722 139.589 166.812 140.021 166.812C140.453 166.812 140.855 166.722 141.227 166.542C141.611 166.362 141.947 166.116 142.235 165.804C142.523 165.48 142.745 165.108 142.901 164.688C143.069 164.256 143.153 163.794 143.153 163.302C143.153 162.822 143.069 162.372 142.901 161.952C142.745 161.52 142.523 161.148 142.235 160.836C141.947 160.512 141.611 160.26 141.227 160.08C140.855 159.9 140.453 159.81 140.021 159.81C139.589 159.81 139.181 159.906 138.797 160.098C138.425 160.278 138.095 160.53 137.807 160.854C137.531 161.166 137.309 161.538 137.141 161.97C136.985 162.39 136.907 162.846 136.907 163.338ZM158.148 158.604H159.678L155.682 168H154.368L152.478 163.41L150.606 168H149.292L145.296 158.604H146.808L150.048 166.434L151.632 162.528L150.012 158.622H151.326L152.478 161.628L153.63 158.622H154.944L153.342 162.528L154.926 166.434L158.148 158.604Z" fill="white"/>
</g>
</svg>
