<svg width="191" height="179" viewBox="0 0 191 179" fill="none" xmlns="http://www.w3.org/2000/svg">
<rect width="191" height="179" fill="white"/>
<rect y="145" width="191" height="34" fill="#3F1A8E"/>
<mask id="mask0" mask-type="alpha" maskUnits="userSpaceOnUse" x="0" y="0" width="191" height="179">
<rect width="191" height="179" fill="#C4C4C4"/>
</mask>
<g mask="url(#mask0)">
<path d="M-23.1685 -18.3745L41.0121 -10.4581L-17.5859 46.0511L-23.1685 -18.3745Z" fill="#3F1A8E"/>
<rect x="69" y="54" width="54" height="4" rx="2" fill="#082D72"/>
<path d="M28.432 81.848C28.24 81.624 27.872 81.352 27.328 81.032C26.816 80.712 26.192 80.392 25.456 80.072C24.752 79.72 23.968 79.416 23.104 79.16C22.24 78.872 21.344 78.68 20.416 78.584V86.888L21.616 87.176C23.28 87.624 24.784 88.104 26.128 88.616C27.504 89.128 28.656 89.768 29.584 90.536C30.544 91.304 31.28 92.232 31.792 93.32C32.304 94.376 32.56 95.688 32.56 97.256C32.56 99.016 32.24 100.52 31.6 101.768C30.992 103.016 30.144 104.04 29.056 104.84C28 105.64 26.752 106.248 25.312 106.664C23.904 107.048 22.416 107.272 20.848 107.336V112.616H17.968V107.288C15.728 107.128 13.536 106.68 11.392 105.944C9.28 105.176 7.36 104.184 5.632 102.968L8.56 97.256C8.816 97.512 9.248 97.848 9.856 98.264C10.496 98.68 11.248 99.096 12.112 99.512C13.008 99.896 13.984 100.264 15.04 100.616C16.128 100.968 17.248 101.208 18.4 101.336V93.08C18.112 93.016 17.824 92.952 17.536 92.888C17.248 92.792 16.96 92.696 16.672 92.6C15.04 92.152 13.616 91.672 12.4 91.16C11.216 90.616 10.224 89.992 9.424 89.288C8.624 88.552 8.016 87.72 7.6 86.792C7.216 85.832 7.024 84.696 7.024 83.384C7.024 81.784 7.296 80.36 7.84 79.112C8.416 77.832 9.184 76.744 10.144 75.848C11.136 74.952 12.304 74.248 13.648 73.736C14.992 73.224 16.432 72.904 17.968 72.776V67.88H20.848V72.728C22.96 72.888 24.896 73.32 26.656 74.024C28.448 74.728 30.016 75.544 31.36 76.472L28.432 81.848ZM25.504 97.928C25.504 96.84 25.056 95.992 24.16 95.384C23.264 94.776 22.016 94.216 20.416 93.704V101.432C23.808 101.336 25.504 100.168 25.504 97.928ZM13.84 82.328C13.84 83.416 14.208 84.248 14.944 84.824C15.712 85.368 16.864 85.864 18.4 86.312V78.536C15.36 78.728 13.84 79.992 13.84 82.328ZM36.2459 107C36.2459 105.56 36.3579 104.264 36.5819 103.112C36.8059 101.928 37.1899 100.84 37.7339 99.848C38.3099 98.856 39.0779 97.928 40.0379 97.064C41.0299 96.2 42.2779 95.352 43.7819 94.52C45.0939 93.816 46.2459 93.208 47.2379 92.696C48.2619 92.152 49.1099 91.656 49.7819 91.208C50.4539 90.76 50.9659 90.312 51.3179 89.864C51.6699 89.384 51.8459 88.84 51.8459 88.232C51.8459 87.272 51.4619 86.456 50.6939 85.784C49.9259 85.08 48.8219 84.728 47.3819 84.728C46.6139 84.728 45.9099 84.84 45.2699 85.064C44.6299 85.256 44.0219 85.528 43.4459 85.88C42.9019 86.232 42.3899 86.632 41.9099 87.08C41.4619 87.496 41.0459 87.944 40.6619 88.424L36.5339 83.672C36.9499 83.224 37.5419 82.744 38.3099 82.232C39.0779 81.688 39.9739 81.192 40.9979 80.744C42.0539 80.264 43.2059 79.88 44.4539 79.592C45.7339 79.272 47.0939 79.112 48.5339 79.112C50.1659 79.112 51.6219 79.32 52.9019 79.736C54.1819 80.12 55.2539 80.68 56.1179 81.416C57.0139 82.12 57.6859 82.984 58.1339 84.008C58.6139 85 58.8539 86.088 58.8539 87.272C58.8539 88.392 58.6459 89.384 58.2299 90.248C57.8139 91.112 57.2859 91.88 56.6459 92.552C56.0059 93.224 55.3019 93.816 54.5339 94.328C53.7979 94.808 53.0779 95.24 52.3739 95.624C51.7979 95.944 51.1419 96.312 50.4059 96.728C49.6699 97.144 48.9339 97.608 48.1979 98.12C47.4939 98.6 46.8379 99.112 46.2299 99.656C45.6219 100.168 45.1579 100.68 44.8379 101.192H59.3819V107H36.2459ZM75.4356 91.688C77.0356 91.688 78.5236 91.96 79.8996 92.504C81.2756 93.016 82.4596 93.752 83.4516 94.712C84.4436 95.672 85.2116 96.824 85.7556 98.168C86.3316 99.512 86.6196 101 86.6196 102.632C86.6196 104.36 86.2996 105.928 85.6596 107.336C85.0516 108.744 84.1876 109.944 83.0676 110.936C81.9476 111.96 80.6196 112.744 79.0836 113.288C77.5476 113.864 75.8836 114.152 74.0916 114.152C71.5956 114.152 69.3556 113.624 67.3716 112.568C65.4196 111.512 63.9316 110.072 62.9076 108.248L66.6036 104.408C67.4996 105.656 68.6196 106.648 69.9636 107.384C71.3076 108.12 72.6996 108.488 74.1396 108.488C75.8676 108.488 77.2756 107.976 78.3636 106.952C79.4836 105.896 80.0436 104.504 80.0436 102.776C80.0436 101.112 79.5156 99.768 78.4596 98.744C77.4356 97.72 76.1236 97.208 74.5236 97.208C73.4676 97.208 72.4756 97.448 71.5476 97.928C70.6516 98.408 69.9316 99.064 69.3876 99.896H63.7716C63.7716 99.8 63.8356 99.448 63.9636 98.84C64.0916 98.2 64.2516 97.4 64.4436 96.44C64.6356 95.448 64.8436 94.36 65.0676 93.176C65.2916 91.96 65.5316 90.728 65.7876 89.48C66.3636 86.536 67.0036 83.24 67.7076 79.592H84.5076V85.448H72.3636L70.9716 93.08C71.3556 92.664 71.9156 92.328 72.6516 92.072C73.4196 91.816 74.3476 91.688 75.4356 91.688ZM120.302 72.92L96.4938 107H89.3898L113.15 72.92H120.302ZM131.009 104.58V107H122.889V104.58H125.729V98.52C125.609 98.68 125.416 98.8467 125.149 99.02C124.896 99.18 124.616 99.3333 124.309 99.48C124.003 99.6267 123.683 99.7467 123.349 99.84C123.029 99.9333 122.743 99.98 122.489 99.98V97.48C122.729 97.48 123.023 97.4067 123.369 97.26C123.716 97.1 124.056 96.9133 124.389 96.7C124.723 96.4867 125.009 96.28 125.249 96.08C125.503 95.8667 125.663 95.7 125.729 95.58H128.469V104.58H131.009ZM153.797 107H151.117V101.12C151.117 100.28 150.97 99.6667 150.677 99.28C150.397 98.8933 150.004 98.7 149.497 98.7C148.964 98.7 148.464 98.9067 147.997 99.32C147.53 99.72 147.197 100.247 146.997 100.9V107H144.317V101.12C144.317 100.28 144.17 99.6667 143.877 99.28C143.597 98.8933 143.204 98.7 142.697 98.7C142.177 98.7 141.677 98.9 141.197 99.3C140.73 99.7 140.397 100.227 140.197 100.88V107H137.517V96.52H139.937V98.46C140.324 97.78 140.85 97.26 141.517 96.9C142.197 96.5267 142.97 96.34 143.837 96.34C144.717 96.34 145.397 96.5533 145.877 96.98C146.357 97.4067 146.664 97.9333 146.797 98.56C147.224 97.84 147.764 97.2933 148.417 96.92C149.07 96.5333 149.817 96.34 150.657 96.34C151.297 96.34 151.824 96.46 152.237 96.7C152.65 96.94 152.97 97.2533 153.197 97.64C153.424 98.0267 153.577 98.4667 153.657 98.96C153.75 99.4533 153.797 99.9533 153.797 100.46V107ZM162.313 106.46C161.953 106.62 161.513 106.78 160.993 106.94C160.473 107.1 159.926 107.18 159.353 107.18C158.979 107.18 158.626 107.133 158.293 107.04C157.973 106.947 157.686 106.8 157.433 106.6C157.193 106.387 156.999 106.12 156.853 105.8C156.706 105.467 156.633 105.067 156.633 104.6V98.58H155.253V96.52H156.633V93.12H159.313V96.52H161.513V98.58H159.313V103.7C159.313 104.073 159.406 104.34 159.593 104.5C159.793 104.647 160.033 104.72 160.313 104.72C160.593 104.72 160.866 104.673 161.133 104.58C161.399 104.487 161.613 104.407 161.773 104.34L162.313 106.46ZM173.448 107H170.768V101.12C170.768 100.293 170.615 99.6867 170.308 99.3C170.002 98.9 169.568 98.7 169.008 98.7C168.768 98.7 168.515 98.7533 168.248 98.86C167.982 98.9667 167.728 99.12 167.488 99.32C167.248 99.5067 167.028 99.7333 166.828 100C166.628 100.267 166.482 100.56 166.388 100.88V107H163.708V92.4H166.388V98.46C166.775 97.78 167.295 97.26 167.948 96.9C168.615 96.5267 169.348 96.34 170.148 96.34C170.828 96.34 171.382 96.46 171.808 96.7C172.235 96.9267 172.568 97.2333 172.808 97.62C173.048 98.0067 173.215 98.4467 173.308 98.94C173.402 99.4333 173.448 99.94 173.448 100.46V107Z" fill="black"/>
<path d="M76.504 41.608C76.504 42.328 76.36 42.96 76.072 43.504C75.784 44.048 75.384 44.504 74.872 44.872C74.376 45.24 73.792 45.52 73.12 45.712C72.464 45.904 71.76 46 71.008 46H62.776V28.96H71.896C72.488 28.96 73.024 29.088 73.504 29.344C73.984 29.6 74.392 29.936 74.728 30.352C75.064 30.752 75.32 31.216 75.496 31.744C75.688 32.256 75.784 32.776 75.784 33.304C75.784 34.136 75.576 34.92 75.16 35.656C74.744 36.376 74.136 36.912 73.336 37.264C74.312 37.552 75.08 38.072 75.64 38.824C76.216 39.56 76.504 40.488 76.504 41.608ZM73.168 40.984C73.168 40.68 73.112 40.392 73 40.12C72.904 39.832 72.768 39.584 72.592 39.376C72.416 39.168 72.208 39.008 71.968 38.896C71.728 38.768 71.464 38.704 71.176 38.704H66.088V43.192H71.008C71.312 43.192 71.592 43.136 71.848 43.024C72.12 42.912 72.352 42.76 72.544 42.568C72.736 42.36 72.888 42.12 73 41.848C73.112 41.576 73.168 41.288 73.168 40.984ZM66.088 31.792V36.088H70.504C71.064 36.088 71.536 35.896 71.92 35.512C72.32 35.128 72.52 34.6 72.52 33.928C72.52 33.272 72.336 32.752 71.968 32.368C71.616 31.984 71.176 31.792 70.648 31.792H66.088ZM82.2085 46.24C81.6005 46.24 81.0325 46.144 80.5045 45.952C79.9765 45.744 79.5205 45.464 79.1365 45.112C78.7525 44.744 78.4485 44.32 78.2245 43.84C78.0165 43.36 77.9125 42.832 77.9125 42.256C77.9125 41.664 78.0405 41.12 78.2965 40.624C78.5685 40.112 78.9365 39.68 79.4005 39.328C79.8805 38.976 80.4485 38.704 81.1045 38.512C81.7605 38.304 82.4805 38.2 83.2645 38.2C83.8245 38.2 84.3685 38.248 84.8965 38.344C85.4405 38.44 85.9205 38.576 86.3365 38.752V38.032C86.3365 37.2 86.0965 36.56 85.6165 36.112C85.1525 35.664 84.4565 35.44 83.5285 35.44C82.8565 35.44 82.2005 35.56 81.5605 35.8C80.9205 36.04 80.2645 36.392 79.5925 36.856L78.6085 34.816C80.2245 33.744 81.9685 33.208 83.8405 33.208C85.6485 33.208 87.0485 33.656 88.0405 34.552C89.0485 35.432 89.5525 36.712 89.5525 38.392V42.304C89.5525 42.64 89.6085 42.88 89.7205 43.024C89.8485 43.168 90.0485 43.248 90.3205 43.264V46C89.7765 46.112 89.3045 46.168 88.9045 46.168C88.2965 46.168 87.8245 46.032 87.4885 45.76C87.1685 45.488 86.9685 45.128 86.8885 44.68L86.8165 43.984C86.2565 44.72 85.5765 45.28 84.7765 45.664C83.9765 46.048 83.1205 46.24 82.2085 46.24ZM83.1205 43.888C83.6645 43.888 84.1765 43.792 84.6565 43.6C85.1525 43.408 85.5365 43.152 85.8085 42.832C86.1605 42.56 86.3365 42.256 86.3365 41.92V40.48C85.9525 40.336 85.5365 40.224 85.0885 40.144C84.6405 40.048 84.2085 40 83.7925 40C82.9605 40 82.2805 40.192 81.7525 40.576C81.2245 40.944 80.9605 41.416 80.9605 41.992C80.9605 42.536 81.1685 42.992 81.5845 43.36C82.0005 43.712 82.5125 43.888 83.1205 43.888ZM97.3098 46.24C96.2538 46.24 95.2218 46.072 94.2138 45.736C93.2058 45.4 92.3418 44.92 91.6218 44.296L92.8218 42.28C93.5898 42.824 94.3338 43.24 95.0538 43.528C95.7898 43.8 96.5178 43.936 97.2378 43.936C97.8778 43.936 98.3818 43.816 98.7498 43.576C99.1178 43.336 99.3018 42.992 99.3018 42.544C99.3018 42.096 99.0858 41.768 98.6538 41.56C98.2218 41.352 97.5178 41.112 96.5418 40.84C95.7258 40.616 95.0298 40.4 94.4538 40.192C93.8778 39.984 93.4138 39.752 93.0618 39.496C92.7098 39.224 92.4538 38.92 92.2938 38.584C92.1338 38.232 92.0538 37.816 92.0538 37.336C92.0538 36.696 92.1738 36.12 92.4138 35.608C92.6698 35.096 93.0218 34.664 93.4698 34.312C93.9178 33.944 94.4378 33.664 95.0298 33.472C95.6378 33.28 96.2938 33.184 96.9978 33.184C97.9418 33.184 98.8218 33.32 99.6378 33.592C100.47 33.864 101.23 34.304 101.918 34.912L100.622 36.856C99.9818 36.376 99.3578 36.024 98.7498 35.8C98.1578 35.576 97.5658 35.464 96.9738 35.464C96.4298 35.464 95.9738 35.576 95.6058 35.8C95.2378 36.024 95.0538 36.384 95.0538 36.88C95.0538 37.104 95.0938 37.288 95.1738 37.432C95.2698 37.576 95.4138 37.704 95.6058 37.816C95.7978 37.928 96.0458 38.04 96.3498 38.152C96.6698 38.248 97.0618 38.352 97.5258 38.464C98.3898 38.688 99.1258 38.912 99.7338 39.136C100.358 39.36 100.862 39.616 101.246 39.904C101.646 40.192 101.934 40.528 102.11 40.912C102.302 41.28 102.398 41.728 102.398 42.256C102.398 43.488 101.942 44.464 101.03 45.184C100.118 45.888 98.8778 46.24 97.3098 46.24ZM104.487 46V33.424H107.703V46H104.487ZM104.487 31.672V28.48H107.703V31.672H104.487ZM109.813 39.712C109.813 38.832 109.965 38 110.269 37.216C110.573 36.432 111.013 35.744 111.589 35.152C112.165 34.56 112.861 34.088 113.677 33.736C114.493 33.384 115.413 33.208 116.437 33.208C117.813 33.208 118.981 33.504 119.941 34.096C120.917 34.688 121.645 35.464 122.125 36.424L118.981 37.384C118.709 36.92 118.349 36.568 117.901 36.328C117.453 36.072 116.957 35.944 116.413 35.944C115.949 35.944 115.517 36.04 115.117 36.232C114.717 36.408 114.365 36.664 114.061 37C113.773 37.32 113.541 37.712 113.365 38.176C113.205 38.64 113.125 39.152 113.125 39.712C113.125 40.272 113.213 40.784 113.389 41.248C113.565 41.712 113.797 42.112 114.085 42.448C114.389 42.784 114.741 43.048 115.141 43.24C115.541 43.416 115.965 43.504 116.413 43.504C116.989 43.504 117.517 43.36 117.997 43.072C118.493 42.784 118.837 42.432 119.029 42.016L122.173 42.976C121.741 43.936 121.029 44.72 120.037 45.328C119.045 45.936 117.853 46.24 116.461 46.24C115.437 46.24 114.517 46.064 113.701 45.712C112.885 45.36 112.189 44.888 111.613 44.296C111.037 43.688 110.589 42.992 110.269 42.208C109.965 41.408 109.813 40.576 109.813 39.712Z" fill="black"/>
<path d="M41.036 157.902C40.892 157.734 40.7 157.572 40.46 157.416C40.22 157.26 39.95 157.122 39.65 157.002C39.35 156.87 39.02 156.768 38.66 156.696C38.312 156.612 37.946 156.57 37.562 156.57C36.566 156.57 35.834 156.756 35.366 157.128C34.91 157.5 34.682 158.01 34.682 158.658C34.682 159.006 34.748 159.294 34.88 159.522C35.012 159.75 35.216 159.948 35.492 160.116C35.78 160.272 36.134 160.41 36.554 160.53C36.974 160.65 37.472 160.776 38.048 160.908C38.708 161.052 39.302 161.22 39.83 161.412C40.37 161.592 40.826 161.82 41.198 162.096C41.582 162.372 41.87 162.708 42.062 163.104C42.266 163.5 42.368 163.986 42.368 164.562C42.368 165.174 42.248 165.708 42.008 166.164C41.768 166.608 41.438 166.98 41.018 167.28C40.61 167.568 40.124 167.784 39.56 167.928C38.996 168.06 38.384 168.126 37.724 168.126C36.74 168.126 35.804 167.976 34.916 167.676C34.04 167.364 33.242 166.914 32.522 166.326L33.296 164.958C33.488 165.162 33.734 165.366 34.034 165.57C34.346 165.774 34.694 165.96 35.078 166.128C35.474 166.284 35.894 166.416 36.338 166.524C36.794 166.62 37.268 166.668 37.76 166.668C38.672 166.668 39.38 166.506 39.884 166.182C40.388 165.858 40.64 165.372 40.64 164.724C40.64 164.364 40.556 164.064 40.388 163.824C40.232 163.572 39.998 163.356 39.686 163.176C39.374 162.996 38.984 162.84 38.516 162.708C38.06 162.564 37.538 162.42 36.95 162.276C36.302 162.12 35.732 161.952 35.24 161.772C34.748 161.592 34.334 161.376 33.998 161.124C33.674 160.872 33.428 160.566 33.26 160.206C33.092 159.846 33.008 159.414 33.008 158.91C33.008 158.298 33.122 157.758 33.35 157.29C33.578 156.822 33.896 156.426 34.304 156.102C34.712 155.778 35.198 155.538 35.762 155.382C36.326 155.214 36.938 155.13 37.598 155.13C38.462 155.13 39.242 155.262 39.938 155.526C40.634 155.79 41.252 156.144 41.792 156.588L41.036 157.902ZM47.1448 168.18C46.1608 168.18 45.4168 167.85 44.9128 167.19C44.4088 166.53 44.1567 165.546 44.1567 164.238V158.604H45.7408V163.932C45.7408 165.852 46.4068 166.812 47.7388 166.812C48.3868 166.812 48.9928 166.608 49.5568 166.2C50.1328 165.78 50.5588 165.21 50.8348 164.49V158.604H52.4188V166.056C52.4188 166.428 52.5868 166.62 52.9228 166.632V168C52.7428 168.024 52.5988 168.036 52.4908 168.036C52.3948 168.048 52.2988 168.054 52.2028 168.054C51.8908 168.054 51.6268 167.964 51.4108 167.784C51.2068 167.592 51.0988 167.358 51.0868 167.082L51.0508 165.984C50.6308 166.692 50.0788 167.238 49.3948 167.622C48.7108 167.994 47.9608 168.18 47.1448 168.18ZM59.8813 168.18C59.1493 168.18 58.4833 168 57.8833 167.64C57.2833 167.28 56.8093 166.812 56.4613 166.236V168H55.0573V154.86H56.6413V160.476C57.0373 159.864 57.5233 159.372 58.0993 159C58.6753 158.628 59.3473 158.442 60.1153 158.442C60.7633 158.442 61.3453 158.58 61.8613 158.856C62.3773 159.132 62.8153 159.498 63.1753 159.954C63.5473 160.398 63.8293 160.92 64.0213 161.52C64.2253 162.108 64.3273 162.714 64.3273 163.338C64.3273 163.998 64.2133 164.622 63.9853 165.21C63.7573 165.798 63.4453 166.314 63.0493 166.758C62.6533 167.19 62.1793 167.538 61.6273 167.802C61.0873 168.054 60.5053 168.18 59.8813 168.18ZM59.4853 166.812C59.9533 166.812 60.3853 166.716 60.7813 166.524C61.1773 166.332 61.5193 166.074 61.8073 165.75C62.0953 165.426 62.3173 165.06 62.4733 164.652C62.6293 164.232 62.7073 163.794 62.7073 163.338C62.7073 162.882 62.6293 162.444 62.4733 162.024C62.3293 161.592 62.1193 161.214 61.8433 160.89C61.5793 160.566 61.2553 160.308 60.8713 160.116C60.4993 159.912 60.0853 159.81 59.6293 159.81C59.2933 159.81 58.9753 159.87 58.6753 159.99C58.3753 160.11 58.0933 160.272 57.8293 160.476C57.5773 160.668 57.3493 160.896 57.1453 161.16C56.9533 161.424 56.7853 161.706 56.6413 162.006V164.724C56.7013 165.024 56.8273 165.3 57.0193 165.552C57.2233 165.804 57.4573 166.026 57.7213 166.218C57.9973 166.398 58.2853 166.542 58.5853 166.65C58.8973 166.758 59.1973 166.812 59.4853 166.812ZM69.5661 168.18C68.8101 168.18 68.0661 168.066 67.3341 167.838C66.6021 167.598 65.9721 167.256 65.4441 166.812L66.1281 165.75C66.6801 166.17 67.2321 166.488 67.7841 166.704C68.3361 166.908 68.9181 167.01 69.5301 167.01C70.2141 167.01 70.7541 166.878 71.1501 166.614C71.5581 166.338 71.7621 165.954 71.7621 165.462C71.7621 165.234 71.7081 165.042 71.6001 164.886C71.4921 164.718 71.3301 164.574 71.1141 164.454C70.8981 164.334 70.6221 164.226 70.2861 164.13C69.9501 164.034 69.5601 163.932 69.1161 163.824C68.5521 163.68 68.0661 163.542 67.6581 163.41C67.2501 163.278 66.9141 163.122 66.6501 162.942C66.3861 162.762 66.1941 162.546 66.0741 162.294C65.9541 162.042 65.8941 161.73 65.8941 161.358C65.8941 160.89 65.9841 160.476 66.1641 160.116C66.3561 159.744 66.6141 159.438 66.9381 159.198C67.2621 158.946 67.6401 158.76 68.0721 158.64C68.5161 158.508 68.9901 158.442 69.4941 158.442C70.2021 158.442 70.8621 158.556 71.4741 158.784C72.0861 159.012 72.6021 159.312 73.0221 159.684L72.3021 160.638C71.9061 160.29 71.4621 160.032 70.9701 159.864C70.4781 159.684 69.9741 159.594 69.4581 159.594C68.8821 159.594 68.3901 159.72 67.9821 159.972C67.5861 160.212 67.3881 160.602 67.3881 161.142C67.3881 161.358 67.4241 161.538 67.4961 161.682C67.5801 161.826 67.7121 161.952 67.8921 162.06C68.0721 162.168 68.3001 162.264 68.5761 162.348C68.8641 162.432 69.2061 162.522 69.6021 162.618C70.2261 162.762 70.7661 162.912 71.2221 163.068C71.6901 163.212 72.0741 163.386 72.3741 163.59C72.6861 163.794 72.9141 164.034 73.0581 164.31C73.2141 164.586 73.2921 164.922 73.2921 165.318C73.2921 166.194 72.9561 166.89 72.2841 167.406C71.6121 167.922 70.7061 168.18 69.5661 168.18ZM74.5367 163.284C74.5367 162.624 74.6507 162 74.8787 161.412C75.1067 160.824 75.4307 160.314 75.8507 159.882C76.2707 159.438 76.7687 159.09 77.3447 158.838C77.9327 158.574 78.5867 158.442 79.3067 158.442C80.2427 158.442 81.0467 158.652 81.7187 159.072C82.4027 159.48 82.9187 160.032 83.2667 160.728L81.7187 161.214C81.4787 160.77 81.1427 160.428 80.7107 160.188C80.2787 159.936 79.7987 159.81 79.2707 159.81C78.8387 159.81 78.4307 159.9 78.0467 160.08C77.6627 160.248 77.3327 160.488 77.0567 160.8C76.7807 161.112 76.5587 161.478 76.3907 161.898C76.2347 162.318 76.1567 162.78 76.1567 163.284C76.1567 163.776 76.2407 164.238 76.4087 164.67C76.5767 165.102 76.7987 165.48 77.0747 165.804C77.3627 166.116 77.6927 166.362 78.0647 166.542C78.4487 166.722 78.8567 166.812 79.2887 166.812C79.5647 166.812 79.8347 166.776 80.0987 166.704C80.3747 166.62 80.6207 166.512 80.8367 166.38C81.0647 166.248 81.2627 166.098 81.4307 165.93C81.5987 165.75 81.7187 165.558 81.7907 165.354L83.3387 165.822C83.1947 166.17 82.9907 166.488 82.7267 166.776C82.4747 167.064 82.1747 167.31 81.8267 167.514C81.4787 167.718 81.0887 167.88 80.6567 168C80.2367 168.12 79.7927 168.18 79.3247 168.18C78.6167 168.18 77.9687 168.048 77.3807 167.784C76.7927 167.52 76.2887 167.166 75.8687 166.722C75.4487 166.278 75.1187 165.762 74.8787 165.174C74.6507 164.574 74.5367 163.944 74.5367 163.284ZM90.1015 159.99C89.3095 160.014 88.6075 160.218 87.9955 160.602C87.3955 160.986 86.9695 161.52 86.7175 162.204V168H85.1335V158.604H86.6095V160.782C86.9335 160.134 87.3595 159.612 87.8875 159.216C88.4155 158.808 88.9795 158.58 89.5795 158.532C89.6995 158.532 89.8015 158.532 89.8855 158.532C89.9695 158.532 90.0415 158.538 90.1015 158.55V159.99ZM91.6725 168V158.604H93.2565V168H91.6725ZM91.6725 156.84V154.86H93.2565V156.84H91.6725ZM100.645 168.18C99.913 168.18 99.247 168 98.647 167.64C98.047 167.28 97.573 166.812 97.225 166.236V168H95.821V154.86H97.405V160.476C97.801 159.864 98.287 159.372 98.863 159C99.439 158.628 100.111 158.442 100.879 158.442C101.527 158.442 102.109 158.58 102.625 158.856C103.141 159.132 103.579 159.498 103.939 159.954C104.311 160.398 104.593 160.92 104.785 161.52C104.989 162.108 105.091 162.714 105.091 163.338C105.091 163.998 104.977 164.622 104.749 165.21C104.521 165.798 104.209 166.314 103.813 166.758C103.417 167.19 102.943 167.538 102.391 167.802C101.851 168.054 101.269 168.18 100.645 168.18ZM100.249 166.812C100.717 166.812 101.149 166.716 101.545 166.524C101.941 166.332 102.283 166.074 102.571 165.75C102.859 165.426 103.081 165.06 103.237 164.652C103.393 164.232 103.471 163.794 103.471 163.338C103.471 162.882 103.393 162.444 103.237 162.024C103.093 161.592 102.883 161.214 102.607 160.89C102.343 160.566 102.019 160.308 101.635 160.116C101.263 159.912 100.849 159.81 100.393 159.81C100.057 159.81 99.739 159.87 99.439 159.99C99.139 160.11 98.857 160.272 98.593 160.476C98.341 160.668 98.113 160.896 97.909 161.16C97.717 161.424 97.549 161.706 97.405 162.006V164.724C97.465 165.024 97.591 165.3 97.783 165.552C97.987 165.804 98.221 166.026 98.485 166.218C98.761 166.398 99.049 166.542 99.349 166.65C99.661 166.758 99.961 166.812 100.249 166.812ZM111.194 168.18C110.486 168.18 109.838 168.054 109.25 167.802C108.662 167.538 108.158 167.184 107.738 166.74C107.318 166.296 106.988 165.78 106.748 165.192C106.52 164.592 106.406 163.962 106.406 163.302C106.406 162.642 106.52 162.018 106.748 161.43C106.988 160.842 107.318 160.326 107.738 159.882C108.17 159.438 108.68 159.09 109.268 158.838C109.856 158.574 110.504 158.442 111.212 158.442C111.92 158.442 112.562 158.574 113.138 158.838C113.726 159.102 114.224 159.456 114.632 159.9C115.04 160.332 115.352 160.842 115.568 161.43C115.796 162.006 115.91 162.606 115.91 163.23C115.91 163.362 115.904 163.482 115.892 163.59C115.892 163.698 115.886 163.782 115.874 163.842H108.08C108.116 164.31 108.224 164.736 108.404 165.12C108.584 165.504 108.818 165.834 109.106 166.11C109.394 166.386 109.718 166.602 110.078 166.758C110.45 166.914 110.84 166.992 111.248 166.992C111.536 166.992 111.818 166.956 112.094 166.884C112.37 166.8 112.628 166.692 112.868 166.56C113.108 166.428 113.318 166.266 113.498 166.074C113.69 165.882 113.834 165.666 113.93 165.426L115.298 165.804C115.142 166.152 114.926 166.47 114.65 166.758C114.386 167.046 114.074 167.298 113.714 167.514C113.366 167.718 112.976 167.88 112.544 168C112.112 168.12 111.662 168.18 111.194 168.18ZM114.416 162.672C114.38 162.228 114.266 161.82 114.074 161.448C113.894 161.064 113.66 160.74 113.372 160.476C113.096 160.212 112.772 160.008 112.4 159.864C112.028 159.708 111.632 159.63 111.212 159.63C110.792 159.63 110.396 159.708 110.024 159.864C109.652 160.008 109.322 160.218 109.034 160.494C108.758 160.758 108.53 161.076 108.35 161.448C108.182 161.82 108.08 162.228 108.044 162.672H114.416ZM124.095 158.244V168H122.475V155.22H123.735L131.655 165.174V155.238H133.275V168H131.907L124.095 158.244ZM140.021 168.18C139.313 168.18 138.665 168.048 138.077 167.784C137.501 167.52 137.003 167.166 136.583 166.722C136.175 166.278 135.857 165.762 135.629 165.174C135.401 164.586 135.287 163.968 135.287 163.32C135.287 162.66 135.401 162.036 135.629 161.448C135.869 160.86 136.193 160.344 136.601 159.9C137.021 159.456 137.519 159.102 138.095 158.838C138.683 158.574 139.325 158.442 140.021 158.442C140.717 158.442 141.359 158.574 141.947 158.838C142.535 159.102 143.033 159.456 143.441 159.9C143.861 160.344 144.185 160.86 144.413 161.448C144.653 162.036 144.773 162.66 144.773 163.32C144.773 163.968 144.659 164.586 144.431 165.174C144.203 165.762 143.879 166.278 143.459 166.722C143.039 167.166 142.535 167.52 141.947 167.784C141.371 168.048 140.729 168.18 140.021 168.18ZM136.907 163.338C136.907 163.83 136.985 164.286 137.141 164.706C137.309 165.126 137.531 165.492 137.807 165.804C138.095 166.116 138.425 166.362 138.797 166.542C139.181 166.722 139.589 166.812 140.021 166.812C140.453 166.812 140.855 166.722 141.227 166.542C141.611 166.362 141.947 166.116 142.235 165.804C142.523 165.48 142.745 165.108 142.901 164.688C143.069 164.256 143.153 163.794 143.153 163.302C143.153 162.822 143.069 162.372 142.901 161.952C142.745 161.52 142.523 161.148 142.235 160.836C141.947 160.512 141.611 160.26 141.227 160.08C140.855 159.9 140.453 159.81 140.021 159.81C139.589 159.81 139.181 159.906 138.797 160.098C138.425 160.278 138.095 160.53 137.807 160.854C137.531 161.166 137.309 161.538 137.141 161.97C136.985 162.39 136.907 162.846 136.907 163.338ZM158.148 158.604H159.678L155.682 168H154.368L152.478 163.41L150.606 168H149.292L145.296 158.604H146.808L150.048 166.434L151.632 162.528L150.012 158.622H151.326L152.478 161.628L153.63 158.622H154.944L153.342 162.528L154.926 166.434L158.148 158.604Z" fill="white"/>
</g>
</svg>
