<svg width="191" height="179" viewBox="0 0 191 179" fill="none" xmlns="http://www.w3.org/2000/svg">
<rect width="191" height="179" fill="white"/>
<rect y="145" width="191" height="34" fill="#3F1A8E"/>
<mask id="mask0" mask-type="alpha" maskUnits="userSpaceOnUse" x="0" y="0" width="191" height="179">
<rect width="191" height="179" fill="#C4C4C4"/>
</mask>
<g mask="url(#mask0)">
<path d="M-23.1685 -18.3745L41.0121 -10.4581L-17.5859 46.0511L-23.1685 -18.3745Z" fill="#3F1A8E"/>
<rect x="69" y="54" width="54" height="4" rx="2" fill="#082D72"/>
<path d="M24.36 79.04C24.2 78.8533 23.8933 78.6267 23.44 78.36C23.0133 78.0933 22.4933 77.8267 21.88 77.56C21.2933 77.2667 20.64 77.0133 19.92 76.8C19.2 76.56 18.4533 76.4 17.68 76.32V83.24L18.68 83.48C20.0667 83.8533 21.32 84.2533 22.44 84.68C23.5867 85.1067 24.5467 85.64 25.32 86.28C26.12 86.92 26.7333 87.6933 27.16 88.6C27.5867 89.48 27.8 90.5733 27.8 91.88C27.8 93.3467 27.5333 94.6 27 95.64C26.4933 96.68 25.7867 97.5333 24.88 98.2C24 98.8667 22.96 99.3733 21.76 99.72C20.5867 100.04 19.3467 100.227 18.04 100.28V104.68H15.64V100.24C13.7733 100.107 11.9467 99.7333 10.16 99.12C8.4 98.48 6.8 97.6533 5.36 96.64L7.8 91.88C8.01333 92.0933 8.37333 92.3733 8.88 92.72C9.41333 93.0667 10.04 93.4133 10.76 93.76C11.5067 94.08 12.32 94.3867 13.2 94.68C14.1067 94.9733 15.04 95.1733 16 95.28V88.4C15.76 88.3467 15.52 88.2933 15.28 88.24C15.04 88.16 14.8 88.08 14.56 88C13.2 87.6267 12.0133 87.2267 11 86.8C10.0133 86.3467 9.18667 85.8267 8.52 85.24C7.85333 84.6267 7.34667 83.9333 7 83.16C6.68 82.36 6.52 81.4133 6.52 80.32C6.52 78.9867 6.74667 77.8 7.2 76.76C7.68 75.6933 8.32 74.7867 9.12 74.04C9.94667 73.2933 10.92 72.7067 12.04 72.28C13.16 71.8533 14.36 71.5867 15.64 71.48V67.4H18.04V71.44C19.8 71.5733 21.4133 71.9333 22.88 72.52C24.3733 73.1067 25.68 73.7867 26.8 74.56L24.36 79.04ZM21.92 92.44C21.92 91.5333 21.5467 90.8267 20.8 90.32C20.0533 89.8133 19.0133 89.3467 17.68 88.92V95.36C20.5067 95.28 21.92 94.3067 21.92 92.44ZM12.2 79.44C12.2 80.3467 12.5067 81.04 13.12 81.52C13.76 81.9733 14.72 82.3867 16 82.76V76.28C13.4667 76.44 12.2 77.4933 12.2 79.44ZM48.1516 95.16V100H31.9116V95.16H37.5916V83.04C37.3516 83.36 36.9649 83.6933 36.4316 84.04C35.9249 84.36 35.3649 84.6667 34.7516 84.96C34.1382 85.2533 33.4982 85.4933 32.8316 85.68C32.1916 85.8667 31.6182 85.96 31.1116 85.96V80.96C31.5916 80.96 32.1782 80.8133 32.8716 80.52C33.5649 80.2 34.2449 79.8267 34.9116 79.4C35.5782 78.9733 36.1516 78.56 36.6316 78.16C37.1382 77.7333 37.4582 77.4 37.5916 77.16H43.0716V95.16H48.1516ZM50.6372 100C50.6372 98.8 50.7305 97.72 50.9172 96.76C51.1039 95.7733 51.4239 94.8667 51.8772 94.04C52.3572 93.2133 52.9972 92.44 53.7972 91.72C54.6239 91 55.6639 90.2933 56.9172 89.6C58.0105 89.0133 58.9705 88.5067 59.7972 88.08C60.6505 87.6267 61.3572 87.2133 61.9172 86.84C62.4772 86.4667 62.9039 86.0933 63.1972 85.72C63.4905 85.32 63.6372 84.8667 63.6372 84.36C63.6372 83.56 63.3172 82.88 62.6772 82.32C62.0372 81.7333 61.1172 81.44 59.9172 81.44C59.2772 81.44 58.6905 81.5333 58.1572 81.72C57.6239 81.88 57.1172 82.1067 56.6372 82.4C56.1839 82.6933 55.7572 83.0267 55.3572 83.4C54.9839 83.7467 54.6372 84.12 54.3172 84.52L50.8772 80.56C51.2239 80.1867 51.7172 79.7867 52.3572 79.36C52.9972 78.9067 53.7439 78.4933 54.5972 78.12C55.4772 77.72 56.4372 77.4 57.4772 77.16C58.5439 76.8933 59.6772 76.76 60.8772 76.76C62.2372 76.76 63.4505 76.9333 64.5172 77.28C65.5839 77.6 66.4772 78.0667 67.1972 78.68C67.9439 79.2667 68.5039 79.9867 68.8772 80.84C69.2772 81.6667 69.4772 82.5733 69.4772 83.56C69.4772 84.4933 69.3039 85.32 68.9572 86.04C68.6105 86.76 68.1705 87.4 67.6372 87.96C67.1039 88.52 66.5172 89.0133 65.8772 89.44C65.2639 89.84 64.6639 90.2 64.0772 90.52C63.5972 90.7867 63.0505 91.0933 62.4372 91.44C61.8239 91.7867 61.2105 92.1733 60.5972 92.6C60.0105 93 59.4639 93.4267 58.9572 93.88C58.4505 94.3067 58.0639 94.7333 57.7972 95.16H69.9172V100H50.6372ZM94.2953 88.28C94.2953 90.04 94.0286 91.6667 93.4953 93.16C92.9886 94.6267 92.2686 95.9067 91.3353 97C90.4286 98.0667 89.3353 98.9067 88.0553 99.52C86.802 100.107 85.442 100.4 83.9753 100.4C82.482 100.4 81.1086 100.107 79.8553 99.52C78.602 98.9067 77.5086 98.0667 76.5753 97C75.6686 95.9067 74.9486 94.6267 74.4153 93.16C73.9086 91.6667 73.6553 90.04 73.6553 88.28C73.6553 86.52 73.9086 84.9067 74.4153 83.44C74.9486 81.9467 75.6686 80.6667 76.5753 79.6C77.5086 78.5067 78.602 77.6533 79.8553 77.04C81.1086 76.4267 82.482 76.12 83.9753 76.12C85.442 76.12 86.802 76.4267 88.0553 77.04C89.3353 77.6533 90.4286 78.5067 91.3353 79.6C92.2686 80.6667 92.9886 81.9467 93.4953 83.44C94.0286 84.9067 94.2953 86.52 94.2953 88.28ZM88.8953 88.28C88.8953 87.2133 88.7753 86.24 88.5353 85.36C88.2953 84.4533 87.9486 83.68 87.4953 83.04C87.0686 82.4 86.5486 81.9067 85.9353 81.56C85.3486 81.2133 84.6953 81.04 83.9753 81.04C83.2286 81.04 82.5486 81.2133 81.9353 81.56C81.3486 81.9067 80.8286 82.4 80.3753 83.04C79.9486 83.68 79.6153 84.4533 79.3753 85.36C79.1353 86.24 79.0153 87.2133 79.0153 88.28C79.0153 89.3467 79.1353 90.32 79.3753 91.2C79.6153 92.08 79.9486 92.84 80.3753 93.48C80.8286 94.12 81.3486 94.6133 81.9353 94.96C82.5486 95.3067 83.2286 95.48 83.9753 95.48C84.6953 95.48 85.3486 95.3067 85.9353 94.96C86.5486 94.6133 87.0686 94.12 87.4953 93.48C87.9486 92.84 88.2953 92.08 88.5353 91.2C88.7753 90.32 88.8953 89.3467 88.8953 88.28ZM123.106 71.6L103.266 100H97.3456L117.146 71.6H123.106ZM135.535 95.26C135.535 95.9533 135.402 96.6 135.135 97.2C134.869 97.8 134.502 98.3267 134.035 98.78C133.569 99.22 133.015 99.5667 132.375 99.82C131.749 100.073 131.069 100.2 130.335 100.2C129.535 100.2 128.809 100.053 128.155 99.76C127.515 99.4667 126.969 99.04 126.515 98.48C126.062 97.92 125.715 97.24 125.475 96.44C125.235 95.6267 125.115 94.7067 125.115 93.68C125.115 92.3867 125.242 91.2467 125.495 90.26C125.749 89.26 126.115 88.4267 126.595 87.76C127.075 87.08 127.655 86.5667 128.335 86.22C129.015 85.8733 129.775 85.7 130.615 85.7C131.509 85.7 132.329 85.8933 133.075 86.28C133.835 86.6667 134.475 87.22 134.995 87.94L133.455 89.62C133.135 89.1133 132.722 88.72 132.215 88.44C131.709 88.16 131.162 88.02 130.575 88.02C129.682 88.02 128.969 88.3733 128.435 89.08C127.902 89.7867 127.622 90.7867 127.595 92.08C127.875 91.6 128.269 91.22 128.775 90.94C129.295 90.66 129.895 90.52 130.575 90.52C131.269 90.52 131.915 90.64 132.515 90.88C133.129 91.12 133.655 91.4533 134.095 91.88C134.549 92.3067 134.902 92.8133 135.155 93.4C135.409 93.9733 135.535 94.5933 135.535 95.26ZM130.355 97.94C130.702 97.94 131.035 97.8733 131.355 97.74C131.675 97.5933 131.955 97.4 132.195 97.16C132.435 96.9067 132.622 96.62 132.755 96.3C132.902 95.9667 132.975 95.62 132.975 95.26C132.975 94.9 132.902 94.5667 132.755 94.26C132.622 93.94 132.435 93.66 132.195 93.42C131.955 93.18 131.675 92.9933 131.355 92.86C131.049 92.7267 130.715 92.66 130.355 92.66C129.995 92.66 129.655 92.7267 129.335 92.86C129.015 92.9933 128.735 93.18 128.495 93.42C128.255 93.66 128.069 93.94 127.935 94.26C127.802 94.5667 127.735 94.9 127.735 95.26C127.735 95.62 127.802 95.9667 127.935 96.3C128.082 96.62 128.275 96.9 128.515 97.14C128.755 97.38 129.029 97.5733 129.335 97.72C129.655 97.8667 129.995 97.94 130.355 97.94ZM158.648 100H155.968V94.12C155.968 93.28 155.822 92.6667 155.528 92.28C155.248 91.8933 154.855 91.7 154.348 91.7C153.815 91.7 153.315 91.9067 152.848 92.32C152.382 92.72 152.048 93.2467 151.848 93.9V100H149.168V94.12C149.168 93.28 149.022 92.6667 148.728 92.28C148.448 91.8933 148.055 91.7 147.548 91.7C147.028 91.7 146.528 91.9 146.048 92.3C145.582 92.7 145.248 93.2267 145.048 93.88V100H142.368V89.52H144.788V91.46C145.175 90.78 145.702 90.26 146.368 89.9C147.048 89.5267 147.822 89.34 148.688 89.34C149.568 89.34 150.248 89.5533 150.728 89.98C151.208 90.4067 151.515 90.9333 151.648 91.56C152.075 90.84 152.615 90.2933 153.268 89.92C153.922 89.5333 154.668 89.34 155.508 89.34C156.148 89.34 156.675 89.46 157.088 89.7C157.502 89.94 157.822 90.2533 158.048 90.64C158.275 91.0267 158.428 91.4667 158.508 91.96C158.602 92.4533 158.648 92.9533 158.648 93.46V100ZM167.164 99.46C166.804 99.62 166.364 99.78 165.844 99.94C165.324 100.1 164.777 100.18 164.204 100.18C163.831 100.18 163.477 100.133 163.144 100.04C162.824 99.9467 162.537 99.8 162.284 99.6C162.044 99.3867 161.851 99.12 161.704 98.8C161.557 98.4667 161.484 98.0667 161.484 97.6V91.58H160.104V89.52H161.484V86.12H164.164V89.52H166.364V91.58H164.164V96.7C164.164 97.0733 164.257 97.34 164.444 97.5C164.644 97.6467 164.884 97.72 165.164 97.72C165.444 97.72 165.717 97.6733 165.984 97.58C166.251 97.4867 166.464 97.4067 166.624 97.34L167.164 99.46ZM178.3 100H175.62V94.12C175.62 93.2933 175.467 92.6867 175.16 92.3C174.853 91.9 174.42 91.7 173.86 91.7C173.62 91.7 173.367 91.7533 173.1 91.86C172.833 91.9667 172.58 92.12 172.34 92.32C172.1 92.5067 171.88 92.7333 171.68 93C171.48 93.2667 171.333 93.56 171.24 93.88V100H168.56V85.4H171.24V91.46C171.627 90.78 172.147 90.26 172.8 89.9C173.467 89.5267 174.2 89.34 175 89.34C175.68 89.34 176.233 89.46 176.66 89.7C177.087 89.9267 177.42 90.2333 177.66 90.62C177.9 91.0067 178.067 91.4467 178.16 91.94C178.253 92.4333 178.3 92.94 178.3 93.46V100Z" fill="black"/>
<path d="M45.776 37V19.96H53C53.784 19.96 54.504 20.128 55.16 20.464C55.832 20.784 56.408 21.216 56.888 21.76C57.368 22.288 57.744 22.896 58.016 23.584C58.288 24.256 58.424 24.936 58.424 25.624C58.424 26.344 58.296 27.048 58.04 27.736C57.784 28.408 57.424 29.008 56.96 29.536C56.496 30.064 55.936 30.488 55.28 30.808C54.624 31.128 53.904 31.288 53.12 31.288H49.088V37H45.776ZM49.088 28.384H52.928C53.536 28.384 54.04 28.136 54.44 27.64C54.856 27.144 55.064 26.472 55.064 25.624C55.064 25.192 55 24.808 54.872 24.472C54.744 24.12 54.576 23.824 54.368 23.584C54.16 23.344 53.912 23.168 53.624 23.056C53.352 22.928 53.072 22.864 52.784 22.864H49.088V28.384ZM67.9051 27.208C66.9291 27.224 66.0571 27.416 65.2891 27.784C64.5211 28.136 63.9691 28.672 63.6331 29.392V37H60.4171V24.424H63.3691V27.112C63.5931 26.68 63.8571 26.296 64.1611 25.96C64.4651 25.608 64.7931 25.304 65.1451 25.048C65.4971 24.792 65.8491 24.6 66.2011 24.472C66.5691 24.328 66.9211 24.256 67.2571 24.256C67.4331 24.256 67.5611 24.256 67.6411 24.256C67.7371 24.256 67.8251 24.264 67.9051 24.28V27.208ZM74.8976 37.24C73.8896 37.24 72.9776 37.072 72.1616 36.736C71.3456 36.384 70.6496 35.912 70.0736 35.32C69.4976 34.728 69.0496 34.04 68.7296 33.256C68.4256 32.472 68.2736 31.648 68.2736 30.784C68.2736 29.888 68.4256 29.048 68.7296 28.264C69.0336 27.464 69.4736 26.768 70.0496 26.176C70.6256 25.568 71.3216 25.088 72.1376 24.736C72.9696 24.384 73.8976 24.208 74.9216 24.208C75.9456 24.208 76.8576 24.384 77.6576 24.736C78.4736 25.088 79.1616 25.56 79.7216 26.152C80.2976 26.744 80.7296 27.432 81.0176 28.216C81.3216 29 81.4736 29.816 81.4736 30.664C81.4736 30.872 81.4656 31.072 81.4496 31.264C81.4496 31.456 81.4336 31.616 81.4016 31.744H71.6816C71.7296 32.24 71.8496 32.68 72.0416 33.064C72.2336 33.448 72.4816 33.776 72.7856 34.048C73.0896 34.32 73.4336 34.528 73.8176 34.672C74.2016 34.816 74.6016 34.888 75.0176 34.888C75.6576 34.888 76.2576 34.736 76.8176 34.432C77.3936 34.112 77.7856 33.696 77.9936 33.184L80.7536 33.952C80.2896 34.912 79.5456 35.704 78.5216 36.328C77.5136 36.936 76.3056 37.24 74.8976 37.24ZM78.1616 29.656C78.0816 28.712 77.7296 27.96 77.1056 27.4C76.4976 26.824 75.7536 26.536 74.8736 26.536C74.4416 26.536 74.0336 26.616 73.6496 26.776C73.2816 26.92 72.9536 27.128 72.6656 27.4C72.3776 27.672 72.1376 28 71.9456 28.384C71.7696 28.768 71.6656 29.192 71.6336 29.656H78.1616ZM102.969 37H99.7528V29.944C99.7528 28.936 99.5768 28.2 99.2248 27.736C98.8888 27.272 98.4168 27.04 97.8088 27.04C97.1688 27.04 96.5688 27.288 96.0088 27.784C95.4488 28.264 95.0488 28.896 94.8088 29.68V37H91.5928V29.944C91.5928 28.936 91.4168 28.2 91.0648 27.736C90.7288 27.272 90.2568 27.04 89.6488 27.04C89.0248 27.04 88.4248 27.28 87.8488 27.76C87.2888 28.24 86.8888 28.872 86.6488 29.656V37H83.4328V24.424H86.3368V26.752C86.8008 25.936 87.4328 25.312 88.2328 24.88C89.0488 24.432 89.9768 24.208 91.0168 24.208C92.0728 24.208 92.8888 24.464 93.4648 24.976C94.0408 25.488 94.4088 26.12 94.5688 26.872C95.0808 26.008 95.7288 25.352 96.5128 24.904C97.2968 24.44 98.1928 24.208 99.2008 24.208C99.9688 24.208 100.601 24.352 101.097 24.64C101.593 24.928 101.977 25.304 102.249 25.768C102.521 26.232 102.705 26.76 102.801 27.352C102.913 27.944 102.969 28.544 102.969 29.152V37ZM105.769 37V24.424H108.985V37H105.769ZM105.769 22.672V19.48H108.985V22.672H105.769ZM115.726 37.24C114.43 37.24 113.446 36.824 112.774 35.992C112.102 35.16 111.766 33.928 111.766 32.296V24.424H114.982V31.6C114.982 33.536 115.678 34.504 117.07 34.504C117.694 34.504 118.294 34.32 118.87 33.952C119.462 33.568 119.942 32.992 120.31 32.224V24.424H123.526V33.304C123.526 33.64 123.582 33.88 123.694 34.024C123.822 34.168 124.022 34.248 124.294 34.264V37C123.974 37.064 123.702 37.104 123.478 37.12C123.27 37.136 123.078 37.144 122.902 37.144C122.326 37.144 121.854 37.016 121.486 36.76C121.134 36.488 120.926 36.12 120.862 35.656L120.79 34.648C120.23 35.512 119.51 36.16 118.63 36.592C117.75 37.024 116.782 37.24 115.726 37.24ZM146.258 37H143.042V29.944C143.042 28.936 142.866 28.2 142.514 27.736C142.178 27.272 141.706 27.04 141.098 27.04C140.458 27.04 139.858 27.288 139.298 27.784C138.738 28.264 138.338 28.896 138.098 29.68V37H134.882V29.944C134.882 28.936 134.706 28.2 134.354 27.736C134.018 27.272 133.546 27.04 132.938 27.04C132.314 27.04 131.714 27.28 131.138 27.76C130.578 28.24 130.178 28.872 129.938 29.656V37H126.722V24.424H129.626V26.752C130.09 25.936 130.722 25.312 131.522 24.88C132.338 24.432 133.266 24.208 134.306 24.208C135.362 24.208 136.178 24.464 136.754 24.976C137.33 25.488 137.698 26.12 137.858 26.872C138.37 26.008 139.018 25.352 139.802 24.904C140.586 24.44 141.482 24.208 142.49 24.208C143.258 24.208 143.89 24.352 144.386 24.64C144.882 24.928 145.266 25.304 145.538 25.768C145.81 26.232 145.994 26.76 146.09 27.352C146.202 27.944 146.258 28.544 146.258 29.152V37Z" fill="black"/>
<path d="M41.036 157.902C40.892 157.734 40.7 157.572 40.46 157.416C40.22 157.26 39.95 157.122 39.65 157.002C39.35 156.87 39.02 156.768 38.66 156.696C38.312 156.612 37.946 156.57 37.562 156.57C36.566 156.57 35.834 156.756 35.366 157.128C34.91 157.5 34.682 158.01 34.682 158.658C34.682 159.006 34.748 159.294 34.88 159.522C35.012 159.75 35.216 159.948 35.492 160.116C35.78 160.272 36.134 160.41 36.554 160.53C36.974 160.65 37.472 160.776 38.048 160.908C38.708 161.052 39.302 161.22 39.83 161.412C40.37 161.592 40.826 161.82 41.198 162.096C41.582 162.372 41.87 162.708 42.062 163.104C42.266 163.5 42.368 163.986 42.368 164.562C42.368 165.174 42.248 165.708 42.008 166.164C41.768 166.608 41.438 166.98 41.018 167.28C40.61 167.568 40.124 167.784 39.56 167.928C38.996 168.06 38.384 168.126 37.724 168.126C36.74 168.126 35.804 167.976 34.916 167.676C34.04 167.364 33.242 166.914 32.522 166.326L33.296 164.958C33.488 165.162 33.734 165.366 34.034 165.57C34.346 165.774 34.694 165.96 35.078 166.128C35.474 166.284 35.894 166.416 36.338 166.524C36.794 166.62 37.268 166.668 37.76 166.668C38.672 166.668 39.38 166.506 39.884 166.182C40.388 165.858 40.64 165.372 40.64 164.724C40.64 164.364 40.556 164.064 40.388 163.824C40.232 163.572 39.998 163.356 39.686 163.176C39.374 162.996 38.984 162.84 38.516 162.708C38.06 162.564 37.538 162.42 36.95 162.276C36.302 162.12 35.732 161.952 35.24 161.772C34.748 161.592 34.334 161.376 33.998 161.124C33.674 160.872 33.428 160.566 33.26 160.206C33.092 159.846 33.008 159.414 33.008 158.91C33.008 158.298 33.122 157.758 33.35 157.29C33.578 156.822 33.896 156.426 34.304 156.102C34.712 155.778 35.198 155.538 35.762 155.382C36.326 155.214 36.938 155.13 37.598 155.13C38.462 155.13 39.242 155.262 39.938 155.526C40.634 155.79 41.252 156.144 41.792 156.588L41.036 157.902ZM47.1448 168.18C46.1608 168.18 45.4168 167.85 44.9128 167.19C44.4088 166.53 44.1567 165.546 44.1567 164.238V158.604H45.7408V163.932C45.7408 165.852 46.4068 166.812 47.7388 166.812C48.3868 166.812 48.9928 166.608 49.5568 166.2C50.1328 165.78 50.5588 165.21 50.8348 164.49V158.604H52.4188V166.056C52.4188 166.428 52.5868 166.62 52.9228 166.632V168C52.7428 168.024 52.5988 168.036 52.4908 168.036C52.3948 168.048 52.2988 168.054 52.2028 168.054C51.8908 168.054 51.6268 167.964 51.4108 167.784C51.2068 167.592 51.0988 167.358 51.0868 167.082L51.0508 165.984C50.6308 166.692 50.0788 167.238 49.3948 167.622C48.7108 167.994 47.9608 168.18 47.1448 168.18ZM59.8813 168.18C59.1493 168.18 58.4833 168 57.8833 167.64C57.2833 167.28 56.8093 166.812 56.4613 166.236V168H55.0573V154.86H56.6413V160.476C57.0373 159.864 57.5233 159.372 58.0993 159C58.6753 158.628 59.3473 158.442 60.1153 158.442C60.7633 158.442 61.3453 158.58 61.8613 158.856C62.3773 159.132 62.8153 159.498 63.1753 159.954C63.5473 160.398 63.8293 160.92 64.0213 161.52C64.2253 162.108 64.3273 162.714 64.3273 163.338C64.3273 163.998 64.2133 164.622 63.9853 165.21C63.7573 165.798 63.4453 166.314 63.0493 166.758C62.6533 167.19 62.1793 167.538 61.6273 167.802C61.0873 168.054 60.5053 168.18 59.8813 168.18ZM59.4853 166.812C59.9533 166.812 60.3853 166.716 60.7813 166.524C61.1773 166.332 61.5193 166.074 61.8073 165.75C62.0953 165.426 62.3173 165.06 62.4733 164.652C62.6293 164.232 62.7073 163.794 62.7073 163.338C62.7073 162.882 62.6293 162.444 62.4733 162.024C62.3293 161.592 62.1193 161.214 61.8433 160.89C61.5793 160.566 61.2553 160.308 60.8713 160.116C60.4993 159.912 60.0853 159.81 59.6293 159.81C59.2933 159.81 58.9753 159.87 58.6753 159.99C58.3753 160.11 58.0933 160.272 57.8293 160.476C57.5773 160.668 57.3493 160.896 57.1453 161.16C56.9533 161.424 56.7853 161.706 56.6413 162.006V164.724C56.7013 165.024 56.8273 165.3 57.0193 165.552C57.2233 165.804 57.4573 166.026 57.7213 166.218C57.9973 166.398 58.2853 166.542 58.5853 166.65C58.8973 166.758 59.1973 166.812 59.4853 166.812ZM69.5661 168.18C68.8101 168.18 68.0661 168.066 67.3341 167.838C66.6021 167.598 65.9721 167.256 65.4441 166.812L66.1281 165.75C66.6801 166.17 67.2321 166.488 67.7841 166.704C68.3361 166.908 68.9181 167.01 69.5301 167.01C70.2141 167.01 70.7541 166.878 71.1501 166.614C71.5581 166.338 71.7621 165.954 71.7621 165.462C71.7621 165.234 71.7081 165.042 71.6001 164.886C71.4921 164.718 71.3301 164.574 71.1141 164.454C70.8981 164.334 70.6221 164.226 70.2861 164.13C69.9501 164.034 69.5601 163.932 69.1161 163.824C68.5521 163.68 68.0661 163.542 67.6581 163.41C67.2501 163.278 66.9141 163.122 66.6501 162.942C66.3861 162.762 66.1941 162.546 66.0741 162.294C65.9541 162.042 65.8941 161.73 65.8941 161.358C65.8941 160.89 65.9841 160.476 66.1641 160.116C66.3561 159.744 66.6141 159.438 66.9381 159.198C67.2621 158.946 67.6401 158.76 68.0721 158.64C68.5161 158.508 68.9901 158.442 69.4941 158.442C70.2021 158.442 70.8621 158.556 71.4741 158.784C72.0861 159.012 72.6021 159.312 73.0221 159.684L72.3021 160.638C71.9061 160.29 71.4621 160.032 70.9701 159.864C70.4781 159.684 69.9741 159.594 69.4581 159.594C68.8821 159.594 68.3901 159.72 67.9821 159.972C67.5861 160.212 67.3881 160.602 67.3881 161.142C67.3881 161.358 67.4241 161.538 67.4961 161.682C67.5801 161.826 67.7121 161.952 67.8921 162.06C68.0721 162.168 68.3001 162.264 68.5761 162.348C68.8641 162.432 69.2061 162.522 69.6021 162.618C70.2261 162.762 70.7661 162.912 71.2221 163.068C71.6901 163.212 72.0741 163.386 72.3741 163.59C72.6861 163.794 72.9141 164.034 73.0581 164.31C73.2141 164.586 73.2921 164.922 73.2921 165.318C73.2921 166.194 72.9561 166.89 72.2841 167.406C71.6121 167.922 70.7061 168.18 69.5661 168.18ZM74.5367 163.284C74.5367 162.624 74.6507 162 74.8787 161.412C75.1067 160.824 75.4307 160.314 75.8507 159.882C76.2707 159.438 76.7687 159.09 77.3447 158.838C77.9327 158.574 78.5867 158.442 79.3067 158.442C80.2427 158.442 81.0467 158.652 81.7187 159.072C82.4027 159.48 82.9187 160.032 83.2667 160.728L81.7187 161.214C81.4787 160.77 81.1427 160.428 80.7107 160.188C80.2787 159.936 79.7987 159.81 79.2707 159.81C78.8387 159.81 78.4307 159.9 78.0467 160.08C77.6627 160.248 77.3327 160.488 77.0567 160.8C76.7807 161.112 76.5587 161.478 76.3907 161.898C76.2347 162.318 76.1567 162.78 76.1567 163.284C76.1567 163.776 76.2407 164.238 76.4087 164.67C76.5767 165.102 76.7987 165.48 77.0747 165.804C77.3627 166.116 77.6927 166.362 78.0647 166.542C78.4487 166.722 78.8567 166.812 79.2887 166.812C79.5647 166.812 79.8347 166.776 80.0987 166.704C80.3747 166.62 80.6207 166.512 80.8367 166.38C81.0647 166.248 81.2627 166.098 81.4307 165.93C81.5987 165.75 81.7187 165.558 81.7907 165.354L83.3387 165.822C83.1947 166.17 82.9907 166.488 82.7267 166.776C82.4747 167.064 82.1747 167.31 81.8267 167.514C81.4787 167.718 81.0887 167.88 80.6567 168C80.2367 168.12 79.7927 168.18 79.3247 168.18C78.6167 168.18 77.9687 168.048 77.3807 167.784C76.7927 167.52 76.2887 167.166 75.8687 166.722C75.4487 166.278 75.1187 165.762 74.8787 165.174C74.6507 164.574 74.5367 163.944 74.5367 163.284ZM90.1015 159.99C89.3095 160.014 88.6075 160.218 87.9955 160.602C87.3955 160.986 86.9695 161.52 86.7175 162.204V168H85.1335V158.604H86.6095V160.782C86.9335 160.134 87.3595 159.612 87.8875 159.216C88.4155 158.808 88.9795 158.58 89.5795 158.532C89.6995 158.532 89.8015 158.532 89.8855 158.532C89.9695 158.532 90.0415 158.538 90.1015 158.55V159.99ZM91.6725 168V158.604H93.2565V168H91.6725ZM91.6725 156.84V154.86H93.2565V156.84H91.6725ZM100.645 168.18C99.913 168.18 99.247 168 98.647 167.64C98.047 167.28 97.573 166.812 97.225 166.236V168H95.821V154.86H97.405V160.476C97.801 159.864 98.287 159.372 98.863 159C99.439 158.628 100.111 158.442 100.879 158.442C101.527 158.442 102.109 158.58 102.625 158.856C103.141 159.132 103.579 159.498 103.939 159.954C104.311 160.398 104.593 160.92 104.785 161.52C104.989 162.108 105.091 162.714 105.091 163.338C105.091 163.998 104.977 164.622 104.749 165.21C104.521 165.798 104.209 166.314 103.813 166.758C103.417 167.19 102.943 167.538 102.391 167.802C101.851 168.054 101.269 168.18 100.645 168.18ZM100.249 166.812C100.717 166.812 101.149 166.716 101.545 166.524C101.941 166.332 102.283 166.074 102.571 165.75C102.859 165.426 103.081 165.06 103.237 164.652C103.393 164.232 103.471 163.794 103.471 163.338C103.471 162.882 103.393 162.444 103.237 162.024C103.093 161.592 102.883 161.214 102.607 160.89C102.343 160.566 102.019 160.308 101.635 160.116C101.263 159.912 100.849 159.81 100.393 159.81C100.057 159.81 99.739 159.87 99.439 159.99C99.139 160.11 98.857 160.272 98.593 160.476C98.341 160.668 98.113 160.896 97.909 161.16C97.717 161.424 97.549 161.706 97.405 162.006V164.724C97.465 165.024 97.591 165.3 97.783 165.552C97.987 165.804 98.221 166.026 98.485 166.218C98.761 166.398 99.049 166.542 99.349 166.65C99.661 166.758 99.961 166.812 100.249 166.812ZM111.194 168.18C110.486 168.18 109.838 168.054 109.25 167.802C108.662 167.538 108.158 167.184 107.738 166.74C107.318 166.296 106.988 165.78 106.748 165.192C106.52 164.592 106.406 163.962 106.406 163.302C106.406 162.642 106.52 162.018 106.748 161.43C106.988 160.842 107.318 160.326 107.738 159.882C108.17 159.438 108.68 159.09 109.268 158.838C109.856 158.574 110.504 158.442 111.212 158.442C111.92 158.442 112.562 158.574 113.138 158.838C113.726 159.102 114.224 159.456 114.632 159.9C115.04 160.332 115.352 160.842 115.568 161.43C115.796 162.006 115.91 162.606 115.91 163.23C115.91 163.362 115.904 163.482 115.892 163.59C115.892 163.698 115.886 163.782 115.874 163.842H108.08C108.116 164.31 108.224 164.736 108.404 165.12C108.584 165.504 108.818 165.834 109.106 166.11C109.394 166.386 109.718 166.602 110.078 166.758C110.45 166.914 110.84 166.992 111.248 166.992C111.536 166.992 111.818 166.956 112.094 166.884C112.37 166.8 112.628 166.692 112.868 166.56C113.108 166.428 113.318 166.266 113.498 166.074C113.69 165.882 113.834 165.666 113.93 165.426L115.298 165.804C115.142 166.152 114.926 166.47 114.65 166.758C114.386 167.046 114.074 167.298 113.714 167.514C113.366 167.718 112.976 167.88 112.544 168C112.112 168.12 111.662 168.18 111.194 168.18ZM114.416 162.672C114.38 162.228 114.266 161.82 114.074 161.448C113.894 161.064 113.66 160.74 113.372 160.476C113.096 160.212 112.772 160.008 112.4 159.864C112.028 159.708 111.632 159.63 111.212 159.63C110.792 159.63 110.396 159.708 110.024 159.864C109.652 160.008 109.322 160.218 109.034 160.494C108.758 160.758 108.53 161.076 108.35 161.448C108.182 161.82 108.08 162.228 108.044 162.672H114.416ZM124.095 158.244V168H122.475V155.22H123.735L131.655 165.174V155.238H133.275V168H131.907L124.095 158.244ZM140.021 168.18C139.313 168.18 138.665 168.048 138.077 167.784C137.501 167.52 137.003 167.166 136.583 166.722C136.175 166.278 135.857 165.762 135.629 165.174C135.401 164.586 135.287 163.968 135.287 163.32C135.287 162.66 135.401 162.036 135.629 161.448C135.869 160.86 136.193 160.344 136.601 159.9C137.021 159.456 137.519 159.102 138.095 158.838C138.683 158.574 139.325 158.442 140.021 158.442C140.717 158.442 141.359 158.574 141.947 158.838C142.535 159.102 143.033 159.456 143.441 159.9C143.861 160.344 144.185 160.86 144.413 161.448C144.653 162.036 144.773 162.66 144.773 163.32C144.773 163.968 144.659 164.586 144.431 165.174C144.203 165.762 143.879 166.278 143.459 166.722C143.039 167.166 142.535 167.52 141.947 167.784C141.371 168.048 140.729 168.18 140.021 168.18ZM136.907 163.338C136.907 163.83 136.985 164.286 137.141 164.706C137.309 165.126 137.531 165.492 137.807 165.804C138.095 166.116 138.425 166.362 138.797 166.542C139.181 166.722 139.589 166.812 140.021 166.812C140.453 166.812 140.855 166.722 141.227 166.542C141.611 166.362 141.947 166.116 142.235 165.804C142.523 165.48 142.745 165.108 142.901 164.688C143.069 164.256 143.153 163.794 143.153 163.302C143.153 162.822 143.069 162.372 142.901 161.952C142.745 161.52 142.523 161.148 142.235 160.836C141.947 160.512 141.611 160.26 141.227 160.08C140.855 159.9 140.453 159.81 140.021 159.81C139.589 159.81 139.181 159.906 138.797 160.098C138.425 160.278 138.095 160.53 137.807 160.854C137.531 161.166 137.309 161.538 137.141 161.97C136.985 162.39 136.907 162.846 136.907 163.338ZM158.148 158.604H159.678L155.682 168H154.368L152.478 163.41L150.606 168H149.292L145.296 158.604H146.808L150.048 166.434L151.632 162.528L150.012 158.622H151.326L152.478 161.628L153.63 158.622H154.944L153.342 162.528L154.926 166.434L158.148 158.604Z" fill="white"/>
</g>
</svg>
