<svg width="191" height="179" viewBox="0 0 191 179" fill="none" xmlns="http://www.w3.org/2000/svg">
<rect width="191" height="179" fill="white"/>
<rect y="145" width="191" height="34" fill="#3F1A8E"/>
<mask id="mask0" mask-type="alpha" maskUnits="userSpaceOnUse" x="0" y="0" width="191" height="179">
<rect width="191" height="179" fill="#C4C4C4"/>
</mask>
<g mask="url(#mask0)">
<path d="M-23.1685 -18.3745L41.0121 -10.4581L-17.5859 46.0511L-23.1685 -18.3745Z" fill="#3F1A8E"/>
<rect x="69" y="54" width="54" height="4" rx="2" fill="#082D72"/>
<path d="M24.36 79.04C24.2 78.8533 23.8933 78.6267 23.44 78.36C23.0133 78.0933 22.4933 77.8267 21.88 77.56C21.2933 77.2667 20.64 77.0133 19.92 76.8C19.2 76.56 18.4533 76.4 17.68 76.32V83.24L18.68 83.48C20.0667 83.8533 21.32 84.2533 22.44 84.68C23.5867 85.1067 24.5467 85.64 25.32 86.28C26.12 86.92 26.7333 87.6933 27.16 88.6C27.5867 89.48 27.8 90.5733 27.8 91.88C27.8 93.3467 27.5333 94.6 27 95.64C26.4933 96.68 25.7867 97.5333 24.88 98.2C24 98.8667 22.96 99.3733 21.76 99.72C20.5867 100.04 19.3467 100.227 18.04 100.28V104.68H15.64V100.24C13.7733 100.107 11.9467 99.7333 10.16 99.12C8.4 98.48 6.8 97.6533 5.36 96.64L7.8 91.88C8.01333 92.0933 8.37333 92.3733 8.88 92.72C9.41333 93.0667 10.04 93.4133 10.76 93.76C11.5067 94.08 12.32 94.3867 13.2 94.68C14.1067 94.9733 15.04 95.1733 16 95.28V88.4C15.76 88.3467 15.52 88.2933 15.28 88.24C15.04 88.16 14.8 88.08 14.56 88C13.2 87.6267 12.0133 87.2267 11 86.8C10.0133 86.3467 9.18667 85.8267 8.52 85.24C7.85333 84.6267 7.34667 83.9333 7 83.16C6.68 82.36 6.52 81.4133 6.52 80.32C6.52 78.9867 6.74667 77.8 7.2 76.76C7.68 75.6933 8.32 74.7867 9.12 74.04C9.94667 73.2933 10.92 72.7067 12.04 72.28C13.16 71.8533 14.36 71.5867 15.64 71.48V67.4H18.04V71.44C19.8 71.5733 21.4133 71.9333 22.88 72.52C24.3733 73.1067 25.68 73.7867 26.8 74.56L24.36 79.04ZM21.92 92.44C21.92 91.5333 21.5467 90.8267 20.8 90.32C20.0533 89.8133 19.0133 89.3467 17.68 88.92V95.36C20.5067 95.28 21.92 94.3067 21.92 92.44ZM12.2 79.44C12.2 80.3467 12.5067 81.04 13.12 81.52C13.76 81.9733 14.72 82.3867 16 82.76V76.28C13.4667 76.44 12.2 77.4933 12.2 79.44ZM52.0316 90.52C52.0316 91.9067 51.7649 93.2 51.2316 94.4C50.6982 95.6 49.9649 96.6533 49.0316 97.56C48.0982 98.44 46.9916 99.1333 45.7116 99.64C44.4582 100.147 43.0982 100.4 41.6316 100.4C40.0316 100.4 38.5782 100.107 37.2716 99.52C35.9916 98.9333 34.8982 98.08 33.9916 96.96C33.0849 95.84 32.3916 94.48 31.9116 92.88C31.4316 91.2533 31.1916 89.4133 31.1916 87.36C31.1916 84.7733 31.4449 82.4933 31.9516 80.52C32.4582 78.52 33.1916 76.8533 34.1516 75.52C35.1116 74.16 36.2716 73.1333 37.6316 72.44C38.9916 71.7467 40.5116 71.4 42.1916 71.4C43.9782 71.4 45.6182 71.7867 47.1116 72.56C48.6316 73.3333 49.9116 74.44 50.9516 75.88L47.8716 79.24C47.2316 78.2267 46.4049 77.44 45.3916 76.88C44.3782 76.32 43.2849 76.04 42.1116 76.04C40.3249 76.04 38.8982 76.7467 37.8316 78.16C36.7649 79.5733 36.2049 81.5733 36.1516 84.16C36.7116 83.2 37.4982 82.44 38.5116 81.88C39.5516 81.32 40.7516 81.04 42.1116 81.04C43.4982 81.04 44.7916 81.28 45.9916 81.76C47.2182 82.24 48.2716 82.9067 49.1516 83.76C50.0582 84.6133 50.7649 85.6267 51.2716 86.8C51.7782 87.9467 52.0316 89.1867 52.0316 90.52ZM41.6716 95.88C42.3649 95.88 43.0316 95.7467 43.6716 95.48C44.3116 95.1867 44.8716 94.8 45.3516 94.32C45.8316 93.8133 46.2049 93.24 46.4716 92.6C46.7649 91.9333 46.9116 91.24 46.9116 90.52C46.9116 89.8 46.7649 89.1333 46.4716 88.52C46.2049 87.88 45.8316 87.32 45.3516 86.84C44.8716 86.36 44.3116 85.9867 43.6716 85.72C43.0582 85.4533 42.3916 85.32 41.6716 85.32C40.9516 85.32 40.2716 85.4533 39.6316 85.72C38.9916 85.9867 38.4316 86.36 37.9516 86.84C37.4716 87.32 37.0982 87.88 36.8316 88.52C36.5649 89.1333 36.4316 89.8 36.4316 90.52C36.4316 91.24 36.5649 91.9333 36.8316 92.6C37.1249 93.24 37.5116 93.8 37.9916 94.28C38.4716 94.76 39.0182 95.1467 39.6316 95.44C40.2716 95.7333 40.9516 95.88 41.6716 95.88ZM65.2484 87.24C66.5818 87.24 67.8218 87.4667 68.9684 87.92C70.1151 88.3467 71.1018 88.96 71.9284 89.76C72.7551 90.56 73.3951 91.52 73.8484 92.64C74.3284 93.76 74.5684 95 74.5684 96.36C74.5684 97.8 74.3018 99.1067 73.7684 100.28C73.2618 101.453 72.5418 102.453 71.6084 103.28C70.6751 104.133 69.5684 104.787 68.2884 105.24C67.0084 105.72 65.6218 105.96 64.1284 105.96C62.0484 105.96 60.1818 105.52 58.5284 104.64C56.9018 103.76 55.6618 102.56 54.8084 101.04L57.8884 97.84C58.6351 98.88 59.5684 99.7067 60.6884 100.32C61.8084 100.933 62.9684 101.24 64.1684 101.24C65.6084 101.24 66.7818 100.813 67.6884 99.96C68.6218 99.08 69.0884 97.92 69.0884 96.48C69.0884 95.0933 68.6484 93.9733 67.7684 93.12C66.9151 92.2667 65.8218 91.84 64.4884 91.84C63.6084 91.84 62.7818 92.04 62.0084 92.44C61.2618 92.84 60.6618 93.3867 60.2084 94.08H55.5284C55.5284 94 55.5818 93.7067 55.6884 93.2C55.7951 92.6667 55.9284 92 56.0884 91.2C56.2484 90.3733 56.4218 89.4667 56.6084 88.48C56.7951 87.4667 56.9951 86.44 57.2084 85.4C57.6884 82.9467 58.2218 80.2 58.8084 77.16H72.8084V82.04H62.6884L61.5284 88.4C61.8484 88.0533 62.3151 87.7733 62.9284 87.56C63.5684 87.3467 64.3418 87.24 65.2484 87.24ZM102.637 71.6L82.7969 100H76.8769L96.6769 71.6H102.637ZM111.347 95.28C112.173 95.4267 112.84 95.8267 113.347 96.48C113.867 97.12 114.127 97.9067 114.127 98.84C114.127 99.4667 114 100.033 113.747 100.54C113.507 101.047 113.16 101.473 112.707 101.82C112.267 102.18 111.727 102.453 111.087 102.64C110.447 102.84 109.727 102.94 108.927 102.94C107.913 102.94 107.013 102.773 106.227 102.44C105.453 102.12 104.807 101.647 104.287 101.02L105.807 99.12C106.153 99.56 106.567 99.9 107.047 100.14C107.527 100.38 108.127 100.5 108.847 100.5C109.66 100.5 110.28 100.34 110.707 100.02C111.133 99.7 111.347 99.2067 111.347 98.54C111.347 97.8467 111.1 97.3133 110.607 96.94C110.113 96.5667 109.367 96.38 108.367 96.38H107.807V94.38H108.427C109.253 94.38 109.893 94.2 110.347 93.84C110.8 93.4667 111.027 92.9933 111.027 92.42C111.027 91.8733 110.84 91.4667 110.467 91.2C110.093 90.9333 109.607 90.8 109.007 90.8C108.393 90.8 107.84 90.94 107.347 91.22C106.867 91.5 106.473 91.8933 106.167 92.4L104.487 90.52C104.687 90.2133 104.953 89.94 105.287 89.7C105.62 89.4467 105.993 89.2333 106.407 89.06C106.833 88.8733 107.293 88.7333 107.787 88.64C108.28 88.5333 108.787 88.48 109.307 88.48C109.987 88.48 110.607 88.5667 111.167 88.74C111.727 88.9133 112.207 89.1533 112.607 89.46C113.02 89.7667 113.333 90.14 113.547 90.58C113.773 91.0067 113.887 91.4867 113.887 92.02C113.887 92.42 113.827 92.8 113.707 93.16C113.587 93.52 113.413 93.8467 113.187 94.14C112.96 94.4333 112.687 94.68 112.367 94.88C112.06 95.08 111.72 95.2133 111.347 95.28ZM137.184 100H134.504V94.12C134.504 93.28 134.357 92.6667 134.064 92.28C133.784 91.8933 133.39 91.7 132.884 91.7C132.35 91.7 131.85 91.9067 131.384 92.32C130.917 92.72 130.584 93.2467 130.384 93.9V100H127.704V94.12C127.704 93.28 127.557 92.6667 127.264 92.28C126.984 91.8933 126.59 91.7 126.084 91.7C125.564 91.7 125.064 91.9 124.584 92.3C124.117 92.7 123.784 93.2267 123.584 93.88V100H120.904V89.52H123.324V91.46C123.71 90.78 124.237 90.26 124.904 89.9C125.584 89.5267 126.357 89.34 127.224 89.34C128.104 89.34 128.784 89.5533 129.264 89.98C129.744 90.4067 130.05 90.9333 130.184 91.56C130.61 90.84 131.15 90.2933 131.804 89.92C132.457 89.5333 133.204 89.34 134.044 89.34C134.684 89.34 135.21 89.46 135.624 89.7C136.037 89.94 136.357 90.2533 136.584 90.64C136.81 91.0267 136.964 91.4667 137.044 91.96C137.137 92.4533 137.184 92.9533 137.184 93.46V100ZM145.699 99.46C145.339 99.62 144.899 99.78 144.379 99.94C143.859 100.1 143.313 100.18 142.739 100.18C142.366 100.18 142.013 100.133 141.679 100.04C141.359 99.9467 141.073 99.8 140.819 99.6C140.579 99.3867 140.386 99.12 140.239 98.8C140.093 98.4667 140.019 98.0667 140.019 97.6V91.58H138.639V89.52H140.019V86.12H142.699V89.52H144.899V91.58H142.699V96.7C142.699 97.0733 142.793 97.34 142.979 97.5C143.179 97.6467 143.419 97.72 143.699 97.72C143.979 97.72 144.253 97.6733 144.519 97.58C144.786 97.4867 144.999 97.4067 145.159 97.34L145.699 99.46ZM156.835 100H154.155V94.12C154.155 93.2933 154.002 92.6867 153.695 92.3C153.388 91.9 152.955 91.7 152.395 91.7C152.155 91.7 151.902 91.7533 151.635 91.86C151.368 91.9667 151.115 92.12 150.875 92.32C150.635 92.5067 150.415 92.7333 150.215 93C150.015 93.2667 149.868 93.56 149.775 93.88V100H147.095V85.4H149.775V91.46C150.162 90.78 150.682 90.26 151.335 89.9C152.002 89.5267 152.735 89.34 153.535 89.34C154.215 89.34 154.768 89.46 155.195 89.7C155.622 89.9267 155.955 90.2333 156.195 90.62C156.435 91.0067 156.602 91.4467 156.695 91.94C156.788 92.4333 156.835 92.94 156.835 93.46V100Z" fill="black"/>
<path d="M72.776 35V17.96H80C80.784 17.96 81.504 18.128 82.16 18.464C82.832 18.784 83.408 19.216 83.888 19.76C84.368 20.288 84.744 20.896 85.016 21.584C85.288 22.256 85.424 22.936 85.424 23.624C85.424 24.344 85.296 25.048 85.04 25.736C84.784 26.408 84.424 27.008 83.96 27.536C83.496 28.064 82.936 28.488 82.28 28.808C81.624 29.128 80.904 29.288 80.12 29.288H76.088V35H72.776ZM76.088 26.384H79.928C80.536 26.384 81.04 26.136 81.44 25.64C81.856 25.144 82.064 24.472 82.064 23.624C82.064 23.192 82 22.808 81.872 22.472C81.744 22.12 81.576 21.824 81.368 21.584C81.16 21.344 80.912 21.168 80.624 21.056C80.352 20.928 80.072 20.864 79.784 20.864H76.088V26.384ZM87.3931 17.48H90.6091V30.968C90.6091 31.432 90.7211 31.792 90.9451 32.048C91.1691 32.304 91.4891 32.432 91.9051 32.432C92.0971 32.432 92.3051 32.4 92.5291 32.336C92.7691 32.272 92.9931 32.192 93.2011 32.096L93.6331 34.544C93.2011 34.752 92.6971 34.912 92.1211 35.024C91.5451 35.136 91.0251 35.192 90.5611 35.192C89.5531 35.192 88.7691 34.928 88.2091 34.4C87.6651 33.856 87.3931 33.088 87.3931 32.096V17.48ZM98.8743 35.24C97.5783 35.24 96.5943 34.824 95.9223 33.992C95.2503 33.16 94.9143 31.928 94.9143 30.296V22.424H98.1303V29.6C98.1303 31.536 98.8263 32.504 100.218 32.504C100.842 32.504 101.442 32.32 102.018 31.952C102.61 31.568 103.09 30.992 103.458 30.224V22.424H106.674V31.304C106.674 31.64 106.73 31.88 106.842 32.024C106.97 32.168 107.17 32.248 107.442 32.264V35C107.122 35.064 106.85 35.104 106.626 35.12C106.418 35.136 106.226 35.144 106.05 35.144C105.474 35.144 105.002 35.016 104.634 34.76C104.282 34.488 104.074 34.12 104.01 33.656L103.938 32.648C103.378 33.512 102.658 34.16 101.778 34.592C100.898 35.024 99.9303 35.24 98.8743 35.24ZM114.622 35.24C113.566 35.24 112.534 35.072 111.526 34.736C110.518 34.4 109.654 33.92 108.934 33.296L110.134 31.28C110.902 31.824 111.646 32.24 112.366 32.528C113.102 32.8 113.83 32.936 114.55 32.936C115.19 32.936 115.694 32.816 116.062 32.576C116.43 32.336 116.614 31.992 116.614 31.544C116.614 31.096 116.398 30.768 115.966 30.56C115.534 30.352 114.83 30.112 113.854 29.84C113.038 29.616 112.342 29.4 111.766 29.192C111.19 28.984 110.726 28.752 110.374 28.496C110.022 28.224 109.766 27.92 109.606 27.584C109.446 27.232 109.366 26.816 109.366 26.336C109.366 25.696 109.486 25.12 109.726 24.608C109.982 24.096 110.334 23.664 110.782 23.312C111.23 22.944 111.75 22.664 112.342 22.472C112.95 22.28 113.606 22.184 114.31 22.184C115.254 22.184 116.134 22.32 116.95 22.592C117.782 22.864 118.542 23.304 119.23 23.912L117.934 25.856C117.294 25.376 116.67 25.024 116.062 24.8C115.47 24.576 114.878 24.464 114.286 24.464C113.742 24.464 113.286 24.576 112.918 24.8C112.55 25.024 112.366 25.384 112.366 25.88C112.366 26.104 112.406 26.288 112.486 26.432C112.582 26.576 112.726 26.704 112.918 26.816C113.11 26.928 113.358 27.04 113.662 27.152C113.982 27.248 114.374 27.352 114.838 27.464C115.702 27.688 116.438 27.912 117.046 28.136C117.67 28.36 118.174 28.616 118.558 28.904C118.958 29.192 119.246 29.528 119.422 29.912C119.614 30.28 119.71 30.728 119.71 31.256C119.71 32.488 119.254 33.464 118.342 34.184C117.43 34.888 116.19 35.24 114.622 35.24Z" fill="black"/>
<path d="M41.036 157.902C40.892 157.734 40.7 157.572 40.46 157.416C40.22 157.26 39.95 157.122 39.65 157.002C39.35 156.87 39.02 156.768 38.66 156.696C38.312 156.612 37.946 156.57 37.562 156.57C36.566 156.57 35.834 156.756 35.366 157.128C34.91 157.5 34.682 158.01 34.682 158.658C34.682 159.006 34.748 159.294 34.88 159.522C35.012 159.75 35.216 159.948 35.492 160.116C35.78 160.272 36.134 160.41 36.554 160.53C36.974 160.65 37.472 160.776 38.048 160.908C38.708 161.052 39.302 161.22 39.83 161.412C40.37 161.592 40.826 161.82 41.198 162.096C41.582 162.372 41.87 162.708 42.062 163.104C42.266 163.5 42.368 163.986 42.368 164.562C42.368 165.174 42.248 165.708 42.008 166.164C41.768 166.608 41.438 166.98 41.018 167.28C40.61 167.568 40.124 167.784 39.56 167.928C38.996 168.06 38.384 168.126 37.724 168.126C36.74 168.126 35.804 167.976 34.916 167.676C34.04 167.364 33.242 166.914 32.522 166.326L33.296 164.958C33.488 165.162 33.734 165.366 34.034 165.57C34.346 165.774 34.694 165.96 35.078 166.128C35.474 166.284 35.894 166.416 36.338 166.524C36.794 166.62 37.268 166.668 37.76 166.668C38.672 166.668 39.38 166.506 39.884 166.182C40.388 165.858 40.64 165.372 40.64 164.724C40.64 164.364 40.556 164.064 40.388 163.824C40.232 163.572 39.998 163.356 39.686 163.176C39.374 162.996 38.984 162.84 38.516 162.708C38.06 162.564 37.538 162.42 36.95 162.276C36.302 162.12 35.732 161.952 35.24 161.772C34.748 161.592 34.334 161.376 33.998 161.124C33.674 160.872 33.428 160.566 33.26 160.206C33.092 159.846 33.008 159.414 33.008 158.91C33.008 158.298 33.122 157.758 33.35 157.29C33.578 156.822 33.896 156.426 34.304 156.102C34.712 155.778 35.198 155.538 35.762 155.382C36.326 155.214 36.938 155.13 37.598 155.13C38.462 155.13 39.242 155.262 39.938 155.526C40.634 155.79 41.252 156.144 41.792 156.588L41.036 157.902ZM47.1448 168.18C46.1608 168.18 45.4168 167.85 44.9128 167.19C44.4088 166.53 44.1567 165.546 44.1567 164.238V158.604H45.7408V163.932C45.7408 165.852 46.4068 166.812 47.7388 166.812C48.3868 166.812 48.9928 166.608 49.5568 166.2C50.1328 165.78 50.5588 165.21 50.8348 164.49V158.604H52.4188V166.056C52.4188 166.428 52.5868 166.62 52.9228 166.632V168C52.7428 168.024 52.5988 168.036 52.4908 168.036C52.3948 168.048 52.2988 168.054 52.2028 168.054C51.8908 168.054 51.6268 167.964 51.4108 167.784C51.2068 167.592 51.0988 167.358 51.0868 167.082L51.0508 165.984C50.6308 166.692 50.0788 167.238 49.3948 167.622C48.7108 167.994 47.9608 168.18 47.1448 168.18ZM59.8813 168.18C59.1493 168.18 58.4833 168 57.8833 167.64C57.2833 167.28 56.8093 166.812 56.4613 166.236V168H55.0573V154.86H56.6413V160.476C57.0373 159.864 57.5233 159.372 58.0993 159C58.6753 158.628 59.3473 158.442 60.1153 158.442C60.7633 158.442 61.3453 158.58 61.8613 158.856C62.3773 159.132 62.8153 159.498 63.1753 159.954C63.5473 160.398 63.8293 160.92 64.0213 161.52C64.2253 162.108 64.3273 162.714 64.3273 163.338C64.3273 163.998 64.2133 164.622 63.9853 165.21C63.7573 165.798 63.4453 166.314 63.0493 166.758C62.6533 167.19 62.1793 167.538 61.6273 167.802C61.0873 168.054 60.5053 168.18 59.8813 168.18ZM59.4853 166.812C59.9533 166.812 60.3853 166.716 60.7813 166.524C61.1773 166.332 61.5193 166.074 61.8073 165.75C62.0953 165.426 62.3173 165.06 62.4733 164.652C62.6293 164.232 62.7073 163.794 62.7073 163.338C62.7073 162.882 62.6293 162.444 62.4733 162.024C62.3293 161.592 62.1193 161.214 61.8433 160.89C61.5793 160.566 61.2553 160.308 60.8713 160.116C60.4993 159.912 60.0853 159.81 59.6293 159.81C59.2933 159.81 58.9753 159.87 58.6753 159.99C58.3753 160.11 58.0933 160.272 57.8293 160.476C57.5773 160.668 57.3493 160.896 57.1453 161.16C56.9533 161.424 56.7853 161.706 56.6413 162.006V164.724C56.7013 165.024 56.8273 165.3 57.0193 165.552C57.2233 165.804 57.4573 166.026 57.7213 166.218C57.9973 166.398 58.2853 166.542 58.5853 166.65C58.8973 166.758 59.1973 166.812 59.4853 166.812ZM69.5661 168.18C68.8101 168.18 68.0661 168.066 67.3341 167.838C66.6021 167.598 65.9721 167.256 65.4441 166.812L66.1281 165.75C66.6801 166.17 67.2321 166.488 67.7841 166.704C68.3361 166.908 68.9181 167.01 69.5301 167.01C70.2141 167.01 70.7541 166.878 71.1501 166.614C71.5581 166.338 71.7621 165.954 71.7621 165.462C71.7621 165.234 71.7081 165.042 71.6001 164.886C71.4921 164.718 71.3301 164.574 71.1141 164.454C70.8981 164.334 70.6221 164.226 70.2861 164.13C69.9501 164.034 69.5601 163.932 69.1161 163.824C68.5521 163.68 68.0661 163.542 67.6581 163.41C67.2501 163.278 66.9141 163.122 66.6501 162.942C66.3861 162.762 66.1941 162.546 66.0741 162.294C65.9541 162.042 65.8941 161.73 65.8941 161.358C65.8941 160.89 65.9841 160.476 66.1641 160.116C66.3561 159.744 66.6141 159.438 66.9381 159.198C67.2621 158.946 67.6401 158.76 68.0721 158.64C68.5161 158.508 68.9901 158.442 69.4941 158.442C70.2021 158.442 70.8621 158.556 71.4741 158.784C72.0861 159.012 72.6021 159.312 73.0221 159.684L72.3021 160.638C71.9061 160.29 71.4621 160.032 70.9701 159.864C70.4781 159.684 69.9741 159.594 69.4581 159.594C68.8821 159.594 68.3901 159.72 67.9821 159.972C67.5861 160.212 67.3881 160.602 67.3881 161.142C67.3881 161.358 67.4241 161.538 67.4961 161.682C67.5801 161.826 67.7121 161.952 67.8921 162.06C68.0721 162.168 68.3001 162.264 68.5761 162.348C68.8641 162.432 69.2061 162.522 69.6021 162.618C70.2261 162.762 70.7661 162.912 71.2221 163.068C71.6901 163.212 72.0741 163.386 72.3741 163.59C72.6861 163.794 72.9141 164.034 73.0581 164.31C73.2141 164.586 73.2921 164.922 73.2921 165.318C73.2921 166.194 72.9561 166.89 72.2841 167.406C71.6121 167.922 70.7061 168.18 69.5661 168.18ZM74.5367 163.284C74.5367 162.624 74.6507 162 74.8787 161.412C75.1067 160.824 75.4307 160.314 75.8507 159.882C76.2707 159.438 76.7687 159.09 77.3447 158.838C77.9327 158.574 78.5867 158.442 79.3067 158.442C80.2427 158.442 81.0467 158.652 81.7187 159.072C82.4027 159.48 82.9187 160.032 83.2667 160.728L81.7187 161.214C81.4787 160.77 81.1427 160.428 80.7107 160.188C80.2787 159.936 79.7987 159.81 79.2707 159.81C78.8387 159.81 78.4307 159.9 78.0467 160.08C77.6627 160.248 77.3327 160.488 77.0567 160.8C76.7807 161.112 76.5587 161.478 76.3907 161.898C76.2347 162.318 76.1567 162.78 76.1567 163.284C76.1567 163.776 76.2407 164.238 76.4087 164.67C76.5767 165.102 76.7987 165.48 77.0747 165.804C77.3627 166.116 77.6927 166.362 78.0647 166.542C78.4487 166.722 78.8567 166.812 79.2887 166.812C79.5647 166.812 79.8347 166.776 80.0987 166.704C80.3747 166.62 80.6207 166.512 80.8367 166.38C81.0647 166.248 81.2627 166.098 81.4307 165.93C81.5987 165.75 81.7187 165.558 81.7907 165.354L83.3387 165.822C83.1947 166.17 82.9907 166.488 82.7267 166.776C82.4747 167.064 82.1747 167.31 81.8267 167.514C81.4787 167.718 81.0887 167.88 80.6567 168C80.2367 168.12 79.7927 168.18 79.3247 168.18C78.6167 168.18 77.9687 168.048 77.3807 167.784C76.7927 167.52 76.2887 167.166 75.8687 166.722C75.4487 166.278 75.1187 165.762 74.8787 165.174C74.6507 164.574 74.5367 163.944 74.5367 163.284ZM90.1015 159.99C89.3095 160.014 88.6075 160.218 87.9955 160.602C87.3955 160.986 86.9695 161.52 86.7175 162.204V168H85.1335V158.604H86.6095V160.782C86.9335 160.134 87.3595 159.612 87.8875 159.216C88.4155 158.808 88.9795 158.58 89.5795 158.532C89.6995 158.532 89.8015 158.532 89.8855 158.532C89.9695 158.532 90.0415 158.538 90.1015 158.55V159.99ZM91.6725 168V158.604H93.2565V168H91.6725ZM91.6725 156.84V154.86H93.2565V156.84H91.6725ZM100.645 168.18C99.913 168.18 99.247 168 98.647 167.64C98.047 167.28 97.573 166.812 97.225 166.236V168H95.821V154.86H97.405V160.476C97.801 159.864 98.287 159.372 98.863 159C99.439 158.628 100.111 158.442 100.879 158.442C101.527 158.442 102.109 158.58 102.625 158.856C103.141 159.132 103.579 159.498 103.939 159.954C104.311 160.398 104.593 160.92 104.785 161.52C104.989 162.108 105.091 162.714 105.091 163.338C105.091 163.998 104.977 164.622 104.749 165.21C104.521 165.798 104.209 166.314 103.813 166.758C103.417 167.19 102.943 167.538 102.391 167.802C101.851 168.054 101.269 168.18 100.645 168.18ZM100.249 166.812C100.717 166.812 101.149 166.716 101.545 166.524C101.941 166.332 102.283 166.074 102.571 165.75C102.859 165.426 103.081 165.06 103.237 164.652C103.393 164.232 103.471 163.794 103.471 163.338C103.471 162.882 103.393 162.444 103.237 162.024C103.093 161.592 102.883 161.214 102.607 160.89C102.343 160.566 102.019 160.308 101.635 160.116C101.263 159.912 100.849 159.81 100.393 159.81C100.057 159.81 99.739 159.87 99.439 159.99C99.139 160.11 98.857 160.272 98.593 160.476C98.341 160.668 98.113 160.896 97.909 161.16C97.717 161.424 97.549 161.706 97.405 162.006V164.724C97.465 165.024 97.591 165.3 97.783 165.552C97.987 165.804 98.221 166.026 98.485 166.218C98.761 166.398 99.049 166.542 99.349 166.65C99.661 166.758 99.961 166.812 100.249 166.812ZM111.194 168.18C110.486 168.18 109.838 168.054 109.25 167.802C108.662 167.538 108.158 167.184 107.738 166.74C107.318 166.296 106.988 165.78 106.748 165.192C106.52 164.592 106.406 163.962 106.406 163.302C106.406 162.642 106.52 162.018 106.748 161.43C106.988 160.842 107.318 160.326 107.738 159.882C108.17 159.438 108.68 159.09 109.268 158.838C109.856 158.574 110.504 158.442 111.212 158.442C111.92 158.442 112.562 158.574 113.138 158.838C113.726 159.102 114.224 159.456 114.632 159.9C115.04 160.332 115.352 160.842 115.568 161.43C115.796 162.006 115.91 162.606 115.91 163.23C115.91 163.362 115.904 163.482 115.892 163.59C115.892 163.698 115.886 163.782 115.874 163.842H108.08C108.116 164.31 108.224 164.736 108.404 165.12C108.584 165.504 108.818 165.834 109.106 166.11C109.394 166.386 109.718 166.602 110.078 166.758C110.45 166.914 110.84 166.992 111.248 166.992C111.536 166.992 111.818 166.956 112.094 166.884C112.37 166.8 112.628 166.692 112.868 166.56C113.108 166.428 113.318 166.266 113.498 166.074C113.69 165.882 113.834 165.666 113.93 165.426L115.298 165.804C115.142 166.152 114.926 166.47 114.65 166.758C114.386 167.046 114.074 167.298 113.714 167.514C113.366 167.718 112.976 167.88 112.544 168C112.112 168.12 111.662 168.18 111.194 168.18ZM114.416 162.672C114.38 162.228 114.266 161.82 114.074 161.448C113.894 161.064 113.66 160.74 113.372 160.476C113.096 160.212 112.772 160.008 112.4 159.864C112.028 159.708 111.632 159.63 111.212 159.63C110.792 159.63 110.396 159.708 110.024 159.864C109.652 160.008 109.322 160.218 109.034 160.494C108.758 160.758 108.53 161.076 108.35 161.448C108.182 161.82 108.08 162.228 108.044 162.672H114.416ZM124.095 158.244V168H122.475V155.22H123.735L131.655 165.174V155.238H133.275V168H131.907L124.095 158.244ZM140.021 168.18C139.313 168.18 138.665 168.048 138.077 167.784C137.501 167.52 137.003 167.166 136.583 166.722C136.175 166.278 135.857 165.762 135.629 165.174C135.401 164.586 135.287 163.968 135.287 163.32C135.287 162.66 135.401 162.036 135.629 161.448C135.869 160.86 136.193 160.344 136.601 159.9C137.021 159.456 137.519 159.102 138.095 158.838C138.683 158.574 139.325 158.442 140.021 158.442C140.717 158.442 141.359 158.574 141.947 158.838C142.535 159.102 143.033 159.456 143.441 159.9C143.861 160.344 144.185 160.86 144.413 161.448C144.653 162.036 144.773 162.66 144.773 163.32C144.773 163.968 144.659 164.586 144.431 165.174C144.203 165.762 143.879 166.278 143.459 166.722C143.039 167.166 142.535 167.52 141.947 167.784C141.371 168.048 140.729 168.18 140.021 168.18ZM136.907 163.338C136.907 163.83 136.985 164.286 137.141 164.706C137.309 165.126 137.531 165.492 137.807 165.804C138.095 166.116 138.425 166.362 138.797 166.542C139.181 166.722 139.589 166.812 140.021 166.812C140.453 166.812 140.855 166.722 141.227 166.542C141.611 166.362 141.947 166.116 142.235 165.804C142.523 165.48 142.745 165.108 142.901 164.688C143.069 164.256 143.153 163.794 143.153 163.302C143.153 162.822 143.069 162.372 142.901 161.952C142.745 161.52 142.523 161.148 142.235 160.836C141.947 160.512 141.611 160.26 141.227 160.08C140.855 159.9 140.453 159.81 140.021 159.81C139.589 159.81 139.181 159.906 138.797 160.098C138.425 160.278 138.095 160.53 137.807 160.854C137.531 161.166 137.309 161.538 137.141 161.97C136.985 162.39 136.907 162.846 136.907 163.338ZM158.148 158.604H159.678L155.682 168H154.368L152.478 163.41L150.606 168H149.292L145.296 158.604H146.808L150.048 166.434L151.632 162.528L150.012 158.622H151.326L152.478 161.628L153.63 158.622H154.944L153.342 162.528L154.926 166.434L158.148 158.604Z" fill="white"/>
</g>
</svg>
