<svg width="191" height="179" viewBox="0 0 191 179" fill="none" xmlns="http://www.w3.org/2000/svg">
<rect width="191" height="179" fill="white"/>
<rect y="145" width="191" height="34" fill="#3F1A8E"/>
<mask id="mask0" mask-type="alpha" maskUnits="userSpaceOnUse" x="0" y="0" width="191" height="179">
<rect width="191" height="179" fill="#C4C4C4"/>
</mask>
<g mask="url(#mask0)">
<path d="M-23.1685 -18.3745L41.0121 -10.4581L-17.5859 46.0511L-23.1685 -18.3745Z" fill="#3F1A8E"/>
<rect x="69" y="54" width="54" height="4" rx="2" fill="#082D72"/>
<path d="M24.36 79.04C24.2 78.8533 23.8933 78.6267 23.44 78.36C23.0133 78.0933 22.4933 77.8267 21.88 77.56C21.2933 77.2667 20.64 77.0133 19.92 76.8C19.2 76.56 18.4533 76.4 17.68 76.32V83.24L18.68 83.48C20.0667 83.8533 21.32 84.2533 22.44 84.68C23.5867 85.1067 24.5467 85.64 25.32 86.28C26.12 86.92 26.7333 87.6933 27.16 88.6C27.5867 89.48 27.8 90.5733 27.8 91.88C27.8 93.3467 27.5333 94.6 27 95.64C26.4933 96.68 25.7867 97.5333 24.88 98.2C24 98.8667 22.96 99.3733 21.76 99.72C20.5867 100.04 19.3467 100.227 18.04 100.28V104.68H15.64V100.24C13.7733 100.107 11.9467 99.7333 10.16 99.12C8.4 98.48 6.8 97.6533 5.36 96.64L7.8 91.88C8.01333 92.0933 8.37333 92.3733 8.88 92.72C9.41333 93.0667 10.04 93.4133 10.76 93.76C11.5067 94.08 12.32 94.3867 13.2 94.68C14.1067 94.9733 15.04 95.1733 16 95.28V88.4C15.76 88.3467 15.52 88.2933 15.28 88.24C15.04 88.16 14.8 88.08 14.56 88C13.2 87.6267 12.0133 87.2267 11 86.8C10.0133 86.3467 9.18667 85.8267 8.52 85.24C7.85333 84.6267 7.34667 83.9333 7 83.16C6.68 82.36 6.52 81.4133 6.52 80.32C6.52 78.9867 6.74667 77.8 7.2 76.76C7.68 75.6933 8.32 74.7867 9.12 74.04C9.94667 73.2933 10.92 72.7067 12.04 72.28C13.16 71.8533 14.36 71.5867 15.64 71.48V67.4H18.04V71.44C19.8 71.5733 21.4133 71.9333 22.88 72.52C24.3733 73.1067 25.68 73.7867 26.8 74.56L24.36 79.04ZM21.92 92.44C21.92 91.5333 21.5467 90.8267 20.8 90.32C20.0533 89.8133 19.0133 89.3467 17.68 88.92V95.36C20.5067 95.28 21.92 94.3067 21.92 92.44ZM12.2 79.44C12.2 80.3467 12.5067 81.04 13.12 81.52C13.76 81.9733 14.72 82.3867 16 82.76V76.28C13.4667 76.44 12.2 77.4933 12.2 79.44ZM30.8716 100C30.8716 98.8 30.9649 97.72 31.1516 96.76C31.3382 95.7733 31.6582 94.8667 32.1116 94.04C32.5916 93.2133 33.2316 92.44 34.0316 91.72C34.8582 91 35.8982 90.2933 37.1516 89.6C38.2449 89.0133 39.2049 88.5067 40.0316 88.08C40.8849 87.6267 41.5916 87.2133 42.1516 86.84C42.7116 86.4667 43.1382 86.0933 43.4316 85.72C43.7249 85.32 43.8716 84.8667 43.8716 84.36C43.8716 83.56 43.5516 82.88 42.9116 82.32C42.2716 81.7333 41.3516 81.44 40.1516 81.44C39.5116 81.44 38.9249 81.5333 38.3916 81.72C37.8582 81.88 37.3516 82.1067 36.8716 82.4C36.4182 82.6933 35.9916 83.0267 35.5916 83.4C35.2182 83.7467 34.8716 84.12 34.5516 84.52L31.1116 80.56C31.4582 80.1867 31.9516 79.7867 32.5916 79.36C33.2316 78.9067 33.9782 78.4933 34.8316 78.12C35.7116 77.72 36.6716 77.4 37.7116 77.16C38.7782 76.8933 39.9116 76.76 41.1116 76.76C42.4716 76.76 43.6849 76.9333 44.7516 77.28C45.8182 77.6 46.7116 78.0667 47.4316 78.68C48.1782 79.2667 48.7382 79.9867 49.1116 80.84C49.5116 81.6667 49.7116 82.5733 49.7116 83.56C49.7116 84.4933 49.5382 85.32 49.1916 86.04C48.8449 86.76 48.4049 87.4 47.8716 87.96C47.3382 88.52 46.7516 89.0133 46.1116 89.44C45.4982 89.84 44.8982 90.2 44.3116 90.52C43.8316 90.7867 43.2849 91.0933 42.6716 91.44C42.0582 91.7867 41.4449 92.1733 40.8316 92.6C40.2449 93 39.6982 93.4267 39.1916 93.88C38.6849 94.3067 38.2982 94.7333 38.0316 95.16H50.1516V100H30.8716ZM63.5297 87.24C64.863 87.24 66.103 87.4667 67.2497 87.92C68.3964 88.3467 69.383 88.96 70.2097 89.76C71.0364 90.56 71.6764 91.52 72.1297 92.64C72.6097 93.76 72.8497 95 72.8497 96.36C72.8497 97.8 72.583 99.1067 72.0497 100.28C71.543 101.453 70.823 102.453 69.8897 103.28C68.9564 104.133 67.8497 104.787 66.5697 105.24C65.2897 105.72 63.903 105.96 62.4097 105.96C60.3297 105.96 58.463 105.52 56.8097 104.64C55.183 103.76 53.943 102.56 53.0897 101.04L56.1697 97.84C56.9164 98.88 57.8497 99.7067 58.9697 100.32C60.0897 100.933 61.2497 101.24 62.4497 101.24C63.8897 101.24 65.063 100.813 65.9697 99.96C66.903 99.08 67.3697 97.92 67.3697 96.48C67.3697 95.0933 66.9297 93.9733 66.0497 93.12C65.1964 92.2667 64.103 91.84 62.7697 91.84C61.8897 91.84 61.063 92.04 60.2897 92.44C59.543 92.84 58.943 93.3867 58.4897 94.08H53.8097C53.8097 94 53.863 93.7067 53.9697 93.2C54.0764 92.6667 54.2097 92 54.3697 91.2C54.5297 90.3733 54.703 89.4667 54.8897 88.48C55.0764 87.4667 55.2764 86.44 55.4897 85.4C55.9697 82.9467 56.503 80.2 57.0897 77.16H71.0897V82.04H60.9697L59.8097 88.4C60.1297 88.0533 60.5964 87.7733 61.2097 87.56C61.8497 87.3467 62.623 87.24 63.5297 87.24ZM100.918 71.6L81.0781 100H75.1581L94.9581 71.6H100.918ZM111.408 97.58V100H103.288V97.58H106.128V91.52C106.008 91.68 105.814 91.8467 105.548 92.02C105.294 92.18 105.014 92.3333 104.708 92.48C104.401 92.6267 104.081 92.7467 103.748 92.84C103.428 92.9333 103.141 92.98 102.888 92.98V90.48C103.128 90.48 103.421 90.4067 103.768 90.26C104.114 90.1 104.454 89.9133 104.788 89.7C105.121 89.4867 105.408 89.28 105.648 89.08C105.901 88.8667 106.061 88.7 106.128 88.58H108.868V97.58H111.408ZM134.195 100H131.515V94.12C131.515 93.28 131.369 92.6667 131.075 92.28C130.795 91.8933 130.402 91.7 129.895 91.7C129.362 91.7 128.862 91.9067 128.395 92.32C127.929 92.72 127.595 93.2467 127.395 93.9V100H124.715V94.12C124.715 93.28 124.569 92.6667 124.275 92.28C123.995 91.8933 123.602 91.7 123.095 91.7C122.575 91.7 122.075 91.9 121.595 92.3C121.129 92.7 120.795 93.2267 120.595 93.88V100H117.915V89.52H120.335V91.46C120.722 90.78 121.249 90.26 121.915 89.9C122.595 89.5267 123.369 89.34 124.235 89.34C125.115 89.34 125.795 89.5533 126.275 89.98C126.755 90.4067 127.062 90.9333 127.195 91.56C127.622 90.84 128.162 90.2933 128.815 89.92C129.469 89.5333 130.215 89.34 131.055 89.34C131.695 89.34 132.222 89.46 132.635 89.7C133.049 89.94 133.369 90.2533 133.595 90.64C133.822 91.0267 133.975 91.4667 134.055 91.96C134.149 92.4533 134.195 92.9533 134.195 93.46V100ZM142.711 99.46C142.351 99.62 141.911 99.78 141.391 99.94C140.871 100.1 140.324 100.18 139.751 100.18C139.378 100.18 139.024 100.133 138.691 100.04C138.371 99.9467 138.084 99.8 137.831 99.6C137.591 99.3867 137.398 99.12 137.251 98.8C137.104 98.4667 137.031 98.0667 137.031 97.6V91.58H135.651V89.52H137.031V86.12H139.711V89.52H141.911V91.58H139.711V96.7C139.711 97.0733 139.804 97.34 139.991 97.5C140.191 97.6467 140.431 97.72 140.711 97.72C140.991 97.72 141.264 97.6733 141.531 97.58C141.798 97.4867 142.011 97.4067 142.171 97.34L142.711 99.46ZM153.847 100H151.167V94.12C151.167 93.2933 151.013 92.6867 150.707 92.3C150.4 91.9 149.967 91.7 149.407 91.7C149.167 91.7 148.913 91.7533 148.647 91.86C148.38 91.9667 148.127 92.12 147.887 92.32C147.647 92.5067 147.427 92.7333 147.227 93C147.027 93.2667 146.88 93.56 146.787 93.88V100H144.107V85.4H146.787V91.46C147.173 90.78 147.693 90.26 148.347 89.9C149.013 89.5267 149.747 89.34 150.547 89.34C151.227 89.34 151.78 89.46 152.207 89.7C152.633 89.9267 152.967 90.2333 153.207 90.62C153.447 91.0067 153.613 91.4467 153.707 91.94C153.8 92.4333 153.847 92.94 153.847 93.46V100Z" fill="black"/>
<path d="M79.504 32.608C79.504 33.328 79.36 33.96 79.072 34.504C78.784 35.048 78.384 35.504 77.872 35.872C77.376 36.24 76.792 36.52 76.12 36.712C75.464 36.904 74.76 37 74.008 37H65.776V19.96H74.896C75.488 19.96 76.024 20.088 76.504 20.344C76.984 20.6 77.392 20.936 77.728 21.352C78.064 21.752 78.32 22.216 78.496 22.744C78.688 23.256 78.784 23.776 78.784 24.304C78.784 25.136 78.576 25.92 78.16 26.656C77.744 27.376 77.136 27.912 76.336 28.264C77.312 28.552 78.08 29.072 78.64 29.824C79.216 30.56 79.504 31.488 79.504 32.608ZM76.168 31.984C76.168 31.68 76.112 31.392 76 31.12C75.904 30.832 75.768 30.584 75.592 30.376C75.416 30.168 75.208 30.008 74.968 29.896C74.728 29.768 74.464 29.704 74.176 29.704H69.088V34.192H74.008C74.312 34.192 74.592 34.136 74.848 34.024C75.12 33.912 75.352 33.76 75.544 33.568C75.736 33.36 75.888 33.12 76 32.848C76.112 32.576 76.168 32.288 76.168 31.984ZM69.088 22.792V27.088H73.504C74.064 27.088 74.536 26.896 74.92 26.512C75.32 26.128 75.52 25.6 75.52 24.928C75.52 24.272 75.336 23.752 74.968 23.368C74.616 22.984 74.176 22.792 73.648 22.792H69.088ZM85.2085 37.24C84.6005 37.24 84.0325 37.144 83.5045 36.952C82.9765 36.744 82.5205 36.464 82.1365 36.112C81.7525 35.744 81.4485 35.32 81.2245 34.84C81.0165 34.36 80.9125 33.832 80.9125 33.256C80.9125 32.664 81.0405 32.12 81.2965 31.624C81.5685 31.112 81.9365 30.68 82.4005 30.328C82.8805 29.976 83.4485 29.704 84.1045 29.512C84.7605 29.304 85.4805 29.2 86.2645 29.2C86.8245 29.2 87.3685 29.248 87.8965 29.344C88.4405 29.44 88.9205 29.576 89.3365 29.752V29.032C89.3365 28.2 89.0965 27.56 88.6165 27.112C88.1525 26.664 87.4565 26.44 86.5285 26.44C85.8565 26.44 85.2005 26.56 84.5605 26.8C83.9205 27.04 83.2645 27.392 82.5925 27.856L81.6085 25.816C83.2245 24.744 84.9685 24.208 86.8405 24.208C88.6485 24.208 90.0485 24.656 91.0405 25.552C92.0485 26.432 92.5525 27.712 92.5525 29.392V33.304C92.5525 33.64 92.6085 33.88 92.7205 34.024C92.8485 34.168 93.0485 34.248 93.3205 34.264V37C92.7765 37.112 92.3045 37.168 91.9045 37.168C91.2965 37.168 90.8245 37.032 90.4885 36.76C90.1685 36.488 89.9685 36.128 89.8885 35.68L89.8165 34.984C89.2565 35.72 88.5765 36.28 87.7765 36.664C86.9765 37.048 86.1205 37.24 85.2085 37.24ZM86.1205 34.888C86.6645 34.888 87.1765 34.792 87.6565 34.6C88.1525 34.408 88.5365 34.152 88.8085 33.832C89.1605 33.56 89.3365 33.256 89.3365 32.92V31.48C88.9525 31.336 88.5365 31.224 88.0885 31.144C87.6405 31.048 87.2085 31 86.7925 31C85.9605 31 85.2805 31.192 84.7525 31.576C84.2245 31.944 83.9605 32.416 83.9605 32.992C83.9605 33.536 84.1685 33.992 84.5845 34.36C85.0005 34.712 85.5125 34.888 86.1205 34.888ZM100.31 37.24C99.2538 37.24 98.2218 37.072 97.2138 36.736C96.2058 36.4 95.3418 35.92 94.6218 35.296L95.8218 33.28C96.5898 33.824 97.3338 34.24 98.0538 34.528C98.7898 34.8 99.5178 34.936 100.238 34.936C100.878 34.936 101.382 34.816 101.75 34.576C102.118 34.336 102.302 33.992 102.302 33.544C102.302 33.096 102.086 32.768 101.654 32.56C101.222 32.352 100.518 32.112 99.5418 31.84C98.7258 31.616 98.0298 31.4 97.4538 31.192C96.8778 30.984 96.4138 30.752 96.0618 30.496C95.7098 30.224 95.4538 29.92 95.2938 29.584C95.1338 29.232 95.0538 28.816 95.0538 28.336C95.0538 27.696 95.1738 27.12 95.4138 26.608C95.6698 26.096 96.0218 25.664 96.4698 25.312C96.9178 24.944 97.4378 24.664 98.0298 24.472C98.6378 24.28 99.2938 24.184 99.9978 24.184C100.942 24.184 101.822 24.32 102.638 24.592C103.47 24.864 104.23 25.304 104.918 25.912L103.622 27.856C102.982 27.376 102.358 27.024 101.75 26.8C101.158 26.576 100.566 26.464 99.9738 26.464C99.4298 26.464 98.9738 26.576 98.6058 26.8C98.2378 27.024 98.0538 27.384 98.0538 27.88C98.0538 28.104 98.0938 28.288 98.1738 28.432C98.2698 28.576 98.4138 28.704 98.6058 28.816C98.7978 28.928 99.0458 29.04 99.3498 29.152C99.6698 29.248 100.062 29.352 100.526 29.464C101.39 29.688 102.126 29.912 102.734 30.136C103.358 30.36 103.862 30.616 104.246 30.904C104.646 31.192 104.934 31.528 105.11 31.912C105.302 32.28 105.398 32.728 105.398 33.256C105.398 34.488 104.942 35.464 104.03 36.184C103.118 36.888 101.878 37.24 100.31 37.24ZM107.487 37V24.424H110.703V37H107.487ZM107.487 22.672V19.48H110.703V22.672H107.487ZM112.813 30.712C112.813 29.832 112.965 29 113.269 28.216C113.573 27.432 114.013 26.744 114.589 26.152C115.165 25.56 115.861 25.088 116.677 24.736C117.493 24.384 118.413 24.208 119.437 24.208C120.813 24.208 121.981 24.504 122.941 25.096C123.917 25.688 124.645 26.464 125.125 27.424L121.981 28.384C121.709 27.92 121.349 27.568 120.901 27.328C120.453 27.072 119.957 26.944 119.413 26.944C118.949 26.944 118.517 27.04 118.117 27.232C117.717 27.408 117.365 27.664 117.061 28C116.773 28.32 116.541 28.712 116.365 29.176C116.205 29.64 116.125 30.152 116.125 30.712C116.125 31.272 116.213 31.784 116.389 32.248C116.565 32.712 116.797 33.112 117.085 33.448C117.389 33.784 117.741 34.048 118.141 34.24C118.541 34.416 118.965 34.504 119.413 34.504C119.989 34.504 120.517 34.36 120.997 34.072C121.493 33.784 121.837 33.432 122.029 33.016L125.173 33.976C124.741 34.936 124.029 35.72 123.037 36.328C122.045 36.936 120.853 37.24 119.461 37.24C118.437 37.24 117.517 37.064 116.701 36.712C115.885 36.36 115.189 35.888 114.613 35.296C114.037 34.688 113.589 33.992 113.269 33.208C112.965 32.408 112.813 31.576 112.813 30.712Z" fill="black"/>
<path d="M41.036 157.902C40.892 157.734 40.7 157.572 40.46 157.416C40.22 157.26 39.95 157.122 39.65 157.002C39.35 156.87 39.02 156.768 38.66 156.696C38.312 156.612 37.946 156.57 37.562 156.57C36.566 156.57 35.834 156.756 35.366 157.128C34.91 157.5 34.682 158.01 34.682 158.658C34.682 159.006 34.748 159.294 34.88 159.522C35.012 159.75 35.216 159.948 35.492 160.116C35.78 160.272 36.134 160.41 36.554 160.53C36.974 160.65 37.472 160.776 38.048 160.908C38.708 161.052 39.302 161.22 39.83 161.412C40.37 161.592 40.826 161.82 41.198 162.096C41.582 162.372 41.87 162.708 42.062 163.104C42.266 163.5 42.368 163.986 42.368 164.562C42.368 165.174 42.248 165.708 42.008 166.164C41.768 166.608 41.438 166.98 41.018 167.28C40.61 167.568 40.124 167.784 39.56 167.928C38.996 168.06 38.384 168.126 37.724 168.126C36.74 168.126 35.804 167.976 34.916 167.676C34.04 167.364 33.242 166.914 32.522 166.326L33.296 164.958C33.488 165.162 33.734 165.366 34.034 165.57C34.346 165.774 34.694 165.96 35.078 166.128C35.474 166.284 35.894 166.416 36.338 166.524C36.794 166.62 37.268 166.668 37.76 166.668C38.672 166.668 39.38 166.506 39.884 166.182C40.388 165.858 40.64 165.372 40.64 164.724C40.64 164.364 40.556 164.064 40.388 163.824C40.232 163.572 39.998 163.356 39.686 163.176C39.374 162.996 38.984 162.84 38.516 162.708C38.06 162.564 37.538 162.42 36.95 162.276C36.302 162.12 35.732 161.952 35.24 161.772C34.748 161.592 34.334 161.376 33.998 161.124C33.674 160.872 33.428 160.566 33.26 160.206C33.092 159.846 33.008 159.414 33.008 158.91C33.008 158.298 33.122 157.758 33.35 157.29C33.578 156.822 33.896 156.426 34.304 156.102C34.712 155.778 35.198 155.538 35.762 155.382C36.326 155.214 36.938 155.13 37.598 155.13C38.462 155.13 39.242 155.262 39.938 155.526C40.634 155.79 41.252 156.144 41.792 156.588L41.036 157.902ZM47.1448 168.18C46.1608 168.18 45.4168 167.85 44.9128 167.19C44.4088 166.53 44.1567 165.546 44.1567 164.238V158.604H45.7408V163.932C45.7408 165.852 46.4068 166.812 47.7388 166.812C48.3868 166.812 48.9928 166.608 49.5568 166.2C50.1328 165.78 50.5588 165.21 50.8348 164.49V158.604H52.4188V166.056C52.4188 166.428 52.5868 166.62 52.9228 166.632V168C52.7428 168.024 52.5988 168.036 52.4908 168.036C52.3948 168.048 52.2988 168.054 52.2028 168.054C51.8908 168.054 51.6268 167.964 51.4108 167.784C51.2068 167.592 51.0988 167.358 51.0868 167.082L51.0508 165.984C50.6308 166.692 50.0788 167.238 49.3948 167.622C48.7108 167.994 47.9608 168.18 47.1448 168.18ZM59.8813 168.18C59.1493 168.18 58.4833 168 57.8833 167.64C57.2833 167.28 56.8093 166.812 56.4613 166.236V168H55.0573V154.86H56.6413V160.476C57.0373 159.864 57.5233 159.372 58.0993 159C58.6753 158.628 59.3473 158.442 60.1153 158.442C60.7633 158.442 61.3453 158.58 61.8613 158.856C62.3773 159.132 62.8153 159.498 63.1753 159.954C63.5473 160.398 63.8293 160.92 64.0213 161.52C64.2253 162.108 64.3273 162.714 64.3273 163.338C64.3273 163.998 64.2133 164.622 63.9853 165.21C63.7573 165.798 63.4453 166.314 63.0493 166.758C62.6533 167.19 62.1793 167.538 61.6273 167.802C61.0873 168.054 60.5053 168.18 59.8813 168.18ZM59.4853 166.812C59.9533 166.812 60.3853 166.716 60.7813 166.524C61.1773 166.332 61.5193 166.074 61.8073 165.75C62.0953 165.426 62.3173 165.06 62.4733 164.652C62.6293 164.232 62.7073 163.794 62.7073 163.338C62.7073 162.882 62.6293 162.444 62.4733 162.024C62.3293 161.592 62.1193 161.214 61.8433 160.89C61.5793 160.566 61.2553 160.308 60.8713 160.116C60.4993 159.912 60.0853 159.81 59.6293 159.81C59.2933 159.81 58.9753 159.87 58.6753 159.99C58.3753 160.11 58.0933 160.272 57.8293 160.476C57.5773 160.668 57.3493 160.896 57.1453 161.16C56.9533 161.424 56.7853 161.706 56.6413 162.006V164.724C56.7013 165.024 56.8273 165.3 57.0193 165.552C57.2233 165.804 57.4573 166.026 57.7213 166.218C57.9973 166.398 58.2853 166.542 58.5853 166.65C58.8973 166.758 59.1973 166.812 59.4853 166.812ZM69.5661 168.18C68.8101 168.18 68.0661 168.066 67.3341 167.838C66.6021 167.598 65.9721 167.256 65.4441 166.812L66.1281 165.75C66.6801 166.17 67.2321 166.488 67.7841 166.704C68.3361 166.908 68.9181 167.01 69.5301 167.01C70.2141 167.01 70.7541 166.878 71.1501 166.614C71.5581 166.338 71.7621 165.954 71.7621 165.462C71.7621 165.234 71.7081 165.042 71.6001 164.886C71.4921 164.718 71.3301 164.574 71.1141 164.454C70.8981 164.334 70.6221 164.226 70.2861 164.13C69.9501 164.034 69.5601 163.932 69.1161 163.824C68.5521 163.68 68.0661 163.542 67.6581 163.41C67.2501 163.278 66.9141 163.122 66.6501 162.942C66.3861 162.762 66.1941 162.546 66.0741 162.294C65.9541 162.042 65.8941 161.73 65.8941 161.358C65.8941 160.89 65.9841 160.476 66.1641 160.116C66.3561 159.744 66.6141 159.438 66.9381 159.198C67.2621 158.946 67.6401 158.76 68.0721 158.64C68.5161 158.508 68.9901 158.442 69.4941 158.442C70.2021 158.442 70.8621 158.556 71.4741 158.784C72.0861 159.012 72.6021 159.312 73.0221 159.684L72.3021 160.638C71.9061 160.29 71.4621 160.032 70.9701 159.864C70.4781 159.684 69.9741 159.594 69.4581 159.594C68.8821 159.594 68.3901 159.72 67.9821 159.972C67.5861 160.212 67.3881 160.602 67.3881 161.142C67.3881 161.358 67.4241 161.538 67.4961 161.682C67.5801 161.826 67.7121 161.952 67.8921 162.06C68.0721 162.168 68.3001 162.264 68.5761 162.348C68.8641 162.432 69.2061 162.522 69.6021 162.618C70.2261 162.762 70.7661 162.912 71.2221 163.068C71.6901 163.212 72.0741 163.386 72.3741 163.59C72.6861 163.794 72.9141 164.034 73.0581 164.31C73.2141 164.586 73.2921 164.922 73.2921 165.318C73.2921 166.194 72.9561 166.89 72.2841 167.406C71.6121 167.922 70.7061 168.18 69.5661 168.18ZM74.5367 163.284C74.5367 162.624 74.6507 162 74.8787 161.412C75.1067 160.824 75.4307 160.314 75.8507 159.882C76.2707 159.438 76.7687 159.09 77.3447 158.838C77.9327 158.574 78.5867 158.442 79.3067 158.442C80.2427 158.442 81.0467 158.652 81.7187 159.072C82.4027 159.48 82.9187 160.032 83.2667 160.728L81.7187 161.214C81.4787 160.77 81.1427 160.428 80.7107 160.188C80.2787 159.936 79.7987 159.81 79.2707 159.81C78.8387 159.81 78.4307 159.9 78.0467 160.08C77.6627 160.248 77.3327 160.488 77.0567 160.8C76.7807 161.112 76.5587 161.478 76.3907 161.898C76.2347 162.318 76.1567 162.78 76.1567 163.284C76.1567 163.776 76.2407 164.238 76.4087 164.67C76.5767 165.102 76.7987 165.48 77.0747 165.804C77.3627 166.116 77.6927 166.362 78.0647 166.542C78.4487 166.722 78.8567 166.812 79.2887 166.812C79.5647 166.812 79.8347 166.776 80.0987 166.704C80.3747 166.62 80.6207 166.512 80.8367 166.38C81.0647 166.248 81.2627 166.098 81.4307 165.93C81.5987 165.75 81.7187 165.558 81.7907 165.354L83.3387 165.822C83.1947 166.17 82.9907 166.488 82.7267 166.776C82.4747 167.064 82.1747 167.31 81.8267 167.514C81.4787 167.718 81.0887 167.88 80.6567 168C80.2367 168.12 79.7927 168.18 79.3247 168.18C78.6167 168.18 77.9687 168.048 77.3807 167.784C76.7927 167.52 76.2887 167.166 75.8687 166.722C75.4487 166.278 75.1187 165.762 74.8787 165.174C74.6507 164.574 74.5367 163.944 74.5367 163.284ZM90.1015 159.99C89.3095 160.014 88.6075 160.218 87.9955 160.602C87.3955 160.986 86.9695 161.52 86.7175 162.204V168H85.1335V158.604H86.6095V160.782C86.9335 160.134 87.3595 159.612 87.8875 159.216C88.4155 158.808 88.9795 158.58 89.5795 158.532C89.6995 158.532 89.8015 158.532 89.8855 158.532C89.9695 158.532 90.0415 158.538 90.1015 158.55V159.99ZM91.6725 168V158.604H93.2565V168H91.6725ZM91.6725 156.84V154.86H93.2565V156.84H91.6725ZM100.645 168.18C99.913 168.18 99.247 168 98.647 167.64C98.047 167.28 97.573 166.812 97.225 166.236V168H95.821V154.86H97.405V160.476C97.801 159.864 98.287 159.372 98.863 159C99.439 158.628 100.111 158.442 100.879 158.442C101.527 158.442 102.109 158.58 102.625 158.856C103.141 159.132 103.579 159.498 103.939 159.954C104.311 160.398 104.593 160.92 104.785 161.52C104.989 162.108 105.091 162.714 105.091 163.338C105.091 163.998 104.977 164.622 104.749 165.21C104.521 165.798 104.209 166.314 103.813 166.758C103.417 167.19 102.943 167.538 102.391 167.802C101.851 168.054 101.269 168.18 100.645 168.18ZM100.249 166.812C100.717 166.812 101.149 166.716 101.545 166.524C101.941 166.332 102.283 166.074 102.571 165.75C102.859 165.426 103.081 165.06 103.237 164.652C103.393 164.232 103.471 163.794 103.471 163.338C103.471 162.882 103.393 162.444 103.237 162.024C103.093 161.592 102.883 161.214 102.607 160.89C102.343 160.566 102.019 160.308 101.635 160.116C101.263 159.912 100.849 159.81 100.393 159.81C100.057 159.81 99.739 159.87 99.439 159.99C99.139 160.11 98.857 160.272 98.593 160.476C98.341 160.668 98.113 160.896 97.909 161.16C97.717 161.424 97.549 161.706 97.405 162.006V164.724C97.465 165.024 97.591 165.3 97.783 165.552C97.987 165.804 98.221 166.026 98.485 166.218C98.761 166.398 99.049 166.542 99.349 166.65C99.661 166.758 99.961 166.812 100.249 166.812ZM111.194 168.18C110.486 168.18 109.838 168.054 109.25 167.802C108.662 167.538 108.158 167.184 107.738 166.74C107.318 166.296 106.988 165.78 106.748 165.192C106.52 164.592 106.406 163.962 106.406 163.302C106.406 162.642 106.52 162.018 106.748 161.43C106.988 160.842 107.318 160.326 107.738 159.882C108.17 159.438 108.68 159.09 109.268 158.838C109.856 158.574 110.504 158.442 111.212 158.442C111.92 158.442 112.562 158.574 113.138 158.838C113.726 159.102 114.224 159.456 114.632 159.9C115.04 160.332 115.352 160.842 115.568 161.43C115.796 162.006 115.91 162.606 115.91 163.23C115.91 163.362 115.904 163.482 115.892 163.59C115.892 163.698 115.886 163.782 115.874 163.842H108.08C108.116 164.31 108.224 164.736 108.404 165.12C108.584 165.504 108.818 165.834 109.106 166.11C109.394 166.386 109.718 166.602 110.078 166.758C110.45 166.914 110.84 166.992 111.248 166.992C111.536 166.992 111.818 166.956 112.094 166.884C112.37 166.8 112.628 166.692 112.868 166.56C113.108 166.428 113.318 166.266 113.498 166.074C113.69 165.882 113.834 165.666 113.93 165.426L115.298 165.804C115.142 166.152 114.926 166.47 114.65 166.758C114.386 167.046 114.074 167.298 113.714 167.514C113.366 167.718 112.976 167.88 112.544 168C112.112 168.12 111.662 168.18 111.194 168.18ZM114.416 162.672C114.38 162.228 114.266 161.82 114.074 161.448C113.894 161.064 113.66 160.74 113.372 160.476C113.096 160.212 112.772 160.008 112.4 159.864C112.028 159.708 111.632 159.63 111.212 159.63C110.792 159.63 110.396 159.708 110.024 159.864C109.652 160.008 109.322 160.218 109.034 160.494C108.758 160.758 108.53 161.076 108.35 161.448C108.182 161.82 108.08 162.228 108.044 162.672H114.416ZM124.095 158.244V168H122.475V155.22H123.735L131.655 165.174V155.238H133.275V168H131.907L124.095 158.244ZM140.021 168.18C139.313 168.18 138.665 168.048 138.077 167.784C137.501 167.52 137.003 167.166 136.583 166.722C136.175 166.278 135.857 165.762 135.629 165.174C135.401 164.586 135.287 163.968 135.287 163.32C135.287 162.66 135.401 162.036 135.629 161.448C135.869 160.86 136.193 160.344 136.601 159.9C137.021 159.456 137.519 159.102 138.095 158.838C138.683 158.574 139.325 158.442 140.021 158.442C140.717 158.442 141.359 158.574 141.947 158.838C142.535 159.102 143.033 159.456 143.441 159.9C143.861 160.344 144.185 160.86 144.413 161.448C144.653 162.036 144.773 162.66 144.773 163.32C144.773 163.968 144.659 164.586 144.431 165.174C144.203 165.762 143.879 166.278 143.459 166.722C143.039 167.166 142.535 167.52 141.947 167.784C141.371 168.048 140.729 168.18 140.021 168.18ZM136.907 163.338C136.907 163.83 136.985 164.286 137.141 164.706C137.309 165.126 137.531 165.492 137.807 165.804C138.095 166.116 138.425 166.362 138.797 166.542C139.181 166.722 139.589 166.812 140.021 166.812C140.453 166.812 140.855 166.722 141.227 166.542C141.611 166.362 141.947 166.116 142.235 165.804C142.523 165.48 142.745 165.108 142.901 164.688C143.069 164.256 143.153 163.794 143.153 163.302C143.153 162.822 143.069 162.372 142.901 161.952C142.745 161.52 142.523 161.148 142.235 160.836C141.947 160.512 141.611 160.26 141.227 160.08C140.855 159.9 140.453 159.81 140.021 159.81C139.589 159.81 139.181 159.906 138.797 160.098C138.425 160.278 138.095 160.53 137.807 160.854C137.531 161.166 137.309 161.538 137.141 161.97C136.985 162.39 136.907 162.846 136.907 163.338ZM158.148 158.604H159.678L155.682 168H154.368L152.478 163.41L150.606 168H149.292L145.296 158.604H146.808L150.048 166.434L151.632 162.528L150.012 158.622H151.326L152.478 161.628L153.63 158.622H154.944L153.342 162.528L154.926 166.434L158.148 158.604Z" fill="white"/>
</g>
</svg>
