<svg width="207" height="179" viewBox="0 0 207 179" fill="none" xmlns="http://www.w3.org/2000/svg">
<rect width="207" height="179" fill="white"/>
<rect y="145" width="207" height="34" fill="#3F1A8E"/>
<mask id="mask0" mask-type="alpha" maskUnits="userSpaceOnUse" x="0" y="0" width="207" height="179">
<rect width="207" height="179" fill="#C4C4C4"/>
</mask>
<g mask="url(#mask0)">
<path d="M-23.1685 -18.3745L41.0121 -10.4581L-17.5859 46.0511L-23.1685 -18.3745Z" fill="#3F1A8E"/>
<rect x="69" y="54" width="54" height="4" rx="2" fill="#082D72"/>
<path d="M28.432 81.848C28.24 81.624 27.872 81.352 27.328 81.032C26.816 80.712 26.192 80.392 25.456 80.072C24.752 79.72 23.968 79.416 23.104 79.16C22.24 78.872 21.344 78.68 20.416 78.584V86.888L21.616 87.176C23.28 87.624 24.784 88.104 26.128 88.616C27.504 89.128 28.656 89.768 29.584 90.536C30.544 91.304 31.28 92.232 31.792 93.32C32.304 94.376 32.56 95.688 32.56 97.256C32.56 99.016 32.24 100.52 31.6 101.768C30.992 103.016 30.144 104.04 29.056 104.84C28 105.64 26.752 106.248 25.312 106.664C23.904 107.048 22.416 107.272 20.848 107.336V112.616H17.968V107.288C15.728 107.128 13.536 106.68 11.392 105.944C9.28 105.176 7.36 104.184 5.632 102.968L8.56 97.256C8.816 97.512 9.248 97.848 9.856 98.264C10.496 98.68 11.248 99.096 12.112 99.512C13.008 99.896 13.984 100.264 15.04 100.616C16.128 100.968 17.248 101.208 18.4 101.336V93.08C18.112 93.016 17.824 92.952 17.536 92.888C17.248 92.792 16.96 92.696 16.672 92.6C15.04 92.152 13.616 91.672 12.4 91.16C11.216 90.616 10.224 89.992 9.424 89.288C8.624 88.552 8.016 87.72 7.6 86.792C7.216 85.832 7.024 84.696 7.024 83.384C7.024 81.784 7.296 80.36 7.84 79.112C8.416 77.832 9.184 76.744 10.144 75.848C11.136 74.952 12.304 74.248 13.648 73.736C14.992 73.224 16.432 72.904 17.968 72.776V67.88H20.848V72.728C22.96 72.888 24.896 73.32 26.656 74.024C28.448 74.728 30.016 75.544 31.36 76.472L28.432 81.848ZM25.504 97.928C25.504 96.84 25.056 95.992 24.16 95.384C23.264 94.776 22.016 94.216 20.416 93.704V101.432C23.808 101.336 25.504 100.168 25.504 97.928ZM13.84 82.328C13.84 83.416 14.208 84.248 14.944 84.824C15.712 85.368 16.864 85.864 18.4 86.312V78.536C15.36 78.728 13.84 79.992 13.84 82.328ZM56.9819 101.192V107H37.4939V101.192H44.3099V86.648C44.0219 87.032 43.5579 87.432 42.9179 87.848C42.3099 88.232 41.6379 88.6 40.9019 88.952C40.1659 89.304 39.3979 89.592 38.5979 89.816C37.8299 90.04 37.1419 90.152 36.5339 90.152V84.152C37.1099 84.152 37.8139 83.976 38.6459 83.624C39.4779 83.24 40.2939 82.792 41.0939 82.28C41.8939 81.768 42.5819 81.272 43.1579 80.792C43.7659 80.28 44.1499 79.88 44.3099 79.592H50.8859V101.192H56.9819ZM59.9646 107C59.9646 105.56 60.0766 104.264 60.3006 103.112C60.5246 101.928 60.9086 100.84 61.4526 99.848C62.0286 98.856 62.7966 97.928 63.7566 97.064C64.7486 96.2 65.9966 95.352 67.5006 94.52C68.8126 93.816 69.9646 93.208 70.9566 92.696C71.9806 92.152 72.8286 91.656 73.5006 91.208C74.1726 90.76 74.6846 90.312 75.0366 89.864C75.3886 89.384 75.5646 88.84 75.5646 88.232C75.5646 87.272 75.1806 86.456 74.4126 85.784C73.6446 85.08 72.5406 84.728 71.1006 84.728C70.3326 84.728 69.6286 84.84 68.9886 85.064C68.3486 85.256 67.7406 85.528 67.1646 85.88C66.6206 86.232 66.1086 86.632 65.6286 87.08C65.1806 87.496 64.7646 87.944 64.3806 88.424L60.2526 83.672C60.6686 83.224 61.2606 82.744 62.0286 82.232C62.7966 81.688 63.6926 81.192 64.7166 80.744C65.7726 80.264 66.9246 79.88 68.1726 79.592C69.4526 79.272 70.8126 79.112 72.2526 79.112C73.8846 79.112 75.3406 79.32 76.6206 79.736C77.9006 80.12 78.9726 80.68 79.8366 81.416C80.7326 82.12 81.4046 82.984 81.8526 84.008C82.3326 85 82.5726 86.088 82.5726 87.272C82.5726 88.392 82.3646 89.384 81.9486 90.248C81.5326 91.112 81.0046 91.88 80.3646 92.552C79.7246 93.224 79.0206 93.816 78.2526 94.328C77.5166 94.808 76.7966 95.24 76.0926 95.624C75.5166 95.944 74.8606 96.312 74.1246 96.728C73.3886 97.144 72.6526 97.608 71.9166 98.12C71.2126 98.6 70.5566 99.112 69.9486 99.656C69.3406 100.168 68.8766 100.68 68.5566 101.192H83.1006V107H59.9646ZM112.354 92.936C112.354 95.048 112.034 97 111.394 98.792C110.786 100.552 109.922 102.088 108.802 103.4C107.714 104.68 106.402 105.688 104.866 106.424C103.362 107.128 101.73 107.48 99.9704 107.48C98.1784 107.48 96.5304 107.128 95.0264 106.424C93.5224 105.688 92.2104 104.68 91.0904 103.4C90.0024 102.088 89.1384 100.552 88.4984 98.792C87.8904 97 87.5864 95.048 87.5864 92.936C87.5864 90.824 87.8904 88.888 88.4984 87.128C89.1384 85.336 90.0024 83.8 91.0904 82.52C92.2104 81.208 93.5224 80.184 95.0264 79.448C96.5304 78.712 98.1784 78.344 99.9704 78.344C101.73 78.344 103.362 78.712 104.866 79.448C106.402 80.184 107.714 81.208 108.802 82.52C109.922 83.8 110.786 85.336 111.394 87.128C112.034 88.888 112.354 90.824 112.354 92.936ZM105.874 92.936C105.874 91.656 105.73 90.488 105.442 89.432C105.154 88.344 104.738 87.416 104.194 86.648C103.682 85.88 103.058 85.288 102.322 84.872C101.618 84.456 100.834 84.248 99.9704 84.248C99.0744 84.248 98.2584 84.456 97.5224 84.872C96.8184 85.288 96.1944 85.88 95.6504 86.648C95.1384 87.416 94.7384 88.344 94.4504 89.432C94.1624 90.488 94.0184 91.656 94.0184 92.936C94.0184 94.216 94.1624 95.384 94.4504 96.44C94.7384 97.496 95.1384 98.408 95.6504 99.176C96.1944 99.944 96.8184 100.536 97.5224 100.952C98.2584 101.368 99.0744 101.576 99.9704 101.576C100.834 101.576 101.618 101.368 102.322 100.952C103.058 100.536 103.682 99.944 104.194 99.176C104.738 98.408 105.154 97.496 105.442 96.44C105.73 95.384 105.874 94.216 105.874 92.936ZM146.927 72.92L123.119 107H116.015L139.775 72.92H146.927ZM159.574 102.26C159.574 102.953 159.441 103.6 159.174 104.2C158.908 104.8 158.541 105.327 158.074 105.78C157.608 106.22 157.054 106.567 156.414 106.82C155.788 107.073 155.108 107.2 154.374 107.2C153.574 107.2 152.848 107.053 152.194 106.76C151.554 106.467 151.008 106.04 150.554 105.48C150.101 104.92 149.754 104.24 149.514 103.44C149.274 102.627 149.154 101.707 149.154 100.68C149.154 99.3867 149.281 98.2467 149.534 97.26C149.788 96.26 150.154 95.4267 150.634 94.76C151.114 94.08 151.694 93.5667 152.374 93.22C153.054 92.8733 153.814 92.7 154.654 92.7C155.548 92.7 156.368 92.8933 157.114 93.28C157.874 93.6667 158.514 94.22 159.034 94.94L157.494 96.62C157.174 96.1133 156.761 95.72 156.254 95.44C155.748 95.16 155.201 95.02 154.614 95.02C153.721 95.02 153.008 95.3733 152.474 96.08C151.941 96.7867 151.661 97.7867 151.634 99.08C151.914 98.6 152.308 98.22 152.814 97.94C153.334 97.66 153.934 97.52 154.614 97.52C155.308 97.52 155.954 97.64 156.554 97.88C157.168 98.12 157.694 98.4533 158.134 98.88C158.588 99.3067 158.941 99.8133 159.194 100.4C159.448 100.973 159.574 101.593 159.574 102.26ZM154.394 104.94C154.741 104.94 155.074 104.873 155.394 104.74C155.714 104.593 155.994 104.4 156.234 104.16C156.474 103.907 156.661 103.62 156.794 103.3C156.941 102.967 157.014 102.62 157.014 102.26C157.014 101.9 156.941 101.567 156.794 101.26C156.661 100.94 156.474 100.66 156.234 100.42C155.994 100.18 155.714 99.9933 155.394 99.86C155.088 99.7267 154.754 99.66 154.394 99.66C154.034 99.66 153.694 99.7267 153.374 99.86C153.054 99.9933 152.774 100.18 152.534 100.42C152.294 100.66 152.108 100.94 151.974 101.26C151.841 101.567 151.774 101.9 151.774 102.26C151.774 102.62 151.841 102.967 151.974 103.3C152.121 103.62 152.314 103.9 152.554 104.14C152.794 104.38 153.068 104.573 153.374 104.72C153.694 104.867 154.034 104.94 154.394 104.94ZM182.688 107H180.008V101.12C180.008 100.28 179.861 99.6667 179.568 99.28C179.288 98.8933 178.894 98.7 178.388 98.7C177.854 98.7 177.354 98.9067 176.888 99.32C176.421 99.72 176.088 100.247 175.888 100.9V107H173.208V101.12C173.208 100.28 173.061 99.6667 172.768 99.28C172.488 98.8933 172.094 98.7 171.588 98.7C171.068 98.7 170.568 98.9 170.088 99.3C169.621 99.7 169.288 100.227 169.088 100.88V107H166.408V96.52H168.828V98.46C169.214 97.78 169.741 97.26 170.408 96.9C171.088 96.5267 171.861 96.34 172.728 96.34C173.608 96.34 174.288 96.5533 174.768 96.98C175.248 97.4067 175.554 97.9333 175.688 98.56C176.114 97.84 176.654 97.2933 177.308 96.92C177.961 96.5333 178.708 96.34 179.548 96.34C180.188 96.34 180.714 96.46 181.128 96.7C181.541 96.94 181.861 97.2533 182.088 97.64C182.314 98.0267 182.468 98.4667 182.548 98.96C182.641 99.4533 182.688 99.9533 182.688 100.46V107ZM191.203 106.46C190.843 106.62 190.403 106.78 189.883 106.94C189.363 107.1 188.816 107.18 188.243 107.18C187.87 107.18 187.516 107.133 187.183 107.04C186.863 106.947 186.576 106.8 186.323 106.6C186.083 106.387 185.89 106.12 185.743 105.8C185.596 105.467 185.523 105.067 185.523 104.6V98.58H184.143V96.52H185.523V93.12H188.203V96.52H190.403V98.58H188.203V103.7C188.203 104.073 188.296 104.34 188.483 104.5C188.683 104.647 188.923 104.72 189.203 104.72C189.483 104.72 189.756 104.673 190.023 104.58C190.29 104.487 190.503 104.407 190.663 104.34L191.203 106.46ZM202.339 107H199.659V101.12C199.659 100.293 199.506 99.6867 199.199 99.3C198.892 98.9 198.459 98.7 197.899 98.7C197.659 98.7 197.406 98.7533 197.139 98.86C196.872 98.9667 196.619 99.12 196.379 99.32C196.139 99.5067 195.919 99.7333 195.719 100C195.519 100.267 195.372 100.56 195.279 100.88V107H192.599V92.4H195.279V98.46C195.666 97.78 196.186 97.26 196.839 96.9C197.506 96.5267 198.239 96.34 199.039 96.34C199.719 96.34 200.272 96.46 200.699 96.7C201.126 96.9267 201.459 97.2333 201.699 97.62C201.939 98.0067 202.106 98.4467 202.199 98.94C202.292 99.4333 202.339 99.94 202.339 100.46V107Z" fill="black"/>
<path d="M45.776 35V17.96H53C53.784 17.96 54.504 18.128 55.16 18.464C55.832 18.784 56.408 19.216 56.888 19.76C57.368 20.288 57.744 20.896 58.016 21.584C58.288 22.256 58.424 22.936 58.424 23.624C58.424 24.344 58.296 25.048 58.04 25.736C57.784 26.408 57.424 27.008 56.96 27.536C56.496 28.064 55.936 28.488 55.28 28.808C54.624 29.128 53.904 29.288 53.12 29.288H49.088V35H45.776ZM49.088 26.384H52.928C53.536 26.384 54.04 26.136 54.44 25.64C54.856 25.144 55.064 24.472 55.064 23.624C55.064 23.192 55 22.808 54.872 22.472C54.744 22.12 54.576 21.824 54.368 21.584C54.16 21.344 53.912 21.168 53.624 21.056C53.352 20.928 53.072 20.864 52.784 20.864H49.088V26.384ZM67.9051 25.208C66.9291 25.224 66.0571 25.416 65.2891 25.784C64.5211 26.136 63.9691 26.672 63.6331 27.392V35H60.4171V22.424H63.3691V25.112C63.5931 24.68 63.8571 24.296 64.1611 23.96C64.4651 23.608 64.7931 23.304 65.1451 23.048C65.4971 22.792 65.8491 22.6 66.2011 22.472C66.5691 22.328 66.9211 22.256 67.2571 22.256C67.4331 22.256 67.5611 22.256 67.6411 22.256C67.7371 22.256 67.8251 22.264 67.9051 22.28V25.208ZM74.8976 35.24C73.8896 35.24 72.9776 35.072 72.1616 34.736C71.3456 34.384 70.6496 33.912 70.0736 33.32C69.4976 32.728 69.0496 32.04 68.7296 31.256C68.4256 30.472 68.2736 29.648 68.2736 28.784C68.2736 27.888 68.4256 27.048 68.7296 26.264C69.0336 25.464 69.4736 24.768 70.0496 24.176C70.6256 23.568 71.3216 23.088 72.1376 22.736C72.9696 22.384 73.8976 22.208 74.9216 22.208C75.9456 22.208 76.8576 22.384 77.6576 22.736C78.4736 23.088 79.1616 23.56 79.7216 24.152C80.2976 24.744 80.7296 25.432 81.0176 26.216C81.3216 27 81.4736 27.816 81.4736 28.664C81.4736 28.872 81.4656 29.072 81.4496 29.264C81.4496 29.456 81.4336 29.616 81.4016 29.744H71.6816C71.7296 30.24 71.8496 30.68 72.0416 31.064C72.2336 31.448 72.4816 31.776 72.7856 32.048C73.0896 32.32 73.4336 32.528 73.8176 32.672C74.2016 32.816 74.6016 32.888 75.0176 32.888C75.6576 32.888 76.2576 32.736 76.8176 32.432C77.3936 32.112 77.7856 31.696 77.9936 31.184L80.7536 31.952C80.2896 32.912 79.5456 33.704 78.5216 34.328C77.5136 34.936 76.3056 35.24 74.8976 35.24ZM78.1616 27.656C78.0816 26.712 77.7296 25.96 77.1056 25.4C76.4976 24.824 75.7536 24.536 74.8736 24.536C74.4416 24.536 74.0336 24.616 73.6496 24.776C73.2816 24.92 72.9536 25.128 72.6656 25.4C72.3776 25.672 72.1376 26 71.9456 26.384C71.7696 26.768 71.6656 27.192 71.6336 27.656H78.1616ZM102.969 35H99.7528V27.944C99.7528 26.936 99.5768 26.2 99.2248 25.736C98.8888 25.272 98.4168 25.04 97.8088 25.04C97.1688 25.04 96.5688 25.288 96.0088 25.784C95.4488 26.264 95.0488 26.896 94.8088 27.68V35H91.5928V27.944C91.5928 26.936 91.4168 26.2 91.0648 25.736C90.7288 25.272 90.2568 25.04 89.6488 25.04C89.0248 25.04 88.4248 25.28 87.8488 25.76C87.2888 26.24 86.8888 26.872 86.6488 27.656V35H83.4328V22.424H86.3368V24.752C86.8008 23.936 87.4328 23.312 88.2328 22.88C89.0488 22.432 89.9768 22.208 91.0168 22.208C92.0728 22.208 92.8888 22.464 93.4648 22.976C94.0408 23.488 94.4088 24.12 94.5688 24.872C95.0808 24.008 95.7288 23.352 96.5128 22.904C97.2968 22.44 98.1928 22.208 99.2008 22.208C99.9688 22.208 100.601 22.352 101.097 22.64C101.593 22.928 101.977 23.304 102.249 23.768C102.521 24.232 102.705 24.76 102.801 25.352C102.913 25.944 102.969 26.544 102.969 27.152V35ZM105.769 35V22.424H108.985V35H105.769ZM105.769 20.672V17.48H108.985V20.672H105.769ZM115.726 35.24C114.43 35.24 113.446 34.824 112.774 33.992C112.102 33.16 111.766 31.928 111.766 30.296V22.424H114.982V29.6C114.982 31.536 115.678 32.504 117.07 32.504C117.694 32.504 118.294 32.32 118.87 31.952C119.462 31.568 119.942 30.992 120.31 30.224V22.424H123.526V31.304C123.526 31.64 123.582 31.88 123.694 32.024C123.822 32.168 124.022 32.248 124.294 32.264V35C123.974 35.064 123.702 35.104 123.478 35.12C123.27 35.136 123.078 35.144 122.902 35.144C122.326 35.144 121.854 35.016 121.486 34.76C121.134 34.488 120.926 34.12 120.862 33.656L120.79 32.648C120.23 33.512 119.51 34.16 118.63 34.592C117.75 35.024 116.782 35.24 115.726 35.24ZM146.258 35H143.042V27.944C143.042 26.936 142.866 26.2 142.514 25.736C142.178 25.272 141.706 25.04 141.098 25.04C140.458 25.04 139.858 25.288 139.298 25.784C138.738 26.264 138.338 26.896 138.098 27.68V35H134.882V27.944C134.882 26.936 134.706 26.2 134.354 25.736C134.018 25.272 133.546 25.04 132.938 25.04C132.314 25.04 131.714 25.28 131.138 25.76C130.578 26.24 130.178 26.872 129.938 27.656V35H126.722V22.424H129.626V24.752C130.09 23.936 130.722 23.312 131.522 22.88C132.338 22.432 133.266 22.208 134.306 22.208C135.362 22.208 136.178 22.464 136.754 22.976C137.33 23.488 137.698 24.12 137.858 24.872C138.37 24.008 139.018 23.352 139.802 22.904C140.586 22.44 141.482 22.208 142.49 22.208C143.258 22.208 143.89 22.352 144.386 22.64C144.882 22.928 145.266 23.304 145.538 23.768C145.81 24.232 145.994 24.76 146.09 25.352C146.202 25.944 146.258 26.544 146.258 27.152V35Z" fill="black"/>
<path d="M41.036 157.902C40.892 157.734 40.7 157.572 40.46 157.416C40.22 157.26 39.95 157.122 39.65 157.002C39.35 156.87 39.02 156.768 38.66 156.696C38.312 156.612 37.946 156.57 37.562 156.57C36.566 156.57 35.834 156.756 35.366 157.128C34.91 157.5 34.682 158.01 34.682 158.658C34.682 159.006 34.748 159.294 34.88 159.522C35.012 159.75 35.216 159.948 35.492 160.116C35.78 160.272 36.134 160.41 36.554 160.53C36.974 160.65 37.472 160.776 38.048 160.908C38.708 161.052 39.302 161.22 39.83 161.412C40.37 161.592 40.826 161.82 41.198 162.096C41.582 162.372 41.87 162.708 42.062 163.104C42.266 163.5 42.368 163.986 42.368 164.562C42.368 165.174 42.248 165.708 42.008 166.164C41.768 166.608 41.438 166.98 41.018 167.28C40.61 167.568 40.124 167.784 39.56 167.928C38.996 168.06 38.384 168.126 37.724 168.126C36.74 168.126 35.804 167.976 34.916 167.676C34.04 167.364 33.242 166.914 32.522 166.326L33.296 164.958C33.488 165.162 33.734 165.366 34.034 165.57C34.346 165.774 34.694 165.96 35.078 166.128C35.474 166.284 35.894 166.416 36.338 166.524C36.794 166.62 37.268 166.668 37.76 166.668C38.672 166.668 39.38 166.506 39.884 166.182C40.388 165.858 40.64 165.372 40.64 164.724C40.64 164.364 40.556 164.064 40.388 163.824C40.232 163.572 39.998 163.356 39.686 163.176C39.374 162.996 38.984 162.84 38.516 162.708C38.06 162.564 37.538 162.42 36.95 162.276C36.302 162.12 35.732 161.952 35.24 161.772C34.748 161.592 34.334 161.376 33.998 161.124C33.674 160.872 33.428 160.566 33.26 160.206C33.092 159.846 33.008 159.414 33.008 158.91C33.008 158.298 33.122 157.758 33.35 157.29C33.578 156.822 33.896 156.426 34.304 156.102C34.712 155.778 35.198 155.538 35.762 155.382C36.326 155.214 36.938 155.13 37.598 155.13C38.462 155.13 39.242 155.262 39.938 155.526C40.634 155.79 41.252 156.144 41.792 156.588L41.036 157.902ZM47.1448 168.18C46.1608 168.18 45.4168 167.85 44.9128 167.19C44.4088 166.53 44.1567 165.546 44.1567 164.238V158.604H45.7408V163.932C45.7408 165.852 46.4068 166.812 47.7388 166.812C48.3868 166.812 48.9928 166.608 49.5568 166.2C50.1328 165.78 50.5588 165.21 50.8348 164.49V158.604H52.4188V166.056C52.4188 166.428 52.5868 166.62 52.9228 166.632V168C52.7428 168.024 52.5988 168.036 52.4908 168.036C52.3948 168.048 52.2988 168.054 52.2028 168.054C51.8908 168.054 51.6268 167.964 51.4108 167.784C51.2068 167.592 51.0988 167.358 51.0868 167.082L51.0508 165.984C50.6308 166.692 50.0788 167.238 49.3948 167.622C48.7108 167.994 47.9608 168.18 47.1448 168.18ZM59.8813 168.18C59.1493 168.18 58.4833 168 57.8833 167.64C57.2833 167.28 56.8093 166.812 56.4613 166.236V168H55.0573V154.86H56.6413V160.476C57.0373 159.864 57.5233 159.372 58.0993 159C58.6753 158.628 59.3473 158.442 60.1153 158.442C60.7633 158.442 61.3453 158.58 61.8613 158.856C62.3773 159.132 62.8153 159.498 63.1753 159.954C63.5473 160.398 63.8293 160.92 64.0213 161.52C64.2253 162.108 64.3273 162.714 64.3273 163.338C64.3273 163.998 64.2133 164.622 63.9853 165.21C63.7573 165.798 63.4453 166.314 63.0493 166.758C62.6533 167.19 62.1793 167.538 61.6273 167.802C61.0873 168.054 60.5053 168.18 59.8813 168.18ZM59.4853 166.812C59.9533 166.812 60.3853 166.716 60.7813 166.524C61.1773 166.332 61.5193 166.074 61.8073 165.75C62.0953 165.426 62.3173 165.06 62.4733 164.652C62.6293 164.232 62.7073 163.794 62.7073 163.338C62.7073 162.882 62.6293 162.444 62.4733 162.024C62.3293 161.592 62.1193 161.214 61.8433 160.89C61.5793 160.566 61.2553 160.308 60.8713 160.116C60.4993 159.912 60.0853 159.81 59.6293 159.81C59.2933 159.81 58.9753 159.87 58.6753 159.99C58.3753 160.11 58.0933 160.272 57.8293 160.476C57.5773 160.668 57.3493 160.896 57.1453 161.16C56.9533 161.424 56.7853 161.706 56.6413 162.006V164.724C56.7013 165.024 56.8273 165.3 57.0193 165.552C57.2233 165.804 57.4573 166.026 57.7213 166.218C57.9973 166.398 58.2853 166.542 58.5853 166.65C58.8973 166.758 59.1973 166.812 59.4853 166.812ZM69.5661 168.18C68.8101 168.18 68.0661 168.066 67.3341 167.838C66.6021 167.598 65.9721 167.256 65.4441 166.812L66.1281 165.75C66.6801 166.17 67.2321 166.488 67.7841 166.704C68.3361 166.908 68.9181 167.01 69.5301 167.01C70.2141 167.01 70.7541 166.878 71.1501 166.614C71.5581 166.338 71.7621 165.954 71.7621 165.462C71.7621 165.234 71.7081 165.042 71.6001 164.886C71.4921 164.718 71.3301 164.574 71.1141 164.454C70.8981 164.334 70.6221 164.226 70.2861 164.13C69.9501 164.034 69.5601 163.932 69.1161 163.824C68.5521 163.68 68.0661 163.542 67.6581 163.41C67.2501 163.278 66.9141 163.122 66.6501 162.942C66.3861 162.762 66.1941 162.546 66.0741 162.294C65.9541 162.042 65.8941 161.73 65.8941 161.358C65.8941 160.89 65.9841 160.476 66.1641 160.116C66.3561 159.744 66.6141 159.438 66.9381 159.198C67.2621 158.946 67.6401 158.76 68.0721 158.64C68.5161 158.508 68.9901 158.442 69.4941 158.442C70.2021 158.442 70.8621 158.556 71.4741 158.784C72.0861 159.012 72.6021 159.312 73.0221 159.684L72.3021 160.638C71.9061 160.29 71.4621 160.032 70.9701 159.864C70.4781 159.684 69.9741 159.594 69.4581 159.594C68.8821 159.594 68.3901 159.72 67.9821 159.972C67.5861 160.212 67.3881 160.602 67.3881 161.142C67.3881 161.358 67.4241 161.538 67.4961 161.682C67.5801 161.826 67.7121 161.952 67.8921 162.06C68.0721 162.168 68.3001 162.264 68.5761 162.348C68.8641 162.432 69.2061 162.522 69.6021 162.618C70.2261 162.762 70.7661 162.912 71.2221 163.068C71.6901 163.212 72.0741 163.386 72.3741 163.59C72.6861 163.794 72.9141 164.034 73.0581 164.31C73.2141 164.586 73.2921 164.922 73.2921 165.318C73.2921 166.194 72.9561 166.89 72.2841 167.406C71.6121 167.922 70.7061 168.18 69.5661 168.18ZM74.5367 163.284C74.5367 162.624 74.6507 162 74.8787 161.412C75.1067 160.824 75.4307 160.314 75.8507 159.882C76.2707 159.438 76.7687 159.09 77.3447 158.838C77.9327 158.574 78.5867 158.442 79.3067 158.442C80.2427 158.442 81.0467 158.652 81.7187 159.072C82.4027 159.48 82.9187 160.032 83.2667 160.728L81.7187 161.214C81.4787 160.77 81.1427 160.428 80.7107 160.188C80.2787 159.936 79.7987 159.81 79.2707 159.81C78.8387 159.81 78.4307 159.9 78.0467 160.08C77.6627 160.248 77.3327 160.488 77.0567 160.8C76.7807 161.112 76.5587 161.478 76.3907 161.898C76.2347 162.318 76.1567 162.78 76.1567 163.284C76.1567 163.776 76.2407 164.238 76.4087 164.67C76.5767 165.102 76.7987 165.48 77.0747 165.804C77.3627 166.116 77.6927 166.362 78.0647 166.542C78.4487 166.722 78.8567 166.812 79.2887 166.812C79.5647 166.812 79.8347 166.776 80.0987 166.704C80.3747 166.62 80.6207 166.512 80.8367 166.38C81.0647 166.248 81.2627 166.098 81.4307 165.93C81.5987 165.75 81.7187 165.558 81.7907 165.354L83.3387 165.822C83.1947 166.17 82.9907 166.488 82.7267 166.776C82.4747 167.064 82.1747 167.31 81.8267 167.514C81.4787 167.718 81.0887 167.88 80.6567 168C80.2367 168.12 79.7927 168.18 79.3247 168.18C78.6167 168.18 77.9687 168.048 77.3807 167.784C76.7927 167.52 76.2887 167.166 75.8687 166.722C75.4487 166.278 75.1187 165.762 74.8787 165.174C74.6507 164.574 74.5367 163.944 74.5367 163.284ZM90.1015 159.99C89.3095 160.014 88.6075 160.218 87.9955 160.602C87.3955 160.986 86.9695 161.52 86.7175 162.204V168H85.1335V158.604H86.6095V160.782C86.9335 160.134 87.3595 159.612 87.8875 159.216C88.4155 158.808 88.9795 158.58 89.5795 158.532C89.6995 158.532 89.8015 158.532 89.8855 158.532C89.9695 158.532 90.0415 158.538 90.1015 158.55V159.99ZM91.6725 168V158.604H93.2565V168H91.6725ZM91.6725 156.84V154.86H93.2565V156.84H91.6725ZM100.645 168.18C99.913 168.18 99.247 168 98.647 167.64C98.047 167.28 97.573 166.812 97.225 166.236V168H95.821V154.86H97.405V160.476C97.801 159.864 98.287 159.372 98.863 159C99.439 158.628 100.111 158.442 100.879 158.442C101.527 158.442 102.109 158.58 102.625 158.856C103.141 159.132 103.579 159.498 103.939 159.954C104.311 160.398 104.593 160.92 104.785 161.52C104.989 162.108 105.091 162.714 105.091 163.338C105.091 163.998 104.977 164.622 104.749 165.21C104.521 165.798 104.209 166.314 103.813 166.758C103.417 167.19 102.943 167.538 102.391 167.802C101.851 168.054 101.269 168.18 100.645 168.18ZM100.249 166.812C100.717 166.812 101.149 166.716 101.545 166.524C101.941 166.332 102.283 166.074 102.571 165.75C102.859 165.426 103.081 165.06 103.237 164.652C103.393 164.232 103.471 163.794 103.471 163.338C103.471 162.882 103.393 162.444 103.237 162.024C103.093 161.592 102.883 161.214 102.607 160.89C102.343 160.566 102.019 160.308 101.635 160.116C101.263 159.912 100.849 159.81 100.393 159.81C100.057 159.81 99.739 159.87 99.439 159.99C99.139 160.11 98.857 160.272 98.593 160.476C98.341 160.668 98.113 160.896 97.909 161.16C97.717 161.424 97.549 161.706 97.405 162.006V164.724C97.465 165.024 97.591 165.3 97.783 165.552C97.987 165.804 98.221 166.026 98.485 166.218C98.761 166.398 99.049 166.542 99.349 166.65C99.661 166.758 99.961 166.812 100.249 166.812ZM111.194 168.18C110.486 168.18 109.838 168.054 109.25 167.802C108.662 167.538 108.158 167.184 107.738 166.74C107.318 166.296 106.988 165.78 106.748 165.192C106.52 164.592 106.406 163.962 106.406 163.302C106.406 162.642 106.52 162.018 106.748 161.43C106.988 160.842 107.318 160.326 107.738 159.882C108.17 159.438 108.68 159.09 109.268 158.838C109.856 158.574 110.504 158.442 111.212 158.442C111.92 158.442 112.562 158.574 113.138 158.838C113.726 159.102 114.224 159.456 114.632 159.9C115.04 160.332 115.352 160.842 115.568 161.43C115.796 162.006 115.91 162.606 115.91 163.23C115.91 163.362 115.904 163.482 115.892 163.59C115.892 163.698 115.886 163.782 115.874 163.842H108.08C108.116 164.31 108.224 164.736 108.404 165.12C108.584 165.504 108.818 165.834 109.106 166.11C109.394 166.386 109.718 166.602 110.078 166.758C110.45 166.914 110.84 166.992 111.248 166.992C111.536 166.992 111.818 166.956 112.094 166.884C112.37 166.8 112.628 166.692 112.868 166.56C113.108 166.428 113.318 166.266 113.498 166.074C113.69 165.882 113.834 165.666 113.93 165.426L115.298 165.804C115.142 166.152 114.926 166.47 114.65 166.758C114.386 167.046 114.074 167.298 113.714 167.514C113.366 167.718 112.976 167.88 112.544 168C112.112 168.12 111.662 168.18 111.194 168.18ZM114.416 162.672C114.38 162.228 114.266 161.82 114.074 161.448C113.894 161.064 113.66 160.74 113.372 160.476C113.096 160.212 112.772 160.008 112.4 159.864C112.028 159.708 111.632 159.63 111.212 159.63C110.792 159.63 110.396 159.708 110.024 159.864C109.652 160.008 109.322 160.218 109.034 160.494C108.758 160.758 108.53 161.076 108.35 161.448C108.182 161.82 108.08 162.228 108.044 162.672H114.416ZM124.095 158.244V168H122.475V155.22H123.735L131.655 165.174V155.238H133.275V168H131.907L124.095 158.244ZM140.021 168.18C139.313 168.18 138.665 168.048 138.077 167.784C137.501 167.52 137.003 167.166 136.583 166.722C136.175 166.278 135.857 165.762 135.629 165.174C135.401 164.586 135.287 163.968 135.287 163.32C135.287 162.66 135.401 162.036 135.629 161.448C135.869 160.86 136.193 160.344 136.601 159.9C137.021 159.456 137.519 159.102 138.095 158.838C138.683 158.574 139.325 158.442 140.021 158.442C140.717 158.442 141.359 158.574 141.947 158.838C142.535 159.102 143.033 159.456 143.441 159.9C143.861 160.344 144.185 160.86 144.413 161.448C144.653 162.036 144.773 162.66 144.773 163.32C144.773 163.968 144.659 164.586 144.431 165.174C144.203 165.762 143.879 166.278 143.459 166.722C143.039 167.166 142.535 167.52 141.947 167.784C141.371 168.048 140.729 168.18 140.021 168.18ZM136.907 163.338C136.907 163.83 136.985 164.286 137.141 164.706C137.309 165.126 137.531 165.492 137.807 165.804C138.095 166.116 138.425 166.362 138.797 166.542C139.181 166.722 139.589 166.812 140.021 166.812C140.453 166.812 140.855 166.722 141.227 166.542C141.611 166.362 141.947 166.116 142.235 165.804C142.523 165.48 142.745 165.108 142.901 164.688C143.069 164.256 143.153 163.794 143.153 163.302C143.153 162.822 143.069 162.372 142.901 161.952C142.745 161.52 142.523 161.148 142.235 160.836C141.947 160.512 141.611 160.26 141.227 160.08C140.855 159.9 140.453 159.81 140.021 159.81C139.589 159.81 139.181 159.906 138.797 160.098C138.425 160.278 138.095 160.53 137.807 160.854C137.531 161.166 137.309 161.538 137.141 161.97C136.985 162.39 136.907 162.846 136.907 163.338ZM158.148 158.604H159.678L155.682 168H154.368L152.478 163.41L150.606 168H149.292L145.296 158.604H146.808L150.048 166.434L151.632 162.528L150.012 158.622H151.326L152.478 161.628L153.63 158.622H154.944L153.342 162.528L154.926 166.434L158.148 158.604Z" fill="white"/>
</g>
</svg>
