<svg width="221" height="179" viewBox="0 0 221 179" fill="none" xmlns="http://www.w3.org/2000/svg">
<rect width="221" height="179" fill="white"/>
<rect y="145" width="221" height="34" fill="#3F1A8E"/>
<mask id="mask0" mask-type="alpha" maskUnits="userSpaceOnUse" x="0" y="0" width="221" height="179">
<rect width="221" height="179" fill="#C4C4C4"/>
</mask>
<g mask="url(#mask0)">
<path d="M-23.1685 -18.3745L41.0121 -10.4581L-17.5859 46.0511L-23.1685 -18.3745Z" fill="#3F1A8E"/>
<rect x="69" y="54" width="54" height="4" rx="2" fill="#082D72"/>
<path d="M28.432 81.848C28.24 81.624 27.872 81.352 27.328 81.032C26.816 80.712 26.192 80.392 25.456 80.072C24.752 79.72 23.968 79.416 23.104 79.16C22.24 78.872 21.344 78.68 20.416 78.584V86.888L21.616 87.176C23.28 87.624 24.784 88.104 26.128 88.616C27.504 89.128 28.656 89.768 29.584 90.536C30.544 91.304 31.28 92.232 31.792 93.32C32.304 94.376 32.56 95.688 32.56 97.256C32.56 99.016 32.24 100.52 31.6 101.768C30.992 103.016 30.144 104.04 29.056 104.84C28 105.64 26.752 106.248 25.312 106.664C23.904 107.048 22.416 107.272 20.848 107.336V112.616H17.968V107.288C15.728 107.128 13.536 106.68 11.392 105.944C9.28 105.176 7.36 104.184 5.632 102.968L8.56 97.256C8.816 97.512 9.248 97.848 9.856 98.264C10.496 98.68 11.248 99.096 12.112 99.512C13.008 99.896 13.984 100.264 15.04 100.616C16.128 100.968 17.248 101.208 18.4 101.336V93.08C18.112 93.016 17.824 92.952 17.536 92.888C17.248 92.792 16.96 92.696 16.672 92.6C15.04 92.152 13.616 91.672 12.4 91.16C11.216 90.616 10.224 89.992 9.424 89.288C8.624 88.552 8.016 87.72 7.6 86.792C7.216 85.832 7.024 84.696 7.024 83.384C7.024 81.784 7.296 80.36 7.84 79.112C8.416 77.832 9.184 76.744 10.144 75.848C11.136 74.952 12.304 74.248 13.648 73.736C14.992 73.224 16.432 72.904 17.968 72.776V67.88H20.848V72.728C22.96 72.888 24.896 73.32 26.656 74.024C28.448 74.728 30.016 75.544 31.36 76.472L28.432 81.848ZM25.504 97.928C25.504 96.84 25.056 95.992 24.16 95.384C23.264 94.776 22.016 94.216 20.416 93.704V101.432C23.808 101.336 25.504 100.168 25.504 97.928ZM13.84 82.328C13.84 83.416 14.208 84.248 14.944 84.824C15.712 85.368 16.864 85.864 18.4 86.312V78.536C15.36 78.728 13.84 79.992 13.84 82.328ZM56.9819 101.192V107H37.4939V101.192H44.3099V86.648C44.0219 87.032 43.5579 87.432 42.9179 87.848C42.3099 88.232 41.6379 88.6 40.9019 88.952C40.1659 89.304 39.3979 89.592 38.5979 89.816C37.8299 90.04 37.1419 90.152 36.5339 90.152V84.152C37.1099 84.152 37.8139 83.976 38.6459 83.624C39.4779 83.24 40.2939 82.792 41.0939 82.28C41.8939 81.768 42.5819 81.272 43.1579 80.792C43.7659 80.28 44.1499 79.88 44.3099 79.592H50.8859V101.192H56.9819ZM85.0206 96.92C85.0206 98.52 84.6846 99.96 84.0126 101.24C83.3726 102.52 82.4766 103.624 81.3246 104.552C80.2046 105.48 78.8926 106.2 77.3886 106.712C75.8846 107.192 74.2846 107.432 72.5886 107.432C70.8926 107.432 69.2926 107.176 67.7886 106.664C66.2846 106.12 64.9726 105.368 63.8526 104.408C62.7326 103.448 61.8526 102.312 61.2126 101C60.5726 99.688 60.2526 98.248 60.2526 96.68C60.2526 95.72 60.4126 94.84 60.7326 94.04C61.0526 93.208 61.4686 92.456 61.9806 91.784C62.4926 91.112 63.0526 90.52 63.6606 90.008C64.3006 89.496 64.9406 89.08 65.5806 88.76C64.3966 88.184 63.3886 87.32 62.5566 86.168C61.7246 85.016 61.3086 83.752 61.3086 82.376C61.3086 80.84 61.6446 79.496 62.3166 78.344C63.0206 77.16 63.9166 76.168 65.0046 75.368C66.1246 74.568 67.3406 73.96 68.6526 73.544C69.9966 73.128 71.3246 72.92 72.6366 72.92C73.9166 72.92 75.2286 73.128 76.5726 73.544C77.9486 73.928 79.1806 74.52 80.2686 75.32C81.3566 76.12 82.2526 77.112 82.9566 78.296C83.6606 79.448 84.0126 80.792 84.0126 82.328C84.0126 83 83.9006 83.672 83.6766 84.344C83.4526 84.984 83.1326 85.592 82.7166 86.168C82.3326 86.712 81.8686 87.208 81.3246 87.656C80.7806 88.104 80.2046 88.472 79.5966 88.76C80.3006 89.112 80.9726 89.56 81.6126 90.104C82.2526 90.616 82.8286 91.224 83.3406 91.928C83.8526 92.6 84.2526 93.352 84.5406 94.184C84.8606 95.016 85.0206 95.928 85.0206 96.92ZM78.4926 96.536C78.4926 95.736 78.3166 95.016 77.9646 94.376C77.6446 93.736 77.1966 93.208 76.6206 92.792C76.0766 92.344 75.4526 92.008 74.7486 91.784C74.0446 91.56 73.3246 91.448 72.5886 91.448C71.8206 91.448 71.0846 91.576 70.3806 91.832C69.6766 92.056 69.0526 92.392 68.5086 92.84C67.9966 93.288 67.5806 93.832 67.2606 94.472C66.9406 95.08 66.7806 95.768 66.7806 96.536C66.7806 97.304 66.9406 98.008 67.2606 98.648C67.6126 99.256 68.0606 99.784 68.6046 100.232C69.1486 100.68 69.7726 101.032 70.4766 101.288C71.1806 101.512 71.9006 101.624 72.6366 101.624C73.4046 101.624 74.1406 101.496 74.8446 101.24C75.5486 100.984 76.1726 100.632 76.7166 100.184C77.2606 99.736 77.6926 99.208 78.0126 98.6C78.3326 97.96 78.4926 97.272 78.4926 96.536ZM67.8366 82.568C67.8366 83.24 67.9806 83.832 68.2686 84.344C68.5566 84.824 68.9246 85.24 69.3726 85.592C69.8526 85.912 70.3646 86.168 70.9086 86.36C71.4846 86.52 72.0606 86.6 72.6366 86.6C73.1806 86.6 73.7406 86.52 74.3166 86.36C74.8926 86.168 75.4046 85.896 75.8526 85.544C76.3326 85.192 76.7166 84.776 77.0046 84.296C77.2926 83.784 77.4366 83.192 77.4366 82.52C77.4366 81.336 76.9566 80.392 75.9966 79.688C75.0686 78.984 73.9326 78.632 72.5886 78.632C71.2766 78.632 70.1566 79 69.2286 79.736C68.3006 80.44 67.8366 81.384 67.8366 82.568ZM114.229 92.936C114.229 95.048 113.909 97 113.269 98.792C112.661 100.552 111.797 102.088 110.677 103.4C109.589 104.68 108.277 105.688 106.741 106.424C105.237 107.128 103.605 107.48 101.845 107.48C100.053 107.48 98.4054 107.128 96.9014 106.424C95.3974 105.688 94.0854 104.68 92.9654 103.4C91.8774 102.088 91.0134 100.552 90.3734 98.792C89.7654 97 89.4614 95.048 89.4614 92.936C89.4614 90.824 89.7654 88.888 90.3734 87.128C91.0134 85.336 91.8774 83.8 92.9654 82.52C94.0854 81.208 95.3974 80.184 96.9014 79.448C98.4054 78.712 100.053 78.344 101.845 78.344C103.605 78.344 105.237 78.712 106.741 79.448C108.277 80.184 109.589 81.208 110.677 82.52C111.797 83.8 112.661 85.336 113.269 87.128C113.909 88.888 114.229 90.824 114.229 92.936ZM107.749 92.936C107.749 91.656 107.605 90.488 107.317 89.432C107.029 88.344 106.613 87.416 106.069 86.648C105.557 85.88 104.933 85.288 104.197 84.872C103.493 84.456 102.709 84.248 101.845 84.248C100.949 84.248 100.133 84.456 99.3974 84.872C98.6934 85.288 98.0694 85.88 97.5254 86.648C97.0134 87.416 96.6134 88.344 96.3254 89.432C96.0374 90.488 95.8934 91.656 95.8934 92.936C95.8934 94.216 96.0374 95.384 96.3254 96.44C96.6134 97.496 97.0134 98.408 97.5254 99.176C98.0694 99.944 98.6934 100.536 99.3974 100.952C100.133 101.368 100.949 101.576 101.845 101.576C102.709 101.576 103.493 101.368 104.197 100.952C104.933 100.536 105.557 99.944 106.069 99.176C106.613 98.408 107.029 97.496 107.317 96.44C107.605 95.384 107.749 94.216 107.749 92.936ZM148.802 72.92L124.994 107H117.89L141.65 72.92H148.802ZM159.509 104.58V107H151.389V104.58H154.229V98.52C154.109 98.68 153.916 98.8467 153.649 99.02C153.396 99.18 153.116 99.3333 152.809 99.48C152.503 99.6267 152.183 99.7467 151.849 99.84C151.529 99.9333 151.243 99.98 150.989 99.98V97.48C151.229 97.48 151.523 97.4067 151.869 97.26C152.216 97.1 152.556 96.9133 152.889 96.7C153.223 96.4867 153.509 96.28 153.749 96.08C154.003 95.8667 154.163 95.7 154.229 95.58H156.969V104.58H159.509ZM160.752 107C160.752 106.4 160.799 105.86 160.892 105.38C160.986 104.887 161.146 104.433 161.372 104.02C161.612 103.607 161.932 103.22 162.332 102.86C162.746 102.5 163.266 102.147 163.892 101.8C164.439 101.507 164.919 101.253 165.332 101.04C165.759 100.813 166.112 100.607 166.392 100.42C166.672 100.233 166.886 100.047 167.032 99.86C167.179 99.66 167.252 99.4333 167.252 99.18C167.252 98.78 167.092 98.44 166.772 98.16C166.452 97.8667 165.992 97.72 165.392 97.72C165.072 97.72 164.779 97.7667 164.512 97.86C164.246 97.94 163.992 98.0533 163.752 98.2C163.526 98.3467 163.312 98.5133 163.112 98.7C162.926 98.8733 162.752 99.06 162.592 99.26L160.872 97.28C161.046 97.0933 161.292 96.8933 161.612 96.68C161.932 96.4533 162.306 96.2467 162.732 96.06C163.172 95.86 163.652 95.7 164.172 95.58C164.706 95.4467 165.272 95.38 165.872 95.38C166.552 95.38 167.159 95.4667 167.692 95.64C168.226 95.8 168.672 96.0333 169.032 96.34C169.406 96.6333 169.686 96.9933 169.872 97.42C170.072 97.8333 170.172 98.2867 170.172 98.78C170.172 99.2467 170.086 99.66 169.912 100.02C169.739 100.38 169.519 100.7 169.252 100.98C168.986 101.26 168.692 101.507 168.372 101.72C168.066 101.92 167.766 102.1 167.472 102.26C167.232 102.393 166.959 102.547 166.652 102.72C166.346 102.893 166.039 103.087 165.732 103.3C165.439 103.5 165.166 103.713 164.912 103.94C164.659 104.153 164.466 104.367 164.332 104.58H170.392V107H160.752ZM193.586 107H190.906V101.12C190.906 100.28 190.759 99.6667 190.466 99.28C190.186 98.8933 189.793 98.7 189.286 98.7C188.753 98.7 188.253 98.9067 187.786 99.32C187.319 99.72 186.986 100.247 186.786 100.9V107H184.106V101.12C184.106 100.28 183.959 99.6667 183.666 99.28C183.386 98.8933 182.993 98.7 182.486 98.7C181.966 98.7 181.466 98.9 180.986 99.3C180.519 99.7 180.186 100.227 179.986 100.88V107H177.306V96.52H179.726V98.46C180.113 97.78 180.639 97.26 181.306 96.9C181.986 96.5267 182.759 96.34 183.626 96.34C184.506 96.34 185.186 96.5533 185.666 96.98C186.146 97.4067 186.453 97.9333 186.586 98.56C187.013 97.84 187.553 97.2933 188.206 96.92C188.859 96.5333 189.606 96.34 190.446 96.34C191.086 96.34 191.613 96.46 192.026 96.7C192.439 96.94 192.759 97.2533 192.986 97.64C193.213 98.0267 193.366 98.4667 193.446 98.96C193.539 99.4533 193.586 99.9533 193.586 100.46V107ZM202.102 106.46C201.742 106.62 201.302 106.78 200.782 106.94C200.262 107.1 199.715 107.18 199.142 107.18C198.768 107.18 198.415 107.133 198.082 107.04C197.762 106.947 197.475 106.8 197.222 106.6C196.982 106.387 196.788 106.12 196.642 105.8C196.495 105.467 196.422 105.067 196.422 104.6V98.58H195.042V96.52H196.422V93.12H199.102V96.52H201.302V98.58H199.102V103.7C199.102 104.073 199.195 104.34 199.382 104.5C199.582 104.647 199.822 104.72 200.102 104.72C200.382 104.72 200.655 104.673 200.922 104.58C201.188 104.487 201.402 104.407 201.562 104.34L202.102 106.46ZM213.237 107H210.557V101.12C210.557 100.293 210.404 99.6867 210.097 99.3C209.791 98.9 209.357 98.7 208.797 98.7C208.557 98.7 208.304 98.7533 208.037 98.86C207.771 98.9667 207.517 99.12 207.277 99.32C207.037 99.5067 206.817 99.7333 206.617 100C206.417 100.267 206.271 100.56 206.177 100.88V107H203.497V92.4H206.177V98.46C206.564 97.78 207.084 97.26 207.737 96.9C208.404 96.5267 209.137 96.34 209.937 96.34C210.617 96.34 211.171 96.46 211.597 96.7C212.024 96.9267 212.357 97.2333 212.597 97.62C212.837 98.0067 213.004 98.4467 213.097 98.94C213.191 99.4333 213.237 99.94 213.237 100.46V107Z" fill="black"/>
<path d="M79.528 19.96L84.136 32.848L88.696 19.96H92.176L85.528 37H82.744L76.048 19.96H79.528ZM93.9948 37V19.96H97.3068V37H93.9948ZM100.862 37V19.96H108.086C108.87 19.96 109.59 20.128 110.246 20.464C110.918 20.784 111.494 21.216 111.974 21.76C112.454 22.288 112.83 22.896 113.102 23.584C113.374 24.256 113.51 24.936 113.51 25.624C113.51 26.344 113.382 27.048 113.126 27.736C112.87 28.408 112.51 29.008 112.046 29.536C111.582 30.064 111.022 30.488 110.366 30.808C109.71 31.128 108.99 31.288 108.206 31.288H104.174V37H100.862ZM104.174 28.384H108.014C108.622 28.384 109.126 28.136 109.526 27.64C109.942 27.144 110.15 26.472 110.15 25.624C110.15 25.192 110.086 24.808 109.958 24.472C109.83 24.12 109.662 23.824 109.454 23.584C109.246 23.344 108.998 23.168 108.71 23.056C108.438 22.928 108.158 22.864 107.87 22.864H104.174V28.384Z" fill="black"/>
<path d="M41.036 157.902C40.892 157.734 40.7 157.572 40.46 157.416C40.22 157.26 39.95 157.122 39.65 157.002C39.35 156.87 39.02 156.768 38.66 156.696C38.312 156.612 37.946 156.57 37.562 156.57C36.566 156.57 35.834 156.756 35.366 157.128C34.91 157.5 34.682 158.01 34.682 158.658C34.682 159.006 34.748 159.294 34.88 159.522C35.012 159.75 35.216 159.948 35.492 160.116C35.78 160.272 36.134 160.41 36.554 160.53C36.974 160.65 37.472 160.776 38.048 160.908C38.708 161.052 39.302 161.22 39.83 161.412C40.37 161.592 40.826 161.82 41.198 162.096C41.582 162.372 41.87 162.708 42.062 163.104C42.266 163.5 42.368 163.986 42.368 164.562C42.368 165.174 42.248 165.708 42.008 166.164C41.768 166.608 41.438 166.98 41.018 167.28C40.61 167.568 40.124 167.784 39.56 167.928C38.996 168.06 38.384 168.126 37.724 168.126C36.74 168.126 35.804 167.976 34.916 167.676C34.04 167.364 33.242 166.914 32.522 166.326L33.296 164.958C33.488 165.162 33.734 165.366 34.034 165.57C34.346 165.774 34.694 165.96 35.078 166.128C35.474 166.284 35.894 166.416 36.338 166.524C36.794 166.62 37.268 166.668 37.76 166.668C38.672 166.668 39.38 166.506 39.884 166.182C40.388 165.858 40.64 165.372 40.64 164.724C40.64 164.364 40.556 164.064 40.388 163.824C40.232 163.572 39.998 163.356 39.686 163.176C39.374 162.996 38.984 162.84 38.516 162.708C38.06 162.564 37.538 162.42 36.95 162.276C36.302 162.12 35.732 161.952 35.24 161.772C34.748 161.592 34.334 161.376 33.998 161.124C33.674 160.872 33.428 160.566 33.26 160.206C33.092 159.846 33.008 159.414 33.008 158.91C33.008 158.298 33.122 157.758 33.35 157.29C33.578 156.822 33.896 156.426 34.304 156.102C34.712 155.778 35.198 155.538 35.762 155.382C36.326 155.214 36.938 155.13 37.598 155.13C38.462 155.13 39.242 155.262 39.938 155.526C40.634 155.79 41.252 156.144 41.792 156.588L41.036 157.902ZM47.1448 168.18C46.1608 168.18 45.4168 167.85 44.9128 167.19C44.4088 166.53 44.1567 165.546 44.1567 164.238V158.604H45.7408V163.932C45.7408 165.852 46.4068 166.812 47.7388 166.812C48.3868 166.812 48.9928 166.608 49.5568 166.2C50.1328 165.78 50.5588 165.21 50.8348 164.49V158.604H52.4188V166.056C52.4188 166.428 52.5868 166.62 52.9228 166.632V168C52.7428 168.024 52.5988 168.036 52.4908 168.036C52.3948 168.048 52.2988 168.054 52.2028 168.054C51.8908 168.054 51.6268 167.964 51.4108 167.784C51.2068 167.592 51.0988 167.358 51.0868 167.082L51.0508 165.984C50.6308 166.692 50.0788 167.238 49.3948 167.622C48.7108 167.994 47.9608 168.18 47.1448 168.18ZM59.8813 168.18C59.1493 168.18 58.4833 168 57.8833 167.64C57.2833 167.28 56.8093 166.812 56.4613 166.236V168H55.0573V154.86H56.6413V160.476C57.0373 159.864 57.5233 159.372 58.0993 159C58.6753 158.628 59.3473 158.442 60.1153 158.442C60.7633 158.442 61.3453 158.58 61.8613 158.856C62.3773 159.132 62.8153 159.498 63.1753 159.954C63.5473 160.398 63.8293 160.92 64.0213 161.52C64.2253 162.108 64.3273 162.714 64.3273 163.338C64.3273 163.998 64.2133 164.622 63.9853 165.21C63.7573 165.798 63.4453 166.314 63.0493 166.758C62.6533 167.19 62.1793 167.538 61.6273 167.802C61.0873 168.054 60.5053 168.18 59.8813 168.18ZM59.4853 166.812C59.9533 166.812 60.3853 166.716 60.7813 166.524C61.1773 166.332 61.5193 166.074 61.8073 165.75C62.0953 165.426 62.3173 165.06 62.4733 164.652C62.6293 164.232 62.7073 163.794 62.7073 163.338C62.7073 162.882 62.6293 162.444 62.4733 162.024C62.3293 161.592 62.1193 161.214 61.8433 160.89C61.5793 160.566 61.2553 160.308 60.8713 160.116C60.4993 159.912 60.0853 159.81 59.6293 159.81C59.2933 159.81 58.9753 159.87 58.6753 159.99C58.3753 160.11 58.0933 160.272 57.8293 160.476C57.5773 160.668 57.3493 160.896 57.1453 161.16C56.9533 161.424 56.7853 161.706 56.6413 162.006V164.724C56.7013 165.024 56.8273 165.3 57.0193 165.552C57.2233 165.804 57.4573 166.026 57.7213 166.218C57.9973 166.398 58.2853 166.542 58.5853 166.65C58.8973 166.758 59.1973 166.812 59.4853 166.812ZM69.5661 168.18C68.8101 168.18 68.0661 168.066 67.3341 167.838C66.6021 167.598 65.9721 167.256 65.4441 166.812L66.1281 165.75C66.6801 166.17 67.2321 166.488 67.7841 166.704C68.3361 166.908 68.9181 167.01 69.5301 167.01C70.2141 167.01 70.7541 166.878 71.1501 166.614C71.5581 166.338 71.7621 165.954 71.7621 165.462C71.7621 165.234 71.7081 165.042 71.6001 164.886C71.4921 164.718 71.3301 164.574 71.1141 164.454C70.8981 164.334 70.6221 164.226 70.2861 164.13C69.9501 164.034 69.5601 163.932 69.1161 163.824C68.5521 163.68 68.0661 163.542 67.6581 163.41C67.2501 163.278 66.9141 163.122 66.6501 162.942C66.3861 162.762 66.1941 162.546 66.0741 162.294C65.9541 162.042 65.8941 161.73 65.8941 161.358C65.8941 160.89 65.9841 160.476 66.1641 160.116C66.3561 159.744 66.6141 159.438 66.9381 159.198C67.2621 158.946 67.6401 158.76 68.0721 158.64C68.5161 158.508 68.9901 158.442 69.4941 158.442C70.2021 158.442 70.8621 158.556 71.4741 158.784C72.0861 159.012 72.6021 159.312 73.0221 159.684L72.3021 160.638C71.9061 160.29 71.4621 160.032 70.9701 159.864C70.4781 159.684 69.9741 159.594 69.4581 159.594C68.8821 159.594 68.3901 159.72 67.9821 159.972C67.5861 160.212 67.3881 160.602 67.3881 161.142C67.3881 161.358 67.4241 161.538 67.4961 161.682C67.5801 161.826 67.7121 161.952 67.8921 162.06C68.0721 162.168 68.3001 162.264 68.5761 162.348C68.8641 162.432 69.2061 162.522 69.6021 162.618C70.2261 162.762 70.7661 162.912 71.2221 163.068C71.6901 163.212 72.0741 163.386 72.3741 163.59C72.6861 163.794 72.9141 164.034 73.0581 164.31C73.2141 164.586 73.2921 164.922 73.2921 165.318C73.2921 166.194 72.9561 166.89 72.2841 167.406C71.6121 167.922 70.7061 168.18 69.5661 168.18ZM74.5367 163.284C74.5367 162.624 74.6507 162 74.8787 161.412C75.1067 160.824 75.4307 160.314 75.8507 159.882C76.2707 159.438 76.7687 159.09 77.3447 158.838C77.9327 158.574 78.5867 158.442 79.3067 158.442C80.2427 158.442 81.0467 158.652 81.7187 159.072C82.4027 159.48 82.9187 160.032 83.2667 160.728L81.7187 161.214C81.4787 160.77 81.1427 160.428 80.7107 160.188C80.2787 159.936 79.7987 159.81 79.2707 159.81C78.8387 159.81 78.4307 159.9 78.0467 160.08C77.6627 160.248 77.3327 160.488 77.0567 160.8C76.7807 161.112 76.5587 161.478 76.3907 161.898C76.2347 162.318 76.1567 162.78 76.1567 163.284C76.1567 163.776 76.2407 164.238 76.4087 164.67C76.5767 165.102 76.7987 165.48 77.0747 165.804C77.3627 166.116 77.6927 166.362 78.0647 166.542C78.4487 166.722 78.8567 166.812 79.2887 166.812C79.5647 166.812 79.8347 166.776 80.0987 166.704C80.3747 166.62 80.6207 166.512 80.8367 166.38C81.0647 166.248 81.2627 166.098 81.4307 165.93C81.5987 165.75 81.7187 165.558 81.7907 165.354L83.3387 165.822C83.1947 166.17 82.9907 166.488 82.7267 166.776C82.4747 167.064 82.1747 167.31 81.8267 167.514C81.4787 167.718 81.0887 167.88 80.6567 168C80.2367 168.12 79.7927 168.18 79.3247 168.18C78.6167 168.18 77.9687 168.048 77.3807 167.784C76.7927 167.52 76.2887 167.166 75.8687 166.722C75.4487 166.278 75.1187 165.762 74.8787 165.174C74.6507 164.574 74.5367 163.944 74.5367 163.284ZM90.1015 159.99C89.3095 160.014 88.6075 160.218 87.9955 160.602C87.3955 160.986 86.9695 161.52 86.7175 162.204V168H85.1335V158.604H86.6095V160.782C86.9335 160.134 87.3595 159.612 87.8875 159.216C88.4155 158.808 88.9795 158.58 89.5795 158.532C89.6995 158.532 89.8015 158.532 89.8855 158.532C89.9695 158.532 90.0415 158.538 90.1015 158.55V159.99ZM91.6725 168V158.604H93.2565V168H91.6725ZM91.6725 156.84V154.86H93.2565V156.84H91.6725ZM100.645 168.18C99.913 168.18 99.247 168 98.647 167.64C98.047 167.28 97.573 166.812 97.225 166.236V168H95.821V154.86H97.405V160.476C97.801 159.864 98.287 159.372 98.863 159C99.439 158.628 100.111 158.442 100.879 158.442C101.527 158.442 102.109 158.58 102.625 158.856C103.141 159.132 103.579 159.498 103.939 159.954C104.311 160.398 104.593 160.92 104.785 161.52C104.989 162.108 105.091 162.714 105.091 163.338C105.091 163.998 104.977 164.622 104.749 165.21C104.521 165.798 104.209 166.314 103.813 166.758C103.417 167.19 102.943 167.538 102.391 167.802C101.851 168.054 101.269 168.18 100.645 168.18ZM100.249 166.812C100.717 166.812 101.149 166.716 101.545 166.524C101.941 166.332 102.283 166.074 102.571 165.75C102.859 165.426 103.081 165.06 103.237 164.652C103.393 164.232 103.471 163.794 103.471 163.338C103.471 162.882 103.393 162.444 103.237 162.024C103.093 161.592 102.883 161.214 102.607 160.89C102.343 160.566 102.019 160.308 101.635 160.116C101.263 159.912 100.849 159.81 100.393 159.81C100.057 159.81 99.739 159.87 99.439 159.99C99.139 160.11 98.857 160.272 98.593 160.476C98.341 160.668 98.113 160.896 97.909 161.16C97.717 161.424 97.549 161.706 97.405 162.006V164.724C97.465 165.024 97.591 165.3 97.783 165.552C97.987 165.804 98.221 166.026 98.485 166.218C98.761 166.398 99.049 166.542 99.349 166.65C99.661 166.758 99.961 166.812 100.249 166.812ZM111.194 168.18C110.486 168.18 109.838 168.054 109.25 167.802C108.662 167.538 108.158 167.184 107.738 166.74C107.318 166.296 106.988 165.78 106.748 165.192C106.52 164.592 106.406 163.962 106.406 163.302C106.406 162.642 106.52 162.018 106.748 161.43C106.988 160.842 107.318 160.326 107.738 159.882C108.17 159.438 108.68 159.09 109.268 158.838C109.856 158.574 110.504 158.442 111.212 158.442C111.92 158.442 112.562 158.574 113.138 158.838C113.726 159.102 114.224 159.456 114.632 159.9C115.04 160.332 115.352 160.842 115.568 161.43C115.796 162.006 115.91 162.606 115.91 163.23C115.91 163.362 115.904 163.482 115.892 163.59C115.892 163.698 115.886 163.782 115.874 163.842H108.08C108.116 164.31 108.224 164.736 108.404 165.12C108.584 165.504 108.818 165.834 109.106 166.11C109.394 166.386 109.718 166.602 110.078 166.758C110.45 166.914 110.84 166.992 111.248 166.992C111.536 166.992 111.818 166.956 112.094 166.884C112.37 166.8 112.628 166.692 112.868 166.56C113.108 166.428 113.318 166.266 113.498 166.074C113.69 165.882 113.834 165.666 113.93 165.426L115.298 165.804C115.142 166.152 114.926 166.47 114.65 166.758C114.386 167.046 114.074 167.298 113.714 167.514C113.366 167.718 112.976 167.88 112.544 168C112.112 168.12 111.662 168.18 111.194 168.18ZM114.416 162.672C114.38 162.228 114.266 161.82 114.074 161.448C113.894 161.064 113.66 160.74 113.372 160.476C113.096 160.212 112.772 160.008 112.4 159.864C112.028 159.708 111.632 159.63 111.212 159.63C110.792 159.63 110.396 159.708 110.024 159.864C109.652 160.008 109.322 160.218 109.034 160.494C108.758 160.758 108.53 161.076 108.35 161.448C108.182 161.82 108.08 162.228 108.044 162.672H114.416ZM124.095 158.244V168H122.475V155.22H123.735L131.655 165.174V155.238H133.275V168H131.907L124.095 158.244ZM140.021 168.18C139.313 168.18 138.665 168.048 138.077 167.784C137.501 167.52 137.003 167.166 136.583 166.722C136.175 166.278 135.857 165.762 135.629 165.174C135.401 164.586 135.287 163.968 135.287 163.32C135.287 162.66 135.401 162.036 135.629 161.448C135.869 160.86 136.193 160.344 136.601 159.9C137.021 159.456 137.519 159.102 138.095 158.838C138.683 158.574 139.325 158.442 140.021 158.442C140.717 158.442 141.359 158.574 141.947 158.838C142.535 159.102 143.033 159.456 143.441 159.9C143.861 160.344 144.185 160.86 144.413 161.448C144.653 162.036 144.773 162.66 144.773 163.32C144.773 163.968 144.659 164.586 144.431 165.174C144.203 165.762 143.879 166.278 143.459 166.722C143.039 167.166 142.535 167.52 141.947 167.784C141.371 168.048 140.729 168.18 140.021 168.18ZM136.907 163.338C136.907 163.83 136.985 164.286 137.141 164.706C137.309 165.126 137.531 165.492 137.807 165.804C138.095 166.116 138.425 166.362 138.797 166.542C139.181 166.722 139.589 166.812 140.021 166.812C140.453 166.812 140.855 166.722 141.227 166.542C141.611 166.362 141.947 166.116 142.235 165.804C142.523 165.48 142.745 165.108 142.901 164.688C143.069 164.256 143.153 163.794 143.153 163.302C143.153 162.822 143.069 162.372 142.901 161.952C142.745 161.52 142.523 161.148 142.235 160.836C141.947 160.512 141.611 160.26 141.227 160.08C140.855 159.9 140.453 159.81 140.021 159.81C139.589 159.81 139.181 159.906 138.797 160.098C138.425 160.278 138.095 160.53 137.807 160.854C137.531 161.166 137.309 161.538 137.141 161.97C136.985 162.39 136.907 162.846 136.907 163.338ZM158.148 158.604H159.678L155.682 168H154.368L152.478 163.41L150.606 168H149.292L145.296 158.604H146.808L150.048 166.434L151.632 162.528L150.012 158.622H151.326L152.478 161.628L153.63 158.622H154.944L153.342 162.528L154.926 166.434L158.148 158.604Z" fill="white"/>
</g>
</svg>
